<?xml version="1.0" encoding="utf-8"?>
<!-- Generator: Adobe Illustrator 26.0.3, SVG Export Plug-In . SVG Version: 6.00 Build 0)  -->
<svg version="1.1" id="Capa_1" xmlns="http://www.w3.org/2000/svg" xmlns:xlink="http://www.w3.org/1999/xlink" x="0px" y="0px"
	 viewBox="0 0 252.9 216.5" style="enable-background:new 0 0 252.9 216.5;" xml:space="preserve">
<style type="text/css">
	.st0{fill:none;stroke:#6892B2;stroke-linecap:round;stroke-linejoin:round;stroke-miterlimit:10;}
	.st1{fill:#B8B8B7;}
	.st2{fill:#FCC125;}
	.st3{fill:#439D43;}
	.st4{fill:#0672B9;}
	.st5{fill:#ACC3D3;}
	.st6{fill:#6792B4;}
	.st7{fill:#6692B5;}
	.st8{fill:#E74F3F;}
	.st9{fill:#ADC4D4;}
	.st10{fill:#FFFFFF;}
	.st11{fill:none;stroke:#ADC3D3;stroke-miterlimit:10;}
	.st12{fill:#FFFFFF;stroke:#ADC3D3;stroke-miterlimit:10;}
</style>
<g>
	<g id="Background">
	</g>
	<path class="st0" d="M85.4,70.1H213c4.7,0,8.4,3.8,8.4,8.4V90c0,4.7-3.8,8.4-8.4,8.4H85.4"/>
	<path class="st0" d="M85.4,115.5H213c4.7,0,8.4,3.8,8.4,8.4v11.4c0,4.7-3.8,8.4-8.4,8.4H85.4"/>
	<path class="st0" d="M85.4,160.9H213c4.7,0,8.4,3.8,8.4,8.4v11.4c0,4.7-3.8,8.4-8.4,8.4H85.4"/>
	<g>
		<g>
			<path class="st1" d="M117.6,76.4c-0.5,0-0.8,0.2-1.1,0.5s-0.4,0.9-0.4,1.5c0,1.3,0.5,2,1.5,2c0.4,0,0.9-0.1,1.5-0.3v1.1
				c-0.5,0.2-1,0.3-1.6,0.3c-0.9,0-1.5-0.3-2-0.8s-0.7-1.3-0.7-2.3c0-0.6,0.1-1.2,0.3-1.6s0.6-0.8,1-1.1c0.4-0.3,0.9-0.4,1.5-0.4
				c0.6,0,1.2,0.1,1.8,0.4l-0.4,1c-0.2-0.1-0.5-0.2-0.7-0.3C118,76.5,117.8,76.4,117.6,76.4z"/>
			<path class="st1" d="M124.1,81.5l-0.4-1.4h-2.2l-0.4,1.4h-1.4l2.1-6h1.6l2.1,6H124.1z M123.3,79c-0.4-1.3-0.6-2-0.7-2.2
				c-0.1-0.2-0.1-0.3-0.1-0.4c-0.1,0.4-0.3,1.2-0.8,2.6H123.3z"/>
			<path class="st1" d="M127.5,79.2v2.3h-1.3v-6h1.7c0.8,0,1.4,0.1,1.8,0.4c0.4,0.3,0.6,0.7,0.6,1.4c0,0.4-0.1,0.7-0.3,0.9
				s-0.5,0.5-0.8,0.6c0.9,1.3,1.5,2.2,1.8,2.6h-1.4l-1.4-2.3H127.5z M127.5,78.1h0.4c0.4,0,0.7-0.1,0.9-0.2c0.2-0.1,0.3-0.3,0.3-0.6
				c0-0.3-0.1-0.5-0.3-0.6c-0.2-0.1-0.5-0.2-0.9-0.2h-0.4V78.1z"/>
			<path class="st1" d="M133,79.2v2.3h-1.3v-6h1.7c0.8,0,1.4,0.1,1.8,0.4c0.4,0.3,0.6,0.7,0.6,1.4c0,0.4-0.1,0.7-0.3,0.9
				s-0.5,0.5-0.8,0.6c0.9,1.3,1.5,2.2,1.8,2.6h-1.4l-1.4-2.3H133z M133,78.1h0.4c0.4,0,0.7-0.1,0.9-0.2c0.2-0.1,0.3-0.3,0.3-0.6
				c0-0.3-0.1-0.5-0.3-0.6c-0.2-0.1-0.5-0.2-0.9-0.2H133V78.1z"/>
			<path class="st1" d="M140.7,81.5h-3.5v-6h3.5v1h-2.2v1.3h2v1h-2v1.5h2.2V81.5z"/>
			<path class="st1" d="M143.3,79.2v2.3H142v-6h1.7c0.8,0,1.4,0.1,1.8,0.4c0.4,0.3,0.6,0.7,0.6,1.4c0,0.4-0.1,0.7-0.3,0.9
				s-0.5,0.5-0.8,0.6c0.9,1.3,1.5,2.2,1.8,2.6h-1.4l-1.4-2.3H143.3z M143.3,78.1h0.4c0.4,0,0.7-0.1,0.9-0.2c0.2-0.1,0.3-0.3,0.3-0.6
				c0-0.3-0.1-0.5-0.3-0.6c-0.2-0.1-0.5-0.2-0.9-0.2h-0.4V78.1z"/>
			<path class="st1" d="M151.2,81.5l-0.4-1.4h-2.2l-0.4,1.4h-1.4l2.1-6h1.6l2.1,6H151.2z M150.5,79c-0.4-1.3-0.6-2-0.7-2.2
				c-0.1-0.2-0.1-0.3-0.1-0.4c-0.1,0.4-0.3,1.2-0.8,2.6H150.5z"/>
			<path class="st1" d="M156.9,79.8c0,0.5-0.2,1-0.6,1.3s-0.9,0.5-1.6,0.5c-0.6,0-1.2-0.1-1.7-0.4V80c0.4,0.2,0.7,0.3,1,0.4
				c0.3,0.1,0.5,0.1,0.8,0.1c0.3,0,0.5-0.1,0.6-0.2c0.1-0.1,0.2-0.3,0.2-0.5c0-0.1,0-0.2-0.1-0.3s-0.2-0.2-0.3-0.3s-0.4-0.2-0.8-0.4
				c-0.4-0.2-0.6-0.3-0.8-0.5s-0.3-0.3-0.4-0.6c-0.1-0.2-0.2-0.5-0.2-0.7c0-0.5,0.2-0.9,0.5-1.3s0.9-0.5,1.5-0.5
				c0.3,0,0.6,0,0.9,0.1c0.3,0.1,0.6,0.2,0.9,0.3l-0.4,1c-0.3-0.1-0.6-0.2-0.8-0.3c-0.2-0.1-0.4-0.1-0.6-0.1c-0.2,0-0.4,0.1-0.6,0.2
				c-0.1,0.1-0.2,0.3-0.2,0.4c0,0.1,0,0.2,0.1,0.3c0.1,0.1,0.1,0.2,0.2,0.2c0.1,0.1,0.4,0.2,0.8,0.4c0.6,0.3,0.9,0.5,1.2,0.8
				C156.8,79.1,156.9,79.4,156.9,79.8z"/>
			<path class="st1" d="M165.1,78.4c0,1-0.3,1.7-0.8,2.3c-0.6,0.5-1.4,0.8-2.4,0.8h-1.7v-6h1.9c1,0,1.7,0.3,2.3,0.8
				C164.9,76.8,165.1,77.5,165.1,78.4z M163.8,78.4c0-1.3-0.6-1.9-1.7-1.9h-0.7v3.9h0.5C163.2,80.4,163.8,79.8,163.8,78.4z"/>
			<path class="st1" d="M169.8,81.5h-3.5v-6h3.5v1h-2.2v1.3h2v1h-2v1.5h2.2V81.5z"/>
			<path class="st1" d="M175.5,78.1h2.4v3.1c-0.4,0.1-0.7,0.2-1.1,0.3c-0.3,0.1-0.7,0.1-1,0.1c-0.9,0-1.6-0.3-2.1-0.8
				c-0.5-0.5-0.7-1.3-0.7-2.3c0-1,0.3-1.7,0.8-2.3c0.6-0.5,1.3-0.8,2.3-0.8c0.6,0,1.2,0.1,1.8,0.4l-0.4,1c-0.4-0.2-0.9-0.3-1.4-0.3
				c-0.5,0-1,0.2-1.3,0.6c-0.3,0.4-0.5,0.9-0.5,1.5c0,0.7,0.1,1.1,0.4,1.5s0.7,0.5,1.2,0.5c0.3,0,0.5,0,0.8-0.1v-1.3h-1.1V78.1z"/>
			<path class="st1" d="M180.6,79.2v2.3h-1.3v-6h1.7c0.8,0,1.4,0.1,1.8,0.4c0.4,0.3,0.6,0.7,0.6,1.4c0,0.4-0.1,0.7-0.3,0.9
				s-0.5,0.5-0.8,0.6c0.9,1.3,1.5,2.2,1.8,2.6h-1.4l-1.4-2.3H180.6z M180.6,78.1h0.4c0.4,0,0.7-0.1,0.9-0.2c0.2-0.1,0.3-0.3,0.3-0.6
				c0-0.3-0.1-0.5-0.3-0.6c-0.2-0.1-0.5-0.2-0.9-0.2h-0.4V78.1z"/>
			<path class="st1" d="M188.6,81.5l-0.4-1.4h-2.2l-0.4,1.4h-1.4l2.1-6h1.6l2.1,6H188.6z M187.8,79c-0.4-1.3-0.6-2-0.7-2.2
				c-0.1-0.2-0.1-0.3-0.1-0.4c-0.1,0.4-0.3,1.2-0.8,2.6H187.8z"/>
			<path class="st1" d="M195.7,78.4c0,1-0.3,1.7-0.8,2.3c-0.6,0.5-1.4,0.8-2.4,0.8h-1.7v-6h1.9c1,0,1.7,0.3,2.3,0.8
				C195.4,76.8,195.7,77.5,195.7,78.4z M194.3,78.4c0-1.3-0.6-1.9-1.7-1.9H192v3.9h0.5C193.7,80.4,194.3,79.8,194.3,78.4z"/>
			<path class="st1" d="M202.4,78.5c0,1-0.2,1.8-0.7,2.3c-0.5,0.5-1.2,0.8-2.1,0.8c-0.9,0-1.6-0.3-2.1-0.8c-0.5-0.5-0.7-1.3-0.7-2.3
				s0.2-1.8,0.7-2.3c0.5-0.5,1.2-0.8,2.1-0.8s1.6,0.3,2.1,0.8S202.4,77.5,202.4,78.5z M198,78.5c0,0.7,0.1,1.2,0.4,1.5
				c0.3,0.3,0.6,0.5,1.1,0.5c1,0,1.5-0.7,1.5-2c0-1.4-0.5-2-1.5-2c-0.5,0-0.9,0.2-1.1,0.5C198.1,77.3,198,77.8,198,78.5z"/>
		</g>
	</g>
	<g>
		<g>
			<path class="st1" d="M102.3,122.5c-0.4,0-0.8,0.2-1,0.5c-0.2,0.3-0.4,0.8-0.4,1.3c0,1.2,0.4,1.8,1.3,1.8c0.4,0,0.8-0.1,1.4-0.3v1
				c-0.4,0.2-0.9,0.3-1.5,0.3c-0.8,0-1.4-0.2-1.8-0.7c-0.4-0.5-0.6-1.1-0.6-2c0-0.6,0.1-1,0.3-1.5c0.2-0.4,0.5-0.7,0.9-1
				c0.4-0.2,0.8-0.3,1.3-0.3c0.5,0,1,0.1,1.6,0.4l-0.4,0.9c-0.2-0.1-0.4-0.2-0.6-0.2C102.7,122.6,102.5,122.5,102.3,122.5z"/>
			<path class="st1" d="M104.8,127v-5.4h1.1v5.4H104.8z"/>
			<path class="st1" d="M109.6,122.5c-0.4,0-0.8,0.2-1,0.5c-0.2,0.3-0.4,0.8-0.4,1.3c0,1.2,0.4,1.8,1.3,1.8c0.4,0,0.8-0.1,1.4-0.3v1
				c-0.4,0.2-0.9,0.3-1.5,0.3c-0.8,0-1.4-0.2-1.8-0.7c-0.4-0.5-0.6-1.1-0.6-2c0-0.6,0.1-1,0.3-1.5c0.2-0.4,0.5-0.7,0.9-1
				c0.4-0.2,0.8-0.3,1.3-0.3c0.5,0,1,0.1,1.6,0.4l-0.4,0.9c-0.2-0.1-0.4-0.2-0.6-0.2C109.9,122.6,109.8,122.5,109.6,122.5z"/>
			<path class="st1" d="M112.1,127v-5.4h1.1v4.4h2.2v0.9H112.1z"/>
			<path class="st1" d="M121.2,124.3c0,0.9-0.2,1.6-0.7,2c-0.4,0.5-1.1,0.7-1.9,0.7s-1.5-0.2-1.9-0.7c-0.4-0.5-0.7-1.2-0.7-2.1
				c0-0.9,0.2-1.6,0.7-2s1.1-0.7,1.9-0.7c0.8,0,1.5,0.2,1.9,0.7C120.9,122.8,121.2,123.4,121.2,124.3z M117.2,124.3
				c0,0.6,0.1,1,0.3,1.4s0.6,0.5,1,0.5c0.9,0,1.4-0.6,1.4-1.8c0-1.2-0.5-1.8-1.4-1.8c-0.5,0-0.8,0.2-1,0.5
				C117.4,123.3,117.2,123.7,117.2,124.3z"/>
			<path class="st1" d="M125.4,125.5c0,0.5-0.2,0.9-0.5,1.1c-0.3,0.3-0.8,0.4-1.5,0.4c-0.6,0-1.1-0.1-1.5-0.3v-1.1
				c0.4,0.2,0.7,0.3,0.9,0.3c0.3,0.1,0.5,0.1,0.7,0.1c0.2,0,0.4,0,0.6-0.1c0.1-0.1,0.2-0.2,0.2-0.4c0-0.1,0-0.2-0.1-0.3
				s-0.1-0.2-0.3-0.2c-0.1-0.1-0.3-0.2-0.7-0.4c-0.3-0.2-0.6-0.3-0.7-0.4s-0.3-0.3-0.4-0.5c-0.1-0.2-0.1-0.4-0.1-0.7
				c0-0.5,0.2-0.8,0.5-1.1c0.3-0.3,0.8-0.4,1.3-0.4c0.3,0,0.5,0,0.8,0.1c0.3,0.1,0.5,0.2,0.8,0.3l-0.4,0.9c-0.3-0.1-0.5-0.2-0.7-0.2
				c-0.2,0-0.4-0.1-0.6-0.1c-0.2,0-0.4,0-0.5,0.2c-0.1,0.1-0.2,0.2-0.2,0.4c0,0.1,0,0.2,0.1,0.3s0.1,0.1,0.2,0.2
				c0.1,0.1,0.3,0.2,0.7,0.4c0.5,0.2,0.8,0.5,1,0.7C125.3,124.9,125.4,125.2,125.4,125.5z"/>
			<path class="st1" d="M132.8,124.3c0,0.9-0.3,1.6-0.8,2c-0.5,0.5-1.2,0.7-2.2,0.7h-1.5v-5.4h1.7c0.9,0,1.6,0.2,2,0.7
				C132.5,122.8,132.8,123.5,132.8,124.3z M131.6,124.3c0-1.2-0.5-1.7-1.5-1.7h-0.6v3.5h0.5C131.1,126.1,131.6,125.5,131.6,124.3z"
				/>
			<path class="st1" d="M137,127h-3.1v-5.4h3.1v0.9H135v1.2h1.8v0.9H135v1.4h1.9V127z"/>
			<path class="st1" d="M142.3,122.5c-0.4,0-0.8,0.2-1,0.5s-0.4,0.8-0.4,1.3c0,1.2,0.4,1.8,1.3,1.8c0.4,0,0.8-0.1,1.4-0.3v1
				c-0.4,0.2-0.9,0.3-1.5,0.3c-0.8,0-1.4-0.2-1.8-0.7c-0.4-0.5-0.6-1.1-0.6-2c0-0.6,0.1-1,0.3-1.5c0.2-0.4,0.5-0.7,0.9-1
				c0.4-0.2,0.8-0.3,1.3-0.3c0.5,0,1,0.1,1.6,0.4l-0.4,0.9c-0.2-0.1-0.4-0.2-0.6-0.2C142.7,122.6,142.5,122.5,142.3,122.5z"/>
			<path class="st1" d="M149.7,124.3c0,0.9-0.2,1.6-0.7,2c-0.4,0.5-1.1,0.7-1.9,0.7s-1.5-0.2-1.9-0.7c-0.4-0.5-0.7-1.2-0.7-2.1
				c0-0.9,0.2-1.6,0.7-2s1.1-0.7,1.9-0.7c0.8,0,1.5,0.2,1.9,0.7S149.7,123.4,149.7,124.3z M145.8,124.3c0,0.6,0.1,1,0.3,1.4
				c0.2,0.3,0.6,0.5,1,0.5c0.9,0,1.4-0.6,1.4-1.8c0-1.2-0.5-1.8-1.4-1.8c-0.5,0-0.8,0.2-1,0.5S145.8,123.7,145.8,124.3z"/>
			<path class="st1" d="M153.1,127l-1.3-4.2h0c0,0.9,0.1,1.4,0.1,1.7v2.5h-1v-5.4h1.5l1.3,4.1h0l1.3-4.1h1.5v5.4h-1.1v-2.5
				c0-0.1,0-0.3,0-0.4c0-0.2,0-0.6,0-1.2h0l-1.4,4.2H153.1z"/>
			<path class="st1" d="M161.6,123.3c0,0.6-0.2,1-0.5,1.3c-0.4,0.3-0.9,0.5-1.5,0.5H159v1.9h-1.1v-5.4h1.7c0.6,0,1.1,0.1,1.5,0.4
				C161.4,122.4,161.6,122.8,161.6,123.3z M159,124.2h0.4c0.3,0,0.6-0.1,0.8-0.2c0.2-0.1,0.3-0.3,0.3-0.6c0-0.3-0.1-0.5-0.2-0.6
				s-0.4-0.2-0.7-0.2H159V124.2z"/>
			<path class="st1" d="M162.6,127v-5.4h1.1v4.4h2.2v0.9H162.6z"/>
			<path class="st1" d="M169.9,127h-3.1v-5.4h3.1v0.9h-1.9v1.2h1.8v0.9h-1.8v1.4h1.9V127z"/>
			<path class="st1" d="M173.3,127l-1.3-4.2h0c0,0.9,0.1,1.4,0.1,1.7v2.5h-1v-5.4h1.5l1.3,4.1h0l1.3-4.1h1.5v5.4h-1.1v-2.5
				c0-0.1,0-0.3,0-0.4c0-0.2,0-0.6,0-1.2h0l-1.4,4.2H173.3z"/>
			<path class="st1" d="M181.2,127h-3.1v-5.4h3.1v0.9h-1.9v1.2h1.8v0.9h-1.8v1.4h1.9V127z"/>
			<path class="st1" d="M187,127h-1.4l-2.3-4h0c0,0.7,0.1,1.2,0.1,1.5v2.5h-1v-5.4h1.4l2.3,4h0c0-0.7-0.1-1.2-0.1-1.5v-2.5h1V127z"
				/>
			<path class="st1" d="M190.4,127h-1.1v-4.4h-1.5v-0.9h4v0.9h-1.5V127z"/>
			<path class="st1" d="M196,127l-0.4-1.3h-2l-0.4,1.3H192l1.9-5.4h1.4l1.9,5.4H196z M195.3,124.8c-0.4-1.2-0.6-1.8-0.6-2
				s-0.1-0.3-0.1-0.4c-0.1,0.3-0.3,1.1-0.7,2.3H195.3z"/>
			<path class="st1" d="M200.2,122.5c-0.4,0-0.8,0.2-1,0.5s-0.4,0.8-0.4,1.3c0,1.2,0.4,1.8,1.3,1.8c0.4,0,0.8-0.1,1.4-0.3v1
				c-0.4,0.2-0.9,0.3-1.5,0.3c-0.8,0-1.4-0.2-1.8-0.7c-0.4-0.5-0.6-1.1-0.6-2c0-0.6,0.1-1,0.3-1.5c0.2-0.4,0.5-0.7,0.9-1
				c0.4-0.2,0.8-0.3,1.3-0.3c0.5,0,1,0.1,1.6,0.4l-0.4,0.9c-0.2-0.1-0.4-0.2-0.6-0.2C200.6,122.6,200.4,122.5,200.2,122.5z"/>
			<path class="st1" d="M202.7,127v-5.4h1.1v5.4H202.7z"/>
			<path class="st1" d="M210,124.3c0,0.9-0.2,1.6-0.7,2c-0.4,0.5-1.1,0.7-1.9,0.7s-1.5-0.2-1.9-0.7c-0.4-0.5-0.7-1.2-0.7-2.1
				c0-0.9,0.2-1.6,0.7-2s1.1-0.7,1.9-0.7c0.8,0,1.5,0.2,1.9,0.7S210,123.4,210,124.3z M206.1,124.3c0,0.6,0.1,1,0.3,1.4
				c0.2,0.3,0.6,0.5,1,0.5c0.9,0,1.4-0.6,1.4-1.8c0-1.2-0.5-1.8-1.4-1.8c-0.5,0-0.8,0.2-1,0.5S206.1,123.7,206.1,124.3z
				 M206.9,121.2L206.9,121.2c0.4-0.6,0.7-1,0.9-1.2h1.3v0.1c-0.1,0.1-0.3,0.3-0.7,0.6s-0.5,0.4-0.7,0.6H206.9z"/>
			<path class="st1" d="M215.9,127h-1.4l-2.3-4h0c0,0.7,0.1,1.2,0.1,1.5v2.5h-1v-5.4h1.4l2.3,4h0c0-0.7-0.1-1.2-0.1-1.5v-2.5h1V127z
				"/>
		</g>
	</g>
	<g>
		<g>
			<path class="st1" d="M108.4,167.9c-0.5,0-0.9,0.2-1.1,0.5s-0.4,0.9-0.4,1.5c0,1.3,0.5,2,1.5,2c0.4,0,0.9-0.1,1.5-0.3v1.1
				c-0.5,0.2-1,0.3-1.7,0.3c-0.9,0-1.5-0.3-2-0.8c-0.5-0.5-0.7-1.3-0.7-2.3c0-0.6,0.1-1.2,0.3-1.6c0.2-0.5,0.6-0.8,1-1.1
				c0.4-0.3,0.9-0.4,1.5-0.4c0.6,0,1.2,0.1,1.8,0.4l-0.4,1c-0.2-0.1-0.5-0.2-0.7-0.3C108.8,167.9,108.6,167.9,108.4,167.9z"/>
			<path class="st1" d="M114.9,172.9l-0.4-1.4h-2.2l-0.4,1.4h-1.4l2.1-6h1.6l2.1,6H114.9z M114.1,170.4c-0.4-1.3-0.6-2-0.7-2.2
				c-0.1-0.2-0.1-0.3-0.1-0.4c-0.1,0.4-0.4,1.2-0.8,2.6H114.1z"/>
			<path class="st1" d="M118.3,170.6v2.3H117v-6h1.8c0.8,0,1.4,0.1,1.8,0.4c0.4,0.3,0.6,0.8,0.6,1.4c0,0.4-0.1,0.7-0.3,0.9
				c-0.2,0.3-0.5,0.5-0.8,0.6c0.9,1.4,1.5,2.2,1.8,2.6h-1.4l-1.4-2.3H118.3z M118.3,169.6h0.4c0.4,0,0.7-0.1,0.9-0.2
				c0.2-0.1,0.3-0.3,0.3-0.6c0-0.3-0.1-0.5-0.3-0.6s-0.5-0.2-0.9-0.2h-0.4V169.6z"/>
			<path class="st1" d="M123.8,170.6v2.3h-1.3v-6h1.8c0.8,0,1.4,0.1,1.8,0.4c0.4,0.3,0.6,0.8,0.6,1.4c0,0.4-0.1,0.7-0.3,0.9
				c-0.2,0.3-0.5,0.5-0.8,0.6c0.9,1.4,1.5,2.2,1.8,2.6H126l-1.4-2.3H123.8z M123.8,169.6h0.4c0.4,0,0.7-0.1,0.9-0.2
				c0.2-0.1,0.3-0.3,0.3-0.6c0-0.3-0.1-0.5-0.3-0.6s-0.5-0.2-0.9-0.2h-0.4V169.6z"/>
			<path class="st1" d="M131.6,172.9h-3.5v-6h3.5v1h-2.2v1.3h2v1h-2v1.6h2.2V172.9z"/>
			<path class="st1" d="M134.1,170.6v2.3h-1.3v-6h1.8c0.8,0,1.4,0.1,1.8,0.4c0.4,0.3,0.6,0.8,0.6,1.4c0,0.4-0.1,0.7-0.3,0.9
				s-0.5,0.5-0.8,0.6c0.9,1.4,1.5,2.2,1.8,2.6h-1.4l-1.4-2.3H134.1z M134.1,169.6h0.4c0.4,0,0.7-0.1,0.9-0.2
				c0.2-0.1,0.3-0.3,0.3-0.6c0-0.3-0.1-0.5-0.3-0.6s-0.5-0.2-0.9-0.2h-0.4V169.6z"/>
			<path class="st1" d="M142.1,172.9l-0.4-1.4h-2.2l-0.4,1.4h-1.4l2.1-6h1.6l2.1,6H142.1z M141.4,170.4c-0.4-1.3-0.6-2-0.7-2.2
				c-0.1-0.2-0.1-0.3-0.1-0.4c-0.1,0.4-0.4,1.2-0.8,2.6H141.4z"/>
			<path class="st1" d="M147.8,171.3c0,0.5-0.2,1-0.6,1.3c-0.4,0.3-0.9,0.5-1.6,0.5c-0.6,0-1.2-0.1-1.7-0.4v-1.2
				c0.4,0.2,0.8,0.3,1,0.4c0.3,0.1,0.5,0.1,0.8,0.1c0.3,0,0.5-0.1,0.6-0.2c0.1-0.1,0.2-0.3,0.2-0.5c0-0.1,0-0.2-0.1-0.3
				c-0.1-0.1-0.2-0.2-0.3-0.3s-0.4-0.2-0.8-0.4c-0.4-0.2-0.6-0.3-0.8-0.5c-0.2-0.2-0.3-0.3-0.4-0.6c-0.1-0.2-0.2-0.5-0.2-0.7
				c0-0.5,0.2-1,0.5-1.3s0.9-0.5,1.5-0.5c0.3,0,0.6,0,0.9,0.1s0.6,0.2,0.9,0.3l-0.4,1c-0.3-0.1-0.6-0.2-0.8-0.3
				c-0.2-0.1-0.4-0.1-0.6-0.1c-0.2,0-0.4,0.1-0.6,0.2c-0.1,0.1-0.2,0.3-0.2,0.4c0,0.1,0,0.2,0.1,0.3c0.1,0.1,0.1,0.2,0.2,0.2
				c0.1,0.1,0.4,0.2,0.8,0.4c0.6,0.3,0.9,0.5,1.2,0.8C147.7,170.6,147.8,170.9,147.8,171.3z"/>
			<path class="st1" d="M156.1,169.9c0,1-0.3,1.8-0.8,2.3s-1.4,0.8-2.4,0.8h-1.7v-6h1.9c1,0,1.7,0.3,2.3,0.8
				S156.1,168.9,156.1,169.9z M154.8,169.9c0-1.3-0.6-1.9-1.7-1.9h-0.7v3.9h0.5C154.2,171.9,154.8,171.2,154.8,169.9z"/>
			<path class="st1" d="M160.8,172.9h-3.5v-6h3.5v1h-2.2v1.3h2v1h-2v1.6h2.2V172.9z"/>
			<path class="st1" d="M168.4,168.8c0,0.6-0.2,1.1-0.6,1.5s-1,0.5-1.7,0.5h-0.5v2.1h-1.3v-6h1.9c0.7,0,1.3,0.2,1.7,0.5
				C168.2,167.7,168.4,168.2,168.4,168.8z M165.5,169.8h0.4c0.4,0,0.7-0.1,0.9-0.2s0.3-0.4,0.3-0.7c0-0.3-0.1-0.5-0.2-0.7
				c-0.2-0.1-0.4-0.2-0.8-0.2h-0.6V169.8z"/>
			<path class="st1" d="M175,169.9c0,1-0.2,1.8-0.7,2.3c-0.5,0.5-1.2,0.8-2.1,0.8c-0.9,0-1.6-0.3-2.1-0.8c-0.5-0.5-0.7-1.3-0.7-2.3
				s0.2-1.8,0.7-2.3c0.5-0.5,1.2-0.8,2.1-0.8s1.6,0.3,2.1,0.8S175,168.9,175,169.9z M170.6,169.9c0,0.7,0.1,1.2,0.4,1.5
				c0.3,0.3,0.6,0.5,1.1,0.5c1,0,1.5-0.7,1.5-2c0-1.4-0.5-2-1.5-2c-0.5,0-0.9,0.2-1.2,0.5C170.8,168.7,170.6,169.3,170.6,169.9z"/>
			<path class="st1" d="M179.8,171.3c0,0.5-0.2,1-0.6,1.3c-0.4,0.3-0.9,0.5-1.6,0.5c-0.6,0-1.2-0.1-1.7-0.4v-1.2
				c0.4,0.2,0.8,0.3,1,0.4c0.3,0.1,0.5,0.1,0.8,0.1c0.3,0,0.5-0.1,0.6-0.2c0.1-0.1,0.2-0.3,0.2-0.5c0-0.1,0-0.2-0.1-0.3
				c-0.1-0.1-0.2-0.2-0.3-0.3s-0.4-0.2-0.8-0.4c-0.4-0.2-0.6-0.3-0.8-0.5c-0.2-0.2-0.3-0.3-0.4-0.6c-0.1-0.2-0.2-0.5-0.2-0.7
				c0-0.5,0.2-1,0.5-1.3s0.9-0.5,1.5-0.5c0.3,0,0.6,0,0.9,0.1s0.6,0.2,0.9,0.3l-0.4,1c-0.3-0.1-0.6-0.2-0.8-0.3
				c-0.2-0.1-0.4-0.1-0.6-0.1c-0.2,0-0.4,0.1-0.6,0.2c-0.1,0.1-0.2,0.3-0.2,0.4c0,0.1,0,0.2,0.1,0.3c0.1,0.1,0.1,0.2,0.2,0.2
				c0.1,0.1,0.4,0.2,0.8,0.4c0.6,0.3,0.9,0.5,1.2,0.8C179.7,170.6,179.8,170.9,179.8,171.3z"/>
			<path class="st1" d="M183.2,169.6h2.4v3.1c-0.4,0.1-0.8,0.2-1.1,0.3s-0.7,0.1-1,0.1c-0.9,0-1.6-0.3-2.1-0.8
				c-0.5-0.5-0.7-1.3-0.7-2.3c0-1,0.3-1.7,0.8-2.3c0.6-0.5,1.3-0.8,2.3-0.8c0.6,0,1.2,0.1,1.8,0.4l-0.4,1c-0.4-0.2-0.9-0.3-1.4-0.3
				c-0.6,0-1,0.2-1.3,0.6s-0.5,0.9-0.5,1.5c0,0.7,0.1,1.2,0.4,1.5s0.7,0.5,1.2,0.5c0.3,0,0.5,0,0.8-0.1v-1.3h-1.1V169.6z"/>
			<path class="st1" d="M188.3,170.6v2.3H187v-6h1.8c0.8,0,1.4,0.1,1.8,0.4c0.4,0.3,0.6,0.8,0.6,1.4c0,0.4-0.1,0.7-0.3,0.9
				s-0.5,0.5-0.8,0.6c0.9,1.4,1.5,2.2,1.8,2.6h-1.4l-1.4-2.3H188.3z M188.3,169.6h0.4c0.4,0,0.7-0.1,0.9-0.2
				c0.2-0.1,0.3-0.3,0.3-0.6c0-0.3-0.1-0.5-0.3-0.6s-0.5-0.2-0.9-0.2h-0.4V169.6z"/>
			<path class="st1" d="M196.3,172.9l-0.4-1.4h-2.2l-0.4,1.4h-1.4l2.1-6h1.6l2.1,6H196.3z M195.6,170.4c-0.4-1.3-0.6-2-0.7-2.2
				c-0.1-0.2-0.1-0.3-0.1-0.4c-0.1,0.4-0.4,1.2-0.8,2.6H195.6z"/>
			<path class="st1" d="M203.4,169.9c0,1-0.3,1.8-0.8,2.3s-1.4,0.8-2.4,0.8h-1.7v-6h1.9c1,0,1.7,0.3,2.3,0.8
				S203.4,168.9,203.4,169.9z M202.1,169.9c0-1.3-0.6-1.9-1.7-1.9h-0.7v3.9h0.5C201.5,171.9,202.1,171.2,202.1,169.9z"/>
			<path class="st1" d="M210.2,169.9c0,1-0.2,1.8-0.7,2.3c-0.5,0.5-1.2,0.8-2.1,0.8c-0.9,0-1.6-0.3-2.1-0.8
				c-0.5-0.5-0.7-1.3-0.7-2.3s0.2-1.8,0.7-2.3c0.5-0.5,1.2-0.8,2.1-0.8s1.6,0.3,2.1,0.8S210.2,168.9,210.2,169.9z M205.8,169.9
				c0,0.7,0.1,1.2,0.4,1.5c0.3,0.3,0.6,0.5,1.1,0.5c1,0,1.5-0.7,1.5-2c0-1.4-0.5-2-1.5-2c-0.5,0-0.9,0.2-1.2,0.5
				C205.9,168.7,205.8,169.3,205.8,169.9z"/>
		</g>
	</g>
	<path class="st2" d="M86.8,65.5v30c0,7.5-6.7,13.6-15,13.6c-8.3,0-15-6.1-15-13.6v-30H86.8z"/>
	<path class="st3" d="M86.8,111.3v30c0,7.5-6.7,13.6-15,13.6c-8.3,0-15-6.1-15-13.6v-30H86.8z"/>
	<path class="st4" d="M86.8,157.1v30c0,7.5-6.7,13.6-15,13.6c-8.3,0-15-6.1-15-13.6v-30H86.8z"/>
	<path class="st5" d="M198.8,92.5h-79.3c-1.5,0-2.7-1.2-2.7-2.7v-1.3c0-1.5,1.2-2.7,2.7-2.7h79.3c1.5,0,2.7,1.2,2.7,2.7v1.3
		C201.5,91.3,200.3,92.5,198.8,92.5z"/>
	<path class="st6" d="M198.1,139.2h-79.3c-1.5,0-2.7-1.2-2.7-2.7v-1.3c0-1.5,1.2-2.7,2.7-2.7h79.3c1.5,0,2.7,1.2,2.7,2.7v1.3
		C200.8,138,199.6,139.2,198.1,139.2z"/>
	<path class="st7" d="M197.4,183.5h-79.3c-1.5,0-2.7-1.2-2.7-2.7v-1.3c0-1.5,1.2-2.7,2.7-2.7h79.3c1.5,0,2.7,1.2,2.7,2.7v1.3
		C200.1,182.3,198.9,183.5,197.4,183.5z"/>
	<g>
		<g>
			<g>
				<path class="st1" d="M110.2,30.6c-0.5,0-0.8,0.2-1.1,0.5s-0.4,0.9-0.4,1.5c0,1.3,0.5,2,1.5,2c0.4,0,0.9-0.1,1.5-0.3v1.1
					c-0.5,0.2-1,0.3-1.6,0.3c-0.9,0-1.5-0.3-2-0.8s-0.7-1.3-0.7-2.3c0-0.6,0.1-1.2,0.3-1.6s0.6-0.8,1-1.1c0.4-0.3,0.9-0.4,1.5-0.4
					c0.6,0,1.2,0.1,1.8,0.4l-0.4,1c-0.2-0.1-0.5-0.2-0.7-0.3C110.6,30.6,110.4,30.6,110.2,30.6z"/>
				<path class="st1" d="M116.7,35.6l-0.4-1.4H114l-0.4,1.4h-1.4l2.1-6h1.6l2.1,6H116.7z M115.9,33.1c-0.4-1.3-0.6-2-0.7-2.2
					c-0.1-0.2-0.1-0.3-0.1-0.4c-0.1,0.4-0.3,1.2-0.8,2.6H115.9z"/>
				<path class="st1" d="M120.1,33.3v2.3h-1.3v-6h1.7c0.8,0,1.4,0.1,1.8,0.4c0.4,0.3,0.6,0.7,0.6,1.4c0,0.4-0.1,0.7-0.3,0.9
					s-0.5,0.5-0.8,0.6c0.9,1.3,1.5,2.2,1.8,2.6h-1.4l-1.4-2.3H120.1z M120.1,32.3h0.4c0.4,0,0.7-0.1,0.9-0.2
					c0.2-0.1,0.3-0.3,0.3-0.6c0-0.3-0.1-0.5-0.3-0.6c-0.2-0.1-0.5-0.2-0.9-0.2h-0.4V32.3z"/>
				<path class="st1" d="M125.6,33.3v2.3h-1.3v-6h1.7c0.8,0,1.4,0.1,1.8,0.4s0.6,0.7,0.6,1.4c0,0.4-0.1,0.7-0.3,0.9
					s-0.5,0.5-0.8,0.6c0.9,1.3,1.5,2.2,1.8,2.6h-1.4l-1.4-2.3H125.6z M125.6,32.3h0.4c0.4,0,0.7-0.1,0.9-0.2
					c0.2-0.1,0.3-0.3,0.3-0.6c0-0.3-0.1-0.5-0.3-0.6c-0.2-0.1-0.5-0.2-0.9-0.2h-0.4V32.3z"/>
				<path class="st1" d="M133.3,35.6h-3.5v-6h3.5v1h-2.2V32h2v1h-2v1.5h2.2V35.6z"/>
				<path class="st1" d="M135.9,33.3v2.3h-1.3v-6h1.7c0.8,0,1.4,0.1,1.8,0.4c0.4,0.3,0.6,0.7,0.6,1.4c0,0.4-0.1,0.7-0.3,0.9
					s-0.5,0.5-0.8,0.6c0.9,1.3,1.5,2.2,1.8,2.6H138l-1.4-2.3H135.9z M135.9,32.3h0.4c0.4,0,0.7-0.1,0.9-0.2c0.2-0.1,0.3-0.3,0.3-0.6
					c0-0.3-0.1-0.5-0.3-0.6c-0.2-0.1-0.5-0.2-0.9-0.2h-0.4V32.3z"/>
				<path class="st1" d="M143.8,35.6l-0.4-1.4h-2.2l-0.4,1.4h-1.4l2.1-6h1.6l2.1,6H143.8z M143.1,33.1c-0.4-1.3-0.6-2-0.7-2.2
					c-0.1-0.2-0.1-0.3-0.1-0.4c-0.1,0.4-0.3,1.2-0.8,2.6H143.1z"/>
				<path class="st1" d="M149.5,33.9c0,0.5-0.2,1-0.6,1.3s-0.9,0.5-1.6,0.5c-0.6,0-1.2-0.1-1.7-0.4v-1.2c0.4,0.2,0.7,0.3,1,0.4
					c0.3,0.1,0.5,0.1,0.8,0.1c0.3,0,0.5-0.1,0.6-0.2c0.1-0.1,0.2-0.3,0.2-0.5c0-0.1,0-0.2-0.1-0.3s-0.2-0.2-0.3-0.3
					s-0.4-0.2-0.8-0.4c-0.4-0.2-0.6-0.3-0.8-0.5s-0.3-0.3-0.4-0.6c-0.1-0.2-0.2-0.5-0.2-0.7c0-0.5,0.2-0.9,0.5-1.3s0.9-0.5,1.5-0.5
					c0.3,0,0.6,0,0.9,0.1c0.3,0.1,0.6,0.2,0.9,0.3l-0.4,1c-0.3-0.1-0.6-0.2-0.8-0.3c-0.2-0.1-0.4-0.1-0.6-0.1
					c-0.2,0-0.4,0.1-0.6,0.2c-0.1,0.1-0.2,0.3-0.2,0.4c0,0.1,0,0.2,0.1,0.3c0.1,0.1,0.1,0.2,0.2,0.2c0.1,0.1,0.4,0.2,0.8,0.4
					c0.6,0.3,0.9,0.5,1.2,0.8C149.4,33.2,149.5,33.5,149.5,33.9z"/>
				<path class="st1" d="M157.7,32.5c0,1-0.3,1.7-0.8,2.3c-0.6,0.5-1.4,0.8-2.4,0.8h-1.7v-6h1.9c1,0,1.7,0.3,2.3,0.8
					C157.5,30.9,157.7,31.6,157.7,32.5z M156.4,32.6c0-1.3-0.6-1.9-1.7-1.9H154v3.9h0.5C155.8,34.6,156.4,33.9,156.4,32.6z"/>
				<path class="st1" d="M162.4,35.6H159v-6h3.5v1h-2.2V32h2v1h-2v1.5h2.2V35.6z"/>
				<path class="st1" d="M170,31.5c0,0.6-0.2,1.1-0.6,1.5c-0.4,0.3-1,0.5-1.7,0.5h-0.5v2.1h-1.3v-6h1.9c0.7,0,1.3,0.2,1.7,0.5
					C169.8,30.4,170,30.9,170,31.5z M167.1,32.4h0.4c0.4,0,0.7-0.1,0.9-0.2c0.2-0.2,0.3-0.4,0.3-0.7c0-0.3-0.1-0.5-0.2-0.7
					s-0.4-0.2-0.8-0.2h-0.6V32.4z"/>
				<path class="st1" d="M172.4,33.3v2.3h-1.3v-6h1.7c0.8,0,1.4,0.1,1.8,0.4c0.4,0.3,0.6,0.7,0.6,1.4c0,0.4-0.1,0.7-0.3,0.9
					s-0.5,0.5-0.8,0.6c0.9,1.3,1.5,2.2,1.8,2.6h-1.4l-1.4-2.3H172.4z M172.4,32.3h0.4c0.4,0,0.7-0.1,0.9-0.2
					c0.2-0.1,0.3-0.3,0.3-0.6c0-0.3-0.1-0.5-0.3-0.6c-0.2-0.1-0.5-0.2-0.9-0.2h-0.4V32.3z"/>
				<path class="st1" d="M180.1,35.6h-3.5v-6h3.5v1H178V32h2v1h-2v1.5h2.2V35.6z"/>
				<path class="st1" d="M183.7,32.2h2.4v3.1c-0.4,0.1-0.7,0.2-1.1,0.3c-0.3,0.1-0.7,0.1-1,0.1c-0.9,0-1.6-0.3-2.1-0.8
					c-0.5-0.5-0.7-1.3-0.7-2.3c0-1,0.3-1.7,0.8-2.3c0.6-0.5,1.3-0.8,2.3-0.8c0.6,0,1.2,0.1,1.8,0.4l-0.4,1c-0.4-0.2-0.9-0.3-1.4-0.3
					c-0.5,0-1,0.2-1.3,0.6c-0.3,0.4-0.5,0.9-0.5,1.5c0,0.7,0.1,1.1,0.4,1.5s0.7,0.5,1.2,0.5c0.3,0,0.5,0,0.8-0.1v-1.3h-1.1V32.2z"/>
				<path class="st1" d="M188.8,33.3v2.3h-1.3v-6h1.7c0.8,0,1.4,0.1,1.8,0.4c0.4,0.3,0.6,0.7,0.6,1.4c0,0.4-0.1,0.7-0.3,0.9
					s-0.5,0.5-0.8,0.6c0.9,1.3,1.5,2.2,1.8,2.6h-1.4l-1.4-2.3H188.8z M188.8,32.3h0.4c0.4,0,0.7-0.1,0.9-0.2
					c0.2-0.1,0.3-0.3,0.3-0.6c0-0.3-0.1-0.5-0.3-0.6c-0.2-0.1-0.5-0.2-0.9-0.2h-0.4V32.3z"/>
				<path class="st1" d="M196.7,35.6l-0.4-1.4h-2.2l-0.4,1.4h-1.4l2.1-6h1.6l2.1,6H196.7z M196,33.1c-0.4-1.3-0.6-2-0.7-2.2
					c-0.1-0.2-0.1-0.3-0.1-0.4c-0.1,0.4-0.3,1.2-0.8,2.6H196z"/>
				<path class="st1" d="M203.8,32.5c0,1-0.3,1.7-0.8,2.3c-0.6,0.5-1.4,0.8-2.4,0.8h-1.7v-6h1.9c1,0,1.7,0.3,2.3,0.8
					C203.5,30.9,203.8,31.6,203.8,32.5z M202.5,32.6c0-1.3-0.6-1.9-1.7-1.9h-0.7v3.9h0.5C201.9,34.6,202.5,33.9,202.5,32.6z"/>
				<path class="st1" d="M210.5,32.6c0,1-0.2,1.8-0.7,2.3c-0.5,0.5-1.2,0.8-2.1,0.8c-0.9,0-1.6-0.3-2.1-0.8
					c-0.5-0.5-0.7-1.3-0.7-2.3s0.2-1.8,0.7-2.3c0.5-0.5,1.2-0.8,2.1-0.8s1.6,0.3,2.1,0.8S210.5,31.6,210.5,32.6z M206.1,32.6
					c0,0.7,0.1,1.2,0.4,1.5c0.3,0.3,0.6,0.5,1.1,0.5c1,0,1.5-0.7,1.5-2c0-1.4-0.5-2-1.5-2c-0.5,0-0.9,0.2-1.1,0.5
					C206.2,31.4,206.1,31.9,206.1,32.6z"/>
			</g>
		</g>
		<g>
			<path class="st0" d="M85.4,24.7H213c4.7,0,8.4,3.8,8.4,8.4v11.4c0,4.7-3.8,8.4-8.4,8.4H85.4"/>
			<path class="st8" d="M86.8,19.8v30c0,7.5-6.7,13.6-15,13.6c-8.3,0-15-6.1-15-13.6v-30H86.8z"/>
			<path class="st9" d="M198.8,47.1h-79.3c-1.5,0-2.7-1.2-2.7-2.7v-1.3c0-1.5,1.2-2.7,2.7-2.7h79.3c1.5,0,2.7,1.2,2.7,2.7v1.3
				C201.5,45.9,200.3,47.1,198.8,47.1z"/>
			<g>
				<g>
					<path class="st10" d="M123.4,43.4c0,0.4-0.1,0.7-0.4,0.9c-0.2,0.2-0.6,0.3-1,0.3h-0.3v1.3h-0.8v-3.6h1.2c0.4,0,0.8,0.1,1,0.3
						C123.3,42.7,123.4,43,123.4,43.4z M121.7,44h0.3c0.2,0,0.4,0,0.5-0.1c0.1-0.1,0.2-0.2,0.2-0.4c0-0.2,0-0.3-0.1-0.4
						c-0.1-0.1-0.3-0.1-0.5-0.1h-0.3V44z"/>
					<path class="st10" d="M126.3,45.9L126,45h-1.3l-0.3,0.9h-0.8l1.3-3.6h0.9l1.3,3.6H126.3z M125.8,44.4c-0.2-0.8-0.4-1.2-0.4-1.3
						c0-0.1-0.1-0.2-0.1-0.2c-0.1,0.2-0.2,0.7-0.5,1.6H125.8z"/>
					<path class="st10" d="M128.3,44.5v1.4h-0.8v-3.6h1.1c0.5,0,0.9,0.1,1.1,0.3c0.2,0.2,0.4,0.4,0.4,0.8c0,0.2-0.1,0.4-0.2,0.6
						c-0.1,0.2-0.3,0.3-0.5,0.4c0.5,0.8,0.9,1.3,1.1,1.6h-0.8l-0.9-1.4H128.3z M128.3,43.9h0.2c0.2,0,0.4,0,0.5-0.1
						c0.1-0.1,0.2-0.2,0.2-0.4c0-0.2-0.1-0.3-0.2-0.4c-0.1-0.1-0.3-0.1-0.5-0.1h-0.2V43.9z"/>
					<path class="st10" d="M133.1,45.9l-0.3-0.9h-1.3l-0.3,0.9h-0.8l1.3-3.6h0.9l1.3,3.6H133.1z M132.6,44.4
						c-0.2-0.8-0.4-1.2-0.4-1.3c0-0.1-0.1-0.2-0.1-0.2c-0.1,0.2-0.2,0.7-0.5,1.6H132.6z"/>
					<path class="st10" d="M138.2,43.4c0,0.4-0.1,0.7-0.4,0.9c-0.2,0.2-0.6,0.3-1,0.3h-0.3v1.3h-0.8v-3.6h1.2c0.4,0,0.8,0.1,1,0.3
						C138.1,42.7,138.2,43,138.2,43.4z M136.4,44h0.3c0.2,0,0.4,0,0.5-0.1c0.1-0.1,0.2-0.2,0.2-0.4c0-0.2,0-0.3-0.1-0.4
						s-0.3-0.1-0.5-0.1h-0.3V44z"/>
					<path class="st10" d="M140.9,45.9h-2.1v-3.6h2.1v0.6h-1.3v0.8h1.2v0.6h-1.2v0.9h1.3V45.9z"/>
					<path class="st10" d="M142.5,44.5v1.4h-0.8v-3.6h1.1c0.5,0,0.9,0.1,1.1,0.3c0.2,0.2,0.4,0.4,0.4,0.8c0,0.2-0.1,0.4-0.2,0.6
						c-0.1,0.2-0.3,0.3-0.5,0.4c0.5,0.8,0.9,1.3,1.1,1.6h-0.8l-0.9-1.4H142.5z M142.5,43.9h0.2c0.2,0,0.4,0,0.5-0.1
						c0.1-0.1,0.2-0.2,0.2-0.4c0-0.2-0.1-0.3-0.2-0.4c-0.1-0.1-0.3-0.1-0.5-0.1h-0.2V43.9z"/>
					<path class="st10" d="M147.1,44.9c0,0.3-0.1,0.6-0.4,0.8s-0.6,0.3-1,0.3c-0.4,0-0.7-0.1-1-0.2V45c0.2,0.1,0.5,0.2,0.6,0.2
						c0.2,0,0.3,0.1,0.5,0.1c0.2,0,0.3,0,0.4-0.1c0.1-0.1,0.1-0.2,0.1-0.3c0-0.1,0-0.1-0.1-0.2c0-0.1-0.1-0.1-0.2-0.2
						c-0.1-0.1-0.2-0.1-0.5-0.2c-0.2-0.1-0.4-0.2-0.5-0.3s-0.2-0.2-0.3-0.3c-0.1-0.1-0.1-0.3-0.1-0.4c0-0.3,0.1-0.6,0.3-0.8
						c0.2-0.2,0.5-0.3,0.9-0.3c0.2,0,0.4,0,0.5,0.1s0.3,0.1,0.5,0.2l-0.2,0.6c-0.2-0.1-0.4-0.1-0.5-0.2c-0.1,0-0.2,0-0.4,0
						c-0.1,0-0.3,0-0.3,0.1c-0.1,0.1-0.1,0.2-0.1,0.3c0,0.1,0,0.1,0,0.2c0,0.1,0.1,0.1,0.1,0.1c0.1,0,0.2,0.1,0.5,0.3
						c0.3,0.2,0.6,0.3,0.7,0.5S147.1,44.6,147.1,44.9z"/>
					<path class="st10" d="M151.1,44.1c0,0.6-0.1,1.1-0.4,1.4s-0.7,0.5-1.3,0.5s-1-0.2-1.3-0.5s-0.4-0.8-0.4-1.4s0.1-1.1,0.4-1.4
						c0.3-0.3,0.7-0.5,1.3-0.5c0.6,0,1,0.2,1.3,0.5C150.9,43,151.1,43.5,151.1,44.1z M148.4,44.1c0,0.4,0.1,0.7,0.2,0.9
						c0.2,0.2,0.4,0.3,0.7,0.3c0.6,0,0.9-0.4,0.9-1.2c0-0.8-0.3-1.2-0.9-1.2c-0.3,0-0.5,0.1-0.7,0.3
						C148.5,43.3,148.4,43.6,148.4,44.1z"/>
					<path class="st10" d="M155,45.9h-1l-1.6-2.7h0c0,0.5,0,0.8,0,1v1.7h-0.7v-3.6h1l1.6,2.7h0c0-0.5,0-0.8,0-1v-1.7h0.7V45.9z"/>
					<path class="st10" d="M158.1,45.9l-0.3-0.9h-1.3l-0.3,0.9h-0.8l1.3-3.6h0.9l1.3,3.6H158.1z M157.7,44.4
						c-0.2-0.8-0.4-1.2-0.4-1.3c0-0.1-0.1-0.2-0.1-0.2c-0.1,0.2-0.2,0.7-0.5,1.6H157.7z"/>
					<path class="st10" d="M159.4,45.9v-3.6h0.8v3h1.5v0.6H159.4z"/>
					<path class="st10" d="M166.6,44c0,0.6-0.2,1-0.5,1.4s-0.8,0.5-1.5,0.5h-1v-3.6h1.1c0.6,0,1,0.2,1.4,0.5
						C166.4,43,166.6,43.5,166.6,44z M165.8,44c0-0.8-0.3-1.2-1-1.2h-0.4v2.3h0.3C165.4,45.2,165.8,44.8,165.8,44z"/>
					<path class="st10" d="M169.4,45.9h-2.1v-3.6h2.1v0.6h-1.3v0.8h1.2v0.6h-1.2v0.9h1.3V45.9z"/>
					<path class="st10" d="M171.5,45.9v-3.6h0.8v3h1.5v0.6H171.5z"/>
					<path class="st10" d="M176.5,45.9l-0.3-0.9h-1.3l-0.3,0.9h-0.8l1.3-3.6h0.9l1.3,3.6H176.5z M176.1,44.4
						c-0.2-0.8-0.4-1.2-0.4-1.3c0-0.1-0.1-0.2-0.1-0.2c-0.1,0.2-0.2,0.7-0.5,1.6H176.1z"/>
					<path class="st10" d="M179.9,45.9h-0.8v-3.6h2.1v0.6h-1.3v0.9h1.2v0.6h-1.2V45.9z"/>
					<path class="st10" d="M184.8,42.3v2.3c0,0.3-0.1,0.5-0.2,0.7c-0.1,0.2-0.3,0.4-0.5,0.5c-0.2,0.1-0.5,0.2-0.8,0.2
						c-0.5,0-0.8-0.1-1.1-0.4c-0.3-0.2-0.4-0.6-0.4-1v-2.3h0.8v2.2c0,0.3,0.1,0.5,0.2,0.6c0.1,0.1,0.3,0.2,0.6,0.2
						c0.2,0,0.4-0.1,0.5-0.2s0.2-0.3,0.2-0.6v-2.2H184.8z"/>
					<path class="st10" d="M187.8,45.9h-2.1v-3.6h2.1v0.6h-1.3v0.8h1.2v0.6h-1.2v0.9h1.3V45.9z"/>
					<path class="st10" d="M189.3,44.5v1.4h-0.8v-3.6h1.1c0.5,0,0.9,0.1,1.1,0.3c0.2,0.2,0.4,0.4,0.4,0.8c0,0.2-0.1,0.4-0.2,0.6
						c-0.1,0.2-0.3,0.3-0.5,0.4c0.5,0.8,0.9,1.3,1.1,1.6h-0.8l-0.9-1.4H189.3z M189.3,43.9h0.2c0.2,0,0.4,0,0.5-0.1
						c0.1-0.1,0.2-0.2,0.2-0.4c0-0.2-0.1-0.3-0.2-0.4c-0.1-0.1-0.3-0.1-0.5-0.1h-0.2V43.9z"/>
					<path class="st10" d="M194.2,45.9h-2.7v-0.5l1.7-2.5h-1.7v-0.6h2.6v0.5l-1.7,2.5h1.8V45.9z"/>
					<path class="st10" d="M197,45.9l-0.3-0.9h-1.3l-0.3,0.9h-0.8l1.3-3.6h0.9l1.3,3.6H197z M196.6,44.4c-0.2-0.8-0.4-1.2-0.4-1.3
						c0-0.1-0.1-0.2-0.1-0.2c-0.1,0.2-0.2,0.7-0.5,1.6H196.6z"/>
				</g>
			</g>
			<g>
				<g>
					<path class="st10" d="M68.7,47h-3v-8.3l0-1.4l0-1.5c-0.5,0.5-0.9,0.8-1,1L63,38.1l-1.5-1.8l4.6-3.7h2.5V47z"/>
					<path class="st10" d="M82.6,39.8c0,2.5-0.4,4.4-1.2,5.6s-2.1,1.8-3.8,1.8c-1.7,0-2.9-0.6-3.7-1.9c-0.8-1.2-1.3-3.1-1.3-5.5
						c0-2.5,0.4-4.4,1.2-5.6c0.8-1.2,2.1-1.8,3.8-1.8c1.7,0,2.9,0.6,3.7,1.9C82.1,35.6,82.6,37.4,82.6,39.8z M75.6,39.8
						c0,1.8,0.2,3,0.5,3.8c0.3,0.8,0.8,1.1,1.5,1.1c0.7,0,1.2-0.4,1.5-1.2c0.3-0.8,0.5-2,0.5-3.8c0-1.8-0.2-3-0.5-3.8
						s-0.8-1.2-1.5-1.2c-0.7,0-1.2,0.4-1.5,1.2S75.6,38,75.6,39.8z"/>
				</g>
			</g>
		</g>
	</g>
	<g>
		<g>
			<path class="st10" d="M76.9,93.9h-10v-2.1l3.6-3.6c1.1-1.1,1.8-1.8,2.1-2.3s0.6-0.8,0.7-1.2c0.1-0.4,0.2-0.7,0.2-1.1
				c0-0.6-0.2-1-0.5-1.3s-0.7-0.4-1.3-0.4c-0.6,0-1.1,0.1-1.6,0.4c-0.5,0.3-1.1,0.6-1.6,1.1l-1.6-1.9c0.7-0.6,1.3-1,1.8-1.3
				s1-0.4,1.5-0.6s1.2-0.2,1.8-0.2c0.9,0,1.7,0.2,2.4,0.5s1.2,0.8,1.6,1.4s0.6,1.3,0.6,2c0,0.7-0.1,1.3-0.3,1.9
				c-0.2,0.6-0.6,1.2-1.1,1.8c-0.5,0.6-1.3,1.5-2.6,2.6l-1.8,1.7v0.1h6.2V93.9z"/>
		</g>
	</g>
	<g>
		<g>
			<path class="st10" d="M76.9,140.8h-10v-2.1l3.6-3.6c1.1-1.1,1.8-1.8,2.1-2.3c0.3-0.4,0.6-0.8,0.7-1.2c0.1-0.4,0.2-0.7,0.2-1.1
				c0-0.6-0.2-1-0.5-1.3s-0.7-0.4-1.3-0.4c-0.6,0-1.1,0.1-1.6,0.4c-0.5,0.3-1.1,0.6-1.6,1.1l-1.6-2c0.7-0.6,1.3-1,1.8-1.3
				c0.5-0.2,1-0.4,1.5-0.6c0.5-0.1,1.2-0.2,1.8-0.2c0.9,0,1.7,0.2,2.4,0.5c0.7,0.3,1.2,0.8,1.6,1.4s0.6,1.3,0.6,2
				c0,0.7-0.1,1.3-0.3,1.9c-0.2,0.6-0.6,1.2-1.1,1.8s-1.3,1.5-2.6,2.6l-1.8,1.7v0.1h6.2V140.8z"/>
		</g>
	</g>
	<g>
		<g>
			<path class="st10" d="M76.4,176.6c0,0.9-0.3,1.7-0.8,2.3c-0.5,0.6-1.3,1.1-2.3,1.3v0.1c1.2,0.1,2,0.5,2.6,1.1
				c0.6,0.6,0.9,1.3,0.9,2.3c0,1.4-0.5,2.5-1.5,3.2c-1,0.8-2.4,1.2-4.3,1.2c-1.6,0-2.9-0.3-4.1-0.8v-2.6c0.6,0.3,1.2,0.5,1.8,0.7
				c0.7,0.2,1.3,0.3,2,0.3c1,0,1.7-0.2,2.2-0.5c0.5-0.3,0.7-0.9,0.7-1.6c0-0.7-0.3-1.1-0.8-1.4s-1.4-0.4-2.6-0.4h-1.1v-2.3h1.1
				c1.1,0,1.9-0.1,2.4-0.4s0.8-0.8,0.8-1.5c0-1.1-0.7-1.6-2-1.6c-0.5,0-0.9,0.1-1.4,0.2c-0.5,0.2-1,0.4-1.6,0.8l-1.4-2.1
				c1.3-0.9,2.9-1.4,4.7-1.4c1.5,0,2.7,0.3,3.5,0.9S76.4,175.5,76.4,176.6z"/>
		</g>
	</g>
	<g>
		<line class="st11" x1="33.4" y1="38.3" x2="33.4" y2="177.8"/>
		<circle class="st12" cx="33.4" cy="178.7" r="2.6"/>
		<circle class="st12" cx="33.4" cy="132.3" r="2.6"/>
		<circle class="st12" cx="33.4" cy="85.9" r="2.6"/>
		<circle class="st12" cx="33.4" cy="39.5" r="2.6"/>
	</g>
	<g>
		<g>
			<path class="st10" d="M123.4,88.6c0,0.4-0.1,0.7-0.4,0.9c-0.2,0.2-0.6,0.3-1,0.3h-0.3v1.3h-0.8v-3.6h1.2c0.4,0,0.8,0.1,1,0.3
				C123.3,88,123.4,88.2,123.4,88.6z M121.7,89.2h0.3c0.2,0,0.4,0,0.5-0.1c0.1-0.1,0.2-0.2,0.2-0.4c0-0.2,0-0.3-0.1-0.4
				c-0.1-0.1-0.3-0.1-0.5-0.1h-0.3V89.2z"/>
			<path class="st10" d="M126.3,91.1l-0.3-0.9h-1.3l-0.3,0.9h-0.8l1.3-3.6h0.9l1.3,3.6H126.3z M125.8,89.6c-0.2-0.8-0.4-1.2-0.4-1.3
				c0-0.1-0.1-0.2-0.1-0.2c-0.1,0.2-0.2,0.7-0.5,1.6H125.8z"/>
			<path class="st10" d="M128.3,89.7v1.4h-0.8v-3.6h1.1c0.5,0,0.9,0.1,1.1,0.3c0.2,0.2,0.4,0.4,0.4,0.8c0,0.2-0.1,0.4-0.2,0.6
				c-0.1,0.2-0.3,0.3-0.5,0.4c0.5,0.8,0.9,1.3,1.1,1.6h-0.8l-0.9-1.4H128.3z M128.3,89.1h0.2c0.2,0,0.4,0,0.5-0.1
				c0.1-0.1,0.2-0.2,0.2-0.4c0-0.2-0.1-0.3-0.2-0.4c-0.1-0.1-0.3-0.1-0.5-0.1h-0.2V89.1z"/>
			<path class="st10" d="M133.1,91.1l-0.3-0.9h-1.3l-0.3,0.9h-0.8l1.3-3.6h0.9l1.3,3.6H133.1z M132.6,89.6c-0.2-0.8-0.4-1.2-0.4-1.3
				c0-0.1-0.1-0.2-0.1-0.2c-0.1,0.2-0.2,0.7-0.5,1.6H132.6z"/>
			<path class="st10" d="M138.2,88.6c0,0.4-0.1,0.7-0.4,0.9c-0.2,0.2-0.6,0.3-1,0.3h-0.3v1.3h-0.8v-3.6h1.2c0.4,0,0.8,0.1,1,0.3
				C138.1,88,138.2,88.2,138.2,88.6z M136.4,89.2h0.3c0.2,0,0.4,0,0.5-0.1c0.1-0.1,0.2-0.2,0.2-0.4c0-0.2,0-0.3-0.1-0.4
				s-0.3-0.1-0.5-0.1h-0.3V89.2z"/>
			<path class="st10" d="M140.9,91.1h-2.1v-3.6h2.1v0.6h-1.3v0.8h1.2v0.6h-1.2v0.9h1.3V91.1z"/>
			<path class="st10" d="M142.5,89.7v1.4h-0.8v-3.6h1.1c0.5,0,0.9,0.1,1.1,0.3c0.2,0.2,0.4,0.4,0.4,0.8c0,0.2-0.1,0.4-0.2,0.6
				c-0.1,0.2-0.3,0.3-0.5,0.4c0.5,0.8,0.9,1.3,1.1,1.6h-0.8l-0.9-1.4H142.5z M142.5,89.1h0.2c0.2,0,0.4,0,0.5-0.1
				c0.1-0.1,0.2-0.2,0.2-0.4c0-0.2-0.1-0.3-0.2-0.4c-0.1-0.1-0.3-0.1-0.5-0.1h-0.2V89.1z"/>
			<path class="st10" d="M147.1,90.1c0,0.3-0.1,0.6-0.4,0.8s-0.6,0.3-1,0.3c-0.4,0-0.7-0.1-1-0.2v-0.7c0.2,0.1,0.5,0.2,0.6,0.2
				c0.2,0,0.3,0.1,0.5,0.1c0.2,0,0.3,0,0.4-0.1c0.1-0.1,0.1-0.2,0.1-0.3c0-0.1,0-0.1-0.1-0.2c0-0.1-0.1-0.1-0.2-0.2
				c-0.1-0.1-0.2-0.1-0.5-0.2c-0.2-0.1-0.4-0.2-0.5-0.3s-0.2-0.2-0.3-0.3c-0.1-0.1-0.1-0.3-0.1-0.4c0-0.3,0.1-0.6,0.3-0.8
				c0.2-0.2,0.5-0.3,0.9-0.3c0.2,0,0.4,0,0.5,0.1s0.3,0.1,0.5,0.2l-0.2,0.6c-0.2-0.1-0.4-0.1-0.5-0.2c-0.1,0-0.2,0-0.4,0
				c-0.1,0-0.3,0-0.3,0.1c-0.1,0.1-0.1,0.2-0.1,0.3c0,0.1,0,0.1,0,0.2c0,0.1,0.1,0.1,0.1,0.1c0.1,0,0.2,0.1,0.5,0.3
				c0.3,0.2,0.6,0.3,0.7,0.5S147.1,89.9,147.1,90.1z"/>
			<path class="st10" d="M151.1,89.3c0,0.6-0.1,1.1-0.4,1.4s-0.7,0.5-1.3,0.5s-1-0.2-1.3-0.5s-0.4-0.8-0.4-1.4s0.1-1.1,0.4-1.4
				c0.3-0.3,0.7-0.5,1.3-0.5c0.6,0,1,0.2,1.3,0.5C150.9,88.2,151.1,88.7,151.1,89.3z M148.4,89.3c0,0.4,0.1,0.7,0.2,0.9
				c0.2,0.2,0.4,0.3,0.7,0.3c0.6,0,0.9-0.4,0.9-1.2c0-0.8-0.3-1.2-0.9-1.2c-0.3,0-0.5,0.1-0.7,0.3C148.5,88.6,148.4,88.9,148.4,89.3
				z"/>
			<path class="st10" d="M155,91.1h-1l-1.6-2.7h0c0,0.5,0,0.8,0,1v1.7h-0.7v-3.6h1l1.6,2.7h0c0-0.5,0-0.8,0-1v-1.7h0.7V91.1z"/>
			<path class="st10" d="M158.1,91.1l-0.3-0.9h-1.3l-0.3,0.9h-0.8l1.3-3.6h0.9l1.3,3.6H158.1z M157.7,89.6c-0.2-0.8-0.4-1.2-0.4-1.3
				c0-0.1-0.1-0.2-0.1-0.2c-0.1,0.2-0.2,0.7-0.5,1.6H157.7z"/>
			<path class="st10" d="M159.4,91.1v-3.6h0.8v3h1.5v0.6H159.4z"/>
			<path class="st10" d="M166.6,89.3c0,0.6-0.2,1-0.5,1.4s-0.8,0.5-1.5,0.5h-1v-3.6h1.1c0.6,0,1,0.2,1.4,0.5
				C166.4,88.3,166.6,88.7,166.6,89.3z M165.8,89.3c0-0.8-0.3-1.2-1-1.2h-0.4v2.3h0.3C165.4,90.5,165.8,90.1,165.8,89.3z"/>
			<path class="st10" d="M169.4,91.1h-2.1v-3.6h2.1v0.6h-1.3v0.8h1.2v0.6h-1.2v0.9h1.3V91.1z"/>
			<path class="st10" d="M171.5,91.1v-3.6h0.8v3h1.5v0.6H171.5z"/>
			<path class="st10" d="M176.5,91.1l-0.3-0.9h-1.3l-0.3,0.9h-0.8l1.3-3.6h0.9l1.3,3.6H176.5z M176.1,89.6c-0.2-0.8-0.4-1.2-0.4-1.3
				c0-0.1-0.1-0.2-0.1-0.2c-0.1,0.2-0.2,0.7-0.5,1.6H176.1z"/>
			<path class="st10" d="M179.9,91.1h-0.8v-3.6h2.1v0.6h-1.3V89h1.2v0.6h-1.2V91.1z"/>
			<path class="st10" d="M184.8,87.5v2.3c0,0.3-0.1,0.5-0.2,0.7c-0.1,0.2-0.3,0.4-0.5,0.5c-0.2,0.1-0.5,0.2-0.8,0.2
				c-0.5,0-0.8-0.1-1.1-0.4c-0.3-0.2-0.4-0.6-0.4-1v-2.3h0.8v2.2c0,0.3,0.1,0.5,0.2,0.6c0.1,0.1,0.3,0.2,0.6,0.2
				c0.2,0,0.4-0.1,0.5-0.2s0.2-0.3,0.2-0.6v-2.2H184.8z"/>
			<path class="st10" d="M187.8,91.1h-2.1v-3.6h2.1v0.6h-1.3v0.8h1.2v0.6h-1.2v0.9h1.3V91.1z"/>
			<path class="st10" d="M189.3,89.7v1.4h-0.8v-3.6h1.1c0.5,0,0.9,0.1,1.1,0.3c0.2,0.2,0.4,0.4,0.4,0.8c0,0.2-0.1,0.4-0.2,0.6
				c-0.1,0.2-0.3,0.3-0.5,0.4c0.5,0.8,0.9,1.3,1.1,1.6h-0.8l-0.9-1.4H189.3z M189.3,89.1h0.2c0.2,0,0.4,0,0.5-0.1
				c0.1-0.1,0.2-0.2,0.2-0.4c0-0.2-0.1-0.3-0.2-0.4c-0.1-0.1-0.3-0.1-0.5-0.1h-0.2V89.1z"/>
			<path class="st10" d="M194.2,91.1h-2.7v-0.5l1.7-2.5h-1.7v-0.6h2.6V88l-1.7,2.5h1.8V91.1z"/>
			<path class="st10" d="M197,91.1l-0.3-0.9h-1.3l-0.3,0.9h-0.8l1.3-3.6h0.9l1.3,3.6H197z M196.6,89.6c-0.2-0.8-0.4-1.2-0.4-1.3
				c0-0.1-0.1-0.2-0.1-0.2c-0.1,0.2-0.2,0.7-0.5,1.6H196.6z"/>
		</g>
	</g>
	<g>
		<g>
			<path class="st10" d="M134.7,137.9l-0.3-0.9h-1.3l-0.3,0.9h-0.8l1.3-3.6h0.9l1.3,3.6H134.7z M134.3,136.4
				c-0.2-0.8-0.4-1.2-0.4-1.3c0-0.1-0.1-0.2-0.1-0.2c-0.1,0.2-0.2,0.7-0.5,1.6H134.3z"/>
			<path class="st10" d="M136,134.3h1.1c0.5,0,0.9,0.1,1.1,0.2c0.2,0.1,0.3,0.4,0.3,0.7c0,0.2,0,0.4-0.2,0.5
				c-0.1,0.1-0.2,0.2-0.4,0.2v0c0.2,0.1,0.4,0.1,0.5,0.3c0.1,0.1,0.2,0.3,0.2,0.6c0,0.3-0.1,0.6-0.4,0.8c-0.2,0.2-0.6,0.3-1,0.3H136
				V134.3z M136.8,135.7h0.4c0.2,0,0.4,0,0.5-0.1c0.1-0.1,0.1-0.2,0.1-0.3c0-0.1-0.1-0.2-0.2-0.3c-0.1-0.1-0.3-0.1-0.5-0.1h-0.4
				V135.7z M136.8,136.3v0.9h0.5c0.2,0,0.4,0,0.5-0.1c0.1-0.1,0.2-0.2,0.2-0.4c0-0.3-0.2-0.4-0.6-0.4H136.8z"/>
			<path class="st10" d="M139.4,137.9v-3.6h0.8v3.6H139.4z"/>
			<path class="st10" d="M143.1,137.9h-2.1v-3.6h2.1v0.6h-1.3v0.8h1.2v0.6h-1.2v0.9h1.3V137.9z"/>
			<path class="st10" d="M144.7,136.5v1.4h-0.8v-3.6h1.1c0.5,0,0.9,0.1,1.1,0.3s0.4,0.4,0.4,0.8c0,0.2-0.1,0.4-0.2,0.6
				c-0.1,0.2-0.3,0.3-0.5,0.4c0.5,0.8,0.9,1.3,1.1,1.6h-0.8l-0.9-1.4H144.7z M144.7,135.9h0.2c0.2,0,0.4,0,0.5-0.1
				c0.1-0.1,0.2-0.2,0.2-0.4s-0.1-0.3-0.2-0.4c-0.1-0.1-0.3-0.1-0.5-0.1h-0.2V135.9z"/>
			<path class="st10" d="M148.6,137.9h-0.8v-3h-1v-0.6h2.7v0.6h-1V137.9z"/>
			<path class="st10" d="M153.4,136.1c0,0.6-0.1,1.1-0.4,1.4s-0.7,0.5-1.3,0.5s-1-0.2-1.3-0.5s-0.4-0.8-0.4-1.4
				c0-0.6,0.1-1.1,0.4-1.4c0.3-0.3,0.7-0.5,1.3-0.5c0.6,0,1,0.2,1.3,0.5C153.3,135,153.4,135.5,153.4,136.1z M150.8,136.1
				c0,0.4,0.1,0.7,0.2,0.9c0.2,0.2,0.4,0.3,0.7,0.3c0.6,0,0.9-0.4,0.9-1.2s-0.3-1.2-0.9-1.2c-0.3,0-0.5,0.1-0.7,0.3
				S150.8,135.7,150.8,136.1z"/>
			<path class="st10" d="M157.7,137.9l-0.3-0.9h-1.3l-0.3,0.9H155l1.3-3.6h0.9l1.3,3.6H157.7z M157.2,136.4
				c-0.2-0.8-0.4-1.2-0.4-1.3c0-0.1-0.1-0.2-0.1-0.2c-0.1,0.2-0.2,0.7-0.5,1.6H157.2z"/>
			<path class="st10" d="M159,137.9v-3.6h0.8v3h1.5v0.6H159z"/>
			<path class="st10" d="M165.6,135.4c0,0.4-0.1,0.7-0.4,0.9c-0.2,0.2-0.6,0.3-1,0.3h-0.3v1.3h-0.8v-3.6h1.2c0.4,0,0.8,0.1,1,0.3
				S165.6,135,165.6,135.4z M163.9,136h0.3c0.2,0,0.4,0,0.5-0.1s0.2-0.2,0.2-0.4c0-0.2,0-0.3-0.1-0.4s-0.3-0.1-0.5-0.1h-0.3V136z"/>
			<path class="st10" d="M169.2,134.3v2.3c0,0.3-0.1,0.5-0.2,0.7c-0.1,0.2-0.3,0.4-0.5,0.5c-0.2,0.1-0.5,0.2-0.8,0.2
				c-0.5,0-0.8-0.1-1.1-0.4c-0.3-0.2-0.4-0.6-0.4-1v-2.3h0.8v2.2c0,0.3,0.1,0.5,0.2,0.6c0.1,0.1,0.3,0.2,0.6,0.2
				c0.2,0,0.4-0.1,0.5-0.2s0.2-0.3,0.2-0.6v-2.2H169.2z M167.3,134L167.3,134c0.3-0.4,0.5-0.6,0.6-0.8h0.8v0.1
				c-0.1,0.1-0.2,0.2-0.4,0.4c-0.2,0.2-0.4,0.3-0.5,0.4H167.3z"/>
			<path class="st10" d="M170.1,134.3h1.1c0.5,0,0.9,0.1,1.1,0.2c0.2,0.1,0.3,0.4,0.3,0.7c0,0.2,0,0.4-0.2,0.5
				c-0.1,0.1-0.2,0.2-0.4,0.2v0c0.2,0.1,0.4,0.1,0.5,0.3c0.1,0.1,0.2,0.3,0.2,0.6c0,0.3-0.1,0.6-0.4,0.8c-0.2,0.2-0.6,0.3-1,0.3
				h-1.3V134.3z M170.9,135.7h0.4c0.2,0,0.4,0,0.5-0.1c0.1-0.1,0.1-0.2,0.1-0.3c0-0.1-0.1-0.2-0.2-0.3c-0.1-0.1-0.3-0.1-0.5-0.1
				h-0.4V135.7z M170.9,136.3v0.9h0.5c0.2,0,0.4,0,0.5-0.1c0.1-0.1,0.2-0.2,0.2-0.4c0-0.3-0.2-0.4-0.6-0.4H170.9z"/>
			<path class="st10" d="M173.5,137.9v-3.6h0.8v3h1.5v0.6H173.5z"/>
			<path class="st10" d="M176.4,137.9v-3.6h0.8v3.6H176.4z"/>
			<path class="st10" d="M179.6,134.8c-0.3,0-0.5,0.1-0.7,0.3c-0.2,0.2-0.2,0.5-0.2,0.9c0,0.8,0.3,1.2,0.9,1.2
				c0.3,0,0.6-0.1,0.9-0.2v0.6c-0.3,0.1-0.6,0.2-1,0.2c-0.5,0-0.9-0.2-1.2-0.5c-0.3-0.3-0.4-0.8-0.4-1.4c0-0.4,0.1-0.7,0.2-1
				c0.1-0.3,0.3-0.5,0.6-0.6s0.6-0.2,0.9-0.2c0.4,0,0.7,0.1,1.1,0.3l-0.2,0.6c-0.1-0.1-0.3-0.1-0.4-0.2S179.7,134.8,179.6,134.8z"/>
			<path class="st10" d="M184.5,136.1c0,0.6-0.1,1.1-0.4,1.4s-0.7,0.5-1.3,0.5s-1-0.2-1.3-0.5s-0.4-0.8-0.4-1.4
				c0-0.6,0.1-1.1,0.4-1.4c0.3-0.3,0.7-0.5,1.3-0.5c0.6,0,1,0.2,1.3,0.5C184.4,135,184.5,135.5,184.5,136.1z M181.9,136.1
				c0,0.4,0.1,0.7,0.2,0.9c0.2,0.2,0.4,0.3,0.7,0.3c0.6,0,0.9-0.4,0.9-1.2s-0.3-1.2-0.9-1.2c-0.3,0-0.5,0.1-0.7,0.3
				S181.9,135.7,181.9,136.1z"/>
		</g>
	</g>
	<g>
		<g>
			<path class="st10" d="M134.7,182.2l-0.3-0.9h-1.3l-0.3,0.9h-0.8l1.3-3.6h0.9l1.3,3.6H134.7z M134.3,180.7
				c-0.2-0.8-0.4-1.2-0.4-1.3c0-0.1-0.1-0.2-0.1-0.2c-0.1,0.2-0.2,0.7-0.5,1.6H134.3z"/>
			<path class="st10" d="M136,178.6h1.1c0.5,0,0.9,0.1,1.1,0.2c0.2,0.1,0.3,0.4,0.3,0.7c0,0.2,0,0.4-0.2,0.5
				c-0.1,0.1-0.2,0.2-0.4,0.2v0c0.2,0.1,0.4,0.1,0.5,0.3c0.1,0.1,0.2,0.3,0.2,0.6c0,0.3-0.1,0.6-0.4,0.8c-0.2,0.2-0.6,0.3-1,0.3H136
				V178.6z M136.8,180h0.4c0.2,0,0.4,0,0.5-0.1c0.1-0.1,0.1-0.2,0.1-0.3c0-0.1-0.1-0.2-0.2-0.3c-0.1-0.1-0.3-0.1-0.5-0.1h-0.4V180z
				 M136.8,180.7v0.9h0.5c0.2,0,0.4,0,0.5-0.1c0.1-0.1,0.2-0.2,0.2-0.4c0-0.3-0.2-0.4-0.6-0.4H136.8z"/>
			<path class="st10" d="M139.4,182.2v-3.6h0.8v3.6H139.4z"/>
			<path class="st10" d="M143.1,182.2h-2.1v-3.6h2.1v0.6h-1.3v0.8h1.2v0.6h-1.2v0.9h1.3V182.2z"/>
			<path class="st10" d="M144.7,180.8v1.4h-0.8v-3.6h1.1c0.5,0,0.9,0.1,1.1,0.3s0.4,0.4,0.4,0.8c0,0.2-0.1,0.4-0.2,0.6
				c-0.1,0.2-0.3,0.3-0.5,0.4c0.5,0.8,0.9,1.3,1.1,1.6h-0.8l-0.9-1.4H144.7z M144.7,180.2h0.2c0.2,0,0.4,0,0.5-0.1
				c0.1-0.1,0.2-0.2,0.2-0.4s-0.1-0.3-0.2-0.4c-0.1-0.1-0.3-0.1-0.5-0.1h-0.2V180.2z"/>
			<path class="st10" d="M148.6,182.2h-0.8v-3h-1v-0.6h2.7v0.6h-1V182.2z"/>
			<path class="st10" d="M153.4,180.4c0,0.6-0.1,1.1-0.4,1.4s-0.7,0.5-1.3,0.5s-1-0.2-1.3-0.5s-0.4-0.8-0.4-1.4
				c0-0.6,0.1-1.1,0.4-1.4c0.3-0.3,0.7-0.5,1.3-0.5c0.6,0,1,0.2,1.3,0.5C153.3,179.4,153.4,179.8,153.4,180.4z M150.8,180.4
				c0,0.4,0.1,0.7,0.2,0.9c0.2,0.2,0.4,0.3,0.7,0.3c0.6,0,0.9-0.4,0.9-1.2s-0.3-1.2-0.9-1.2c-0.3,0-0.5,0.1-0.7,0.3
				S150.8,180,150.8,180.4z"/>
			<path class="st10" d="M157.7,182.2l-0.3-0.9h-1.3l-0.3,0.9H155l1.3-3.6h0.9l1.3,3.6H157.7z M157.2,180.7
				c-0.2-0.8-0.4-1.2-0.4-1.3c0-0.1-0.1-0.2-0.1-0.2c-0.1,0.2-0.2,0.7-0.5,1.6H157.2z"/>
			<path class="st10" d="M159,182.2v-3.6h0.8v3h1.5v0.6H159z"/>
			<path class="st10" d="M165.6,179.7c0,0.4-0.1,0.7-0.4,0.9c-0.2,0.2-0.6,0.3-1,0.3h-0.3v1.3h-0.8v-3.6h1.2c0.4,0,0.8,0.1,1,0.3
				S165.6,179.4,165.6,179.7z M163.9,180.3h0.3c0.2,0,0.4,0,0.5-0.1s0.2-0.2,0.2-0.4c0-0.2,0-0.3-0.1-0.4s-0.3-0.1-0.5-0.1h-0.3
				V180.3z"/>
			<path class="st10" d="M169.2,178.6v2.3c0,0.3-0.1,0.5-0.2,0.7c-0.1,0.2-0.3,0.4-0.5,0.5c-0.2,0.1-0.5,0.2-0.8,0.2
				c-0.5,0-0.8-0.1-1.1-0.4c-0.3-0.2-0.4-0.6-0.4-1v-2.3h0.8v2.2c0,0.3,0.1,0.5,0.2,0.6c0.1,0.1,0.3,0.2,0.6,0.2
				c0.2,0,0.4-0.1,0.5-0.2s0.2-0.3,0.2-0.6v-2.2H169.2z M167.3,178.3L167.3,178.3c0.3-0.4,0.5-0.6,0.6-0.8h0.8v0.1
				c-0.1,0.1-0.2,0.2-0.4,0.4c-0.2,0.2-0.4,0.3-0.5,0.4H167.3z"/>
			<path class="st10" d="M170.1,178.6h1.1c0.5,0,0.9,0.1,1.1,0.2c0.2,0.1,0.3,0.4,0.3,0.7c0,0.2,0,0.4-0.2,0.5
				c-0.1,0.1-0.2,0.2-0.4,0.2v0c0.2,0.1,0.4,0.1,0.5,0.3c0.1,0.1,0.2,0.3,0.2,0.6c0,0.3-0.1,0.6-0.4,0.8c-0.2,0.2-0.6,0.3-1,0.3
				h-1.3V178.6z M170.9,180h0.4c0.2,0,0.4,0,0.5-0.1c0.1-0.1,0.1-0.2,0.1-0.3c0-0.1-0.1-0.2-0.2-0.3c-0.1-0.1-0.3-0.1-0.5-0.1h-0.4
				V180z M170.9,180.7v0.9h0.5c0.2,0,0.4,0,0.5-0.1c0.1-0.1,0.2-0.2,0.2-0.4c0-0.3-0.2-0.4-0.6-0.4H170.9z"/>
			<path class="st10" d="M173.5,182.2v-3.6h0.8v3h1.5v0.6H173.5z"/>
			<path class="st10" d="M176.4,182.2v-3.6h0.8v3.6H176.4z"/>
			<path class="st10" d="M179.6,179.2c-0.3,0-0.5,0.1-0.7,0.3c-0.2,0.2-0.2,0.5-0.2,0.9c0,0.8,0.3,1.2,0.9,1.2
				c0.3,0,0.6-0.1,0.9-0.2v0.6c-0.3,0.1-0.6,0.2-1,0.2c-0.5,0-0.9-0.2-1.2-0.5c-0.3-0.3-0.4-0.8-0.4-1.4c0-0.4,0.1-0.7,0.2-1
				c0.1-0.3,0.3-0.5,0.6-0.6s0.6-0.2,0.9-0.2c0.4,0,0.7,0.1,1.1,0.3l-0.2,0.6c-0.1-0.1-0.3-0.1-0.4-0.2S179.7,179.2,179.6,179.2z"/>
			<path class="st10" d="M184.5,180.4c0,0.6-0.1,1.1-0.4,1.4s-0.7,0.5-1.3,0.5s-1-0.2-1.3-0.5s-0.4-0.8-0.4-1.4
				c0-0.6,0.1-1.1,0.4-1.4c0.3-0.3,0.7-0.5,1.3-0.5c0.6,0,1,0.2,1.3,0.5C184.4,179.4,184.5,179.8,184.5,180.4z M181.9,180.4
				c0,0.4,0.1,0.7,0.2,0.9c0.2,0.2,0.4,0.3,0.7,0.3c0.6,0,0.9-0.4,0.9-1.2s-0.3-1.2-0.9-1.2c-0.3,0-0.5,0.1-0.7,0.3
				S181.9,180,181.9,180.4z"/>
		</g>
	</g>
</g>
</svg>
