<?xml version="1.0" encoding="utf-8"?>
<!-- Generator: Adobe Illustrator 26.0.3, SVG Export Plug-In . SVG Version: 6.00 Build 0)  -->
<svg version="1.1" id="Capa_1" xmlns="http://www.w3.org/2000/svg" xmlns:xlink="http://www.w3.org/1999/xlink" x="0px" y="0px"
	 viewBox="0 0 255.7 216.5" style="enable-background:new 0 0 255.7 216.5;" xml:space="preserve">
<style type="text/css">
	.st0{fill:#6892B2;}
	.st1{fill:#B7B7B6;}
	.st2{fill:#0E70B9;}
	.st3{fill:none;stroke:#6892B2;stroke-width:2;stroke-linecap:round;stroke-linejoin:round;stroke-miterlimit:10;}
</style>
<g>
	<g id="Background">
	</g>
	<g>
		<g>
			<path class="st0" d="M49.2,86.8c2.4,0,4.7,0.6,6.6,1.7c2,1.1,3.5,2.7,4.6,4.8c1.1,2.1,1.6,4.5,1.6,7.2c0,4.8-1.4,8.4-4.3,10.9
				c-2.9,2.5-7.2,3.8-13,3.8c-5,0-9-0.8-12.2-2.3v-9.4c1.7,0.8,3.6,1.4,5.7,1.9s4,0.8,5.5,0.8c2.1,0,3.8-0.5,4.9-1.4
				c1.1-0.9,1.7-2.2,1.7-4c0-1.6-0.6-2.9-1.7-3.8c-1.2-0.9-2.9-1.4-5.3-1.4c-1.8,0-3.8,0.3-5.8,1l-4.2-2.1l1.6-22.5h24.3v9.6H44.7
				l-0.5,5.6c1.5-0.3,2.6-0.5,3.2-0.5C48.1,86.8,48.7,86.8,49.2,86.8z"/>
		</g>
	</g>
	<g>
		<g>
			<path class="st1" d="M83,75.2v6.9c0,0.8-0.2,1.5-0.5,2.1c-0.3,0.6-0.8,1-1.5,1.4c-0.6,0.3-1.4,0.5-2.3,0.5
				c-1.3,0-2.4-0.4-3.1-1.1c-0.7-0.7-1.1-1.7-1.1-2.9v-6.9h1.8V82c0,0.9,0.2,1.5,0.6,2c0.4,0.4,1,0.6,1.9,0.6c1.6,0,2.5-0.9,2.5-2.6
				v-6.8H83z"/>
			<path class="st1" d="M94.7,85.9h-2.1l-5.3-8.5h-0.1l0,0.5c0.1,0.9,0.1,1.7,0.1,2.5v5.6h-1.6V75.2h2.1l5.2,8.5h0
				c0-0.1,0-0.5-0.1-1.2s0-1.3,0-1.7v-5.6h1.6V85.9z"/>
			<path class="st1" d="M97.5,85.9V75.2h1.7v10.7H97.5z"/>
			<path class="st1" d="M110.8,80.4c0,1.8-0.5,3.1-1.5,4.1c-1,0.9-2.4,1.4-4.2,1.4h-3V75.2h3.3c1.7,0,3,0.5,4,1.4
				C110.3,77.5,110.8,78.8,110.8,80.4z M108.9,80.5c0-2.6-1.2-3.8-3.6-3.8h-1.5v7.8h1.2C107.6,84.4,108.9,83.1,108.9,80.5z"/>
			<path class="st1" d="M119.7,85.9l-1.1-3h-4.1l-1,3h-1.8l4-10.7h1.9l4,10.7H119.7z M118.2,81.4l-1-2.9c-0.1-0.2-0.2-0.5-0.3-0.9
				c-0.1-0.4-0.2-0.7-0.3-0.9c-0.1,0.6-0.3,1.3-0.6,2l-1,2.8H118.2z"/>
			<path class="st1" d="M131.7,80.4c0,1.8-0.5,3.1-1.5,4.1c-1,0.9-2.4,1.4-4.2,1.4h-3V75.2h3.3c1.7,0,3,0.5,4,1.4
				S131.7,78.8,131.7,80.4z M129.8,80.5c0-2.6-1.2-3.8-3.6-3.8h-1.5v7.8h1.2C128.5,84.4,129.8,83.1,129.8,80.5z"/>
			<path class="st1" d="M140,85.9H134V75.2h6.1v1.5h-4.3v2.9h4V81h-4v3.4h4.3V85.9z"/>
			<path class="st1" d="M148.5,83c0,1-0.3,1.7-1,2.2c-0.7,0.5-1.6,0.8-2.8,0.8s-2.2-0.2-3-0.6v-1.7c0.5,0.2,1,0.4,1.6,0.5
				c0.5,0.1,1.1,0.2,1.5,0.2c0.7,0,1.2-0.1,1.5-0.4c0.3-0.3,0.5-0.6,0.5-1.1c0-0.4-0.2-0.7-0.5-1c-0.3-0.3-0.9-0.6-1.9-1
				c-1-0.4-1.7-0.8-2.1-1.4c-0.4-0.5-0.6-1.1-0.6-1.8c0-0.9,0.3-1.6,1-2.1s1.5-0.8,2.6-0.8c1,0,2,0.2,3.1,0.7l-0.6,1.4
				c-1-0.4-1.8-0.6-2.5-0.6c-0.6,0-1,0.1-1.3,0.4c-0.3,0.2-0.4,0.6-0.4,1c0,0.3,0.1,0.5,0.2,0.7s0.3,0.4,0.6,0.6s0.8,0.4,1.4,0.7
				c0.8,0.3,1.4,0.6,1.7,0.9c0.4,0.3,0.6,0.6,0.8,1C148.4,82.1,148.5,82.5,148.5,83z"/>
			<path class="st1" d="M161.1,85.9l-1.1-3h-4.1l-1,3h-1.8l4-10.7h1.9l4,10.7H161.1z M159.6,81.4l-1-2.9c-0.1-0.2-0.2-0.5-0.3-0.9
				c-0.1-0.4-0.2-0.7-0.3-0.9c-0.1,0.6-0.3,1.3-0.6,2l-1,2.8H159.6z"/>
			<path class="st1" d="M168.9,76.5c-1,0-1.8,0.4-2.4,1.1c-0.6,0.7-0.9,1.7-0.9,2.9c0,1.3,0.3,2.3,0.8,3s1.4,1,2.4,1
				c0.5,0,0.9,0,1.3-0.1c0.4-0.1,0.9-0.2,1.3-0.3v1.5c-0.8,0.3-1.8,0.5-2.9,0.5c-1.6,0-2.8-0.5-3.6-1.4c-0.8-0.9-1.3-2.3-1.3-4.1
				c0-1.1,0.2-2.1,0.6-2.9c0.4-0.8,1-1.5,1.8-1.9c0.8-0.4,1.7-0.7,2.7-0.7c1.1,0,2.1,0.2,3,0.7l-0.6,1.5c-0.4-0.2-0.7-0.3-1.1-0.5
				C169.8,76.6,169.4,76.5,168.9,76.5z"/>
			<path class="st1" d="M180.5,85.9l-1.1-3h-4.1l-1,3h-1.8l4-10.7h1.9l4,10.7H180.5z M179,81.4l-1-2.9c-0.1-0.2-0.2-0.5-0.3-0.9
				c-0.1-0.4-0.2-0.7-0.3-0.9c-0.1,0.6-0.3,1.3-0.6,2l-1,2.8H179z"/>
			<path class="st1" d="M192.5,80.4c0,1.8-0.5,3.1-1.5,4.1c-1,0.9-2.4,1.4-4.2,1.4h-3V75.2h3.3c1.7,0,3,0.5,4,1.4
				S192.5,78.8,192.5,80.4z M190.6,80.5c0-2.6-1.2-3.8-3.6-3.8h-1.5v7.8h1.2C189.4,84.4,190.6,83.1,190.6,80.5z"/>
			<path class="st1" d="M200.8,85.9h-6.1V75.2h6.1v1.5h-4.3v2.9h4V81h-4v3.4h4.3V85.9z M196.6,74.3v-0.2c0.3-0.3,0.6-0.7,0.9-1.1
				c0.3-0.4,0.5-0.8,0.7-1.1h2v0.2c-0.3,0.3-0.6,0.7-1.1,1.2s-0.9,0.8-1.3,1.1H196.6z"/>
			<path class="st1" d="M207.8,85.9l-3.1-8.9h-0.1c0.1,1.3,0.1,2.6,0.1,3.7v5.2h-1.6V75.2h2.5l3,8.5h0l3.1-8.5h2.5v10.7h-1.7v-5.3
				c0-0.5,0-1.2,0-2.1c0-0.9,0-1.4,0.1-1.6h-0.1l-3.2,8.9H207.8z"/>
			<path class="st1" d="M217,85.9V75.2h1.7v10.7H217z"/>
			<path class="st1" d="M226.1,76.5c-1,0-1.8,0.4-2.4,1.1c-0.6,0.7-0.9,1.7-0.9,2.9c0,1.3,0.3,2.3,0.8,3s1.4,1,2.4,1
				c0.5,0,0.9,0,1.3-0.1c0.4-0.1,0.9-0.2,1.3-0.3v1.5c-0.8,0.3-1.8,0.5-2.9,0.5c-1.6,0-2.8-0.5-3.6-1.4c-0.8-0.9-1.3-2.3-1.3-4.1
				c0-1.1,0.2-2.1,0.6-2.9c0.4-0.8,1-1.5,1.8-1.9c0.8-0.4,1.7-0.7,2.7-0.7c1.1,0,2.1,0.2,3,0.7l-0.6,1.5c-0.4-0.2-0.7-0.3-1.1-0.5
				C227,76.6,226.5,76.5,226.1,76.5z"/>
			<path class="st1" d="M237.7,85.9l-1.1-3h-4.1l-1,3h-1.8l4-10.7h1.9l4,10.7H237.7z M236.2,81.4l-1-2.9c-0.1-0.2-0.2-0.5-0.3-0.9
				c-0.1-0.4-0.2-0.7-0.3-0.9c-0.1,0.6-0.3,1.3-0.6,2l-1,2.8H236.2z"/>
			<path class="st1" d="M247.1,83c0,1-0.3,1.7-1,2.2c-0.7,0.5-1.6,0.8-2.8,0.8s-2.2-0.2-3-0.6v-1.7c0.5,0.2,1,0.4,1.6,0.5
				c0.5,0.1,1.1,0.2,1.5,0.2c0.7,0,1.2-0.1,1.5-0.4c0.3-0.3,0.5-0.6,0.5-1.1c0-0.4-0.2-0.7-0.5-1c-0.3-0.3-0.9-0.6-1.9-1
				c-1-0.4-1.7-0.8-2.1-1.4c-0.4-0.5-0.6-1.1-0.6-1.8c0-0.9,0.3-1.6,1-2.1s1.5-0.8,2.6-0.8c1,0,2,0.2,3.1,0.7l-0.6,1.4
				c-1-0.4-1.8-0.6-2.5-0.6c-0.6,0-1,0.1-1.3,0.4c-0.3,0.2-0.4,0.6-0.4,1c0,0.3,0.1,0.5,0.2,0.7s0.3,0.4,0.6,0.6s0.8,0.4,1.4,0.7
				c0.8,0.3,1.4,0.6,1.7,0.9c0.4,0.3,0.6,0.6,0.8,1C247,82.1,247.1,82.5,247.1,83z"/>
		</g>
	</g>
	<g>
		<g>
			<path d="M78.3,98h-3v-5.5h3v0.6h-2.4v1.8h2.3v0.6h-2.3v2h2.4V98z"/>
			<path d="M82.1,96.9c0,0.4-0.1,0.7-0.4,0.9c-0.3,0.2-0.7,0.3-1.2,0.3c-0.5,0-1-0.1-1.3-0.3v-0.6c0.2,0.1,0.4,0.2,0.6,0.2
				s0.4,0.1,0.7,0.1c0.3,0,0.6-0.1,0.7-0.2c0.2-0.1,0.3-0.3,0.3-0.5c0-0.2-0.1-0.3-0.2-0.4c-0.1-0.1-0.4-0.2-0.8-0.4
				c-0.4-0.1-0.7-0.3-0.8-0.4c-0.2-0.1-0.3-0.2-0.4-0.4s-0.1-0.3-0.1-0.5c0-0.3,0.1-0.6,0.4-0.8c0.3-0.2,0.6-0.3,1.1-0.3
				c0.4,0,0.9,0.1,1.3,0.3l-0.2,0.5c-0.4-0.2-0.8-0.3-1.1-0.3c-0.3,0-0.5,0-0.7,0.1c-0.1,0.1-0.2,0.2-0.2,0.4c0,0.1,0,0.2,0.1,0.3
				s0.1,0.2,0.3,0.2c0.1,0.1,0.4,0.2,0.7,0.3c0.5,0.2,0.8,0.4,1,0.5C82,96.4,82.1,96.6,82.1,96.9z"/>
			<path d="M84.7,98.1c-0.6,0-1.1-0.2-1.4-0.6c-0.3-0.4-0.5-0.9-0.5-1.6c0-0.7,0.2-1.2,0.5-1.6c0.3-0.4,0.8-0.6,1.4-0.6
				c0.2,0,0.4,0,0.6,0.1c0.2,0,0.4,0.1,0.5,0.2l-0.2,0.5c-0.1-0.1-0.3-0.1-0.4-0.1s-0.3-0.1-0.4-0.1c-0.8,0-1.2,0.5-1.2,1.6
				c0,0.5,0.1,0.9,0.3,1.2c0.2,0.3,0.5,0.4,0.9,0.4c0.3,0,0.7-0.1,1.1-0.2v0.6C85.5,98,85.1,98.1,84.7,98.1z"/>
			<path d="M87.3,93.9v2.7c0,0.3,0.1,0.6,0.2,0.8c0.2,0.2,0.4,0.2,0.7,0.2c0.4,0,0.7-0.1,0.9-0.4s0.3-0.6,0.3-1.2v-2.2h0.6V98h-0.5
				l-0.1-0.6h0c-0.1,0.2-0.3,0.4-0.5,0.5c-0.2,0.1-0.5,0.2-0.8,0.2c-0.5,0-0.9-0.1-1.1-0.4s-0.4-0.6-0.4-1.1v-2.7H87.3z"/>
			<path d="M93.2,98.1c-0.6,0-1.1-0.2-1.4-0.6c-0.4-0.4-0.5-0.9-0.5-1.5c0-0.7,0.2-1.2,0.5-1.6c0.3-0.4,0.8-0.6,1.3-0.6
				c0.5,0,0.9,0.2,1.2,0.5s0.4,0.8,0.4,1.3v0.4h-2.8c0,0.5,0.1,0.9,0.4,1.1s0.6,0.4,1,0.4c0.4,0,0.9-0.1,1.3-0.3v0.6
				c-0.2,0.1-0.4,0.2-0.6,0.2S93.5,98.1,93.2,98.1z M93,94.4c-0.3,0-0.6,0.1-0.8,0.3s-0.3,0.5-0.3,0.9H94c0-0.4-0.1-0.7-0.3-0.9
				C93.6,94.5,93.3,94.4,93,94.4z"/>
			<path d="M96.4,98h-0.6v-5.8h0.6V98z"/>
			<path d="M100.2,98l-0.1-0.6h0c-0.2,0.3-0.4,0.4-0.6,0.5s-0.5,0.1-0.8,0.1c-0.4,0-0.7-0.1-1-0.3c-0.2-0.2-0.3-0.5-0.3-0.9
				c0-0.8,0.7-1.3,2-1.3l0.7,0v-0.3c0-0.3-0.1-0.6-0.2-0.7c-0.1-0.2-0.4-0.2-0.7-0.2c-0.3,0-0.7,0.1-1.2,0.3l-0.2-0.5
				c0.2-0.1,0.4-0.2,0.7-0.3c0.2-0.1,0.5-0.1,0.7-0.1c0.5,0,0.9,0.1,1.1,0.3c0.2,0.2,0.4,0.6,0.4,1V98H100.2z M98.8,97.6
				c0.4,0,0.7-0.1,0.9-0.3s0.3-0.5,0.3-0.9V96l-0.6,0c-0.5,0-0.8,0.1-1.1,0.2S98,96.6,98,96.9c0,0.2,0.1,0.4,0.2,0.5
				S98.6,97.6,98.8,97.6z"/>
			<path d="M107.1,96.6c0,0.5-0.2,0.9-0.5,1.1s-0.8,0.4-1.4,0.4c-0.6,0-1.1-0.1-1.5-0.3v-0.6c0.2,0.1,0.5,0.2,0.7,0.2
				s0.5,0.1,0.8,0.1c0.4,0,0.7-0.1,1-0.2s0.3-0.4,0.3-0.7c0-0.2,0-0.3-0.1-0.5c-0.1-0.1-0.2-0.2-0.4-0.3c-0.2-0.1-0.4-0.2-0.8-0.3
				c-0.5-0.2-0.9-0.4-1.1-0.6c-0.2-0.3-0.3-0.6-0.3-1c0-0.4,0.2-0.8,0.5-1c0.3-0.3,0.7-0.4,1.3-0.4c0.5,0,1,0.1,1.5,0.3l-0.2,0.6
				c-0.5-0.2-0.9-0.3-1.3-0.3c-0.3,0-0.6,0.1-0.8,0.2c-0.2,0.1-0.3,0.3-0.3,0.6c0,0.2,0,0.3,0.1,0.5s0.2,0.2,0.4,0.3
				s0.4,0.2,0.8,0.3c0.6,0.2,1,0.4,1.2,0.7S107.1,96.2,107.1,96.6z"/>
			<path d="M108.7,93.9v2.7c0,0.3,0.1,0.6,0.2,0.8c0.2,0.2,0.4,0.2,0.7,0.2c0.4,0,0.7-0.1,0.9-0.4s0.3-0.6,0.3-1.2v-2.2h0.6V98H111
				l-0.1-0.6h0c-0.1,0.2-0.3,0.4-0.5,0.5c-0.2,0.1-0.5,0.2-0.8,0.2c-0.5,0-0.9-0.1-1.1-0.4s-0.4-0.6-0.4-1.1v-2.7H108.7z"/>
			<path d="M114.7,98.1c-0.3,0-0.5,0-0.7-0.1s-0.4-0.3-0.6-0.5h0c0,0.2,0,0.5,0,0.7v1.7h-0.6v-6h0.5l0.1,0.6h0
				c0.2-0.2,0.3-0.4,0.6-0.5s0.5-0.2,0.7-0.2c0.5,0,1,0.2,1.3,0.6s0.4,0.9,0.4,1.6c0,0.7-0.1,1.2-0.5,1.6
				C115.7,97.9,115.3,98.1,114.7,98.1z M114.6,94.4c-0.4,0-0.7,0.1-0.9,0.3s-0.3,0.6-0.3,1.1V96c0,0.6,0.1,1,0.3,1.2
				s0.5,0.4,0.9,0.4c0.4,0,0.6-0.1,0.8-0.4s0.3-0.7,0.3-1.2c0-0.5-0.1-0.9-0.3-1.2C115.3,94.5,115,94.4,114.6,94.4z"/>
			<path d="M119.3,98.1c-0.6,0-1.1-0.2-1.4-0.6c-0.4-0.4-0.5-0.9-0.5-1.5c0-0.7,0.2-1.2,0.5-1.6c0.3-0.4,0.8-0.6,1.3-0.6
				c0.5,0,0.9,0.2,1.2,0.5s0.4,0.8,0.4,1.3v0.4h-2.8c0,0.5,0.1,0.9,0.4,1.1s0.6,0.4,1,0.4c0.4,0,0.9-0.1,1.3-0.3v0.6
				c-0.2,0.1-0.4,0.2-0.6,0.2S119.5,98.1,119.3,98.1z M119.1,94.4c-0.3,0-0.6,0.1-0.8,0.3s-0.3,0.5-0.3,0.9h2.1
				c0-0.4-0.1-0.7-0.3-0.9C119.7,94.5,119.4,94.4,119.1,94.4z"/>
			<path d="M123.7,93.8c0.2,0,0.3,0,0.5,0l-0.1,0.6c-0.2,0-0.3-0.1-0.4-0.1c-0.3,0-0.6,0.1-0.9,0.4c-0.2,0.3-0.4,0.6-0.4,1V98h-0.6
				v-4.1h0.5l0.1,0.8h0c0.2-0.3,0.3-0.5,0.5-0.6C123.2,93.9,123.4,93.8,123.7,93.8z"/>
			<path d="M124.9,92.8c0-0.1,0-0.2,0.1-0.3s0.2-0.1,0.3-0.1c0.1,0,0.2,0,0.3,0.1c0.1,0.1,0.1,0.2,0.1,0.3s0,0.2-0.1,0.3
				s-0.2,0.1-0.3,0.1c-0.1,0-0.2,0-0.3-0.1S124.9,92.9,124.9,92.8z M125.6,98h-0.6v-4.1h0.6V98z"/>
			<path d="M130.4,96c0,0.7-0.2,1.2-0.5,1.6s-0.8,0.6-1.4,0.6c-0.4,0-0.7-0.1-1-0.3s-0.5-0.4-0.7-0.7c-0.2-0.3-0.2-0.7-0.2-1.1
				c0-0.7,0.2-1.2,0.5-1.6s0.8-0.6,1.4-0.6c0.6,0,1,0.2,1.4,0.6C130.3,94.8,130.4,95.3,130.4,96z M127.3,96c0,0.5,0.1,0.9,0.3,1.2
				s0.5,0.4,0.9,0.4c0.4,0,0.7-0.1,0.9-0.4c0.2-0.3,0.3-0.7,0.3-1.2c0-0.5-0.1-0.9-0.3-1.2c-0.2-0.3-0.5-0.4-0.9-0.4
				c-0.4,0-0.7,0.1-0.9,0.4C127.4,95,127.3,95.4,127.3,96z"/>
			<path d="M133.4,93.8c0.2,0,0.3,0,0.5,0l-0.1,0.6c-0.2,0-0.3-0.1-0.4-0.1c-0.3,0-0.6,0.1-0.9,0.4c-0.2,0.3-0.4,0.6-0.4,1V98h-0.6
				v-4.1h0.5l0.1,0.8h0c0.2-0.3,0.3-0.5,0.5-0.6C132.9,93.9,133.1,93.8,133.4,93.8z"/>
			<path d="M136.3,95.9c0-0.7,0.1-1.3,0.3-1.9s0.5-1.1,0.8-1.5h0.6c-0.4,0.5-0.6,1-0.8,1.6c-0.2,0.6-0.3,1.2-0.3,1.8
				c0,0.6,0.1,1.2,0.3,1.8c0.2,0.6,0.5,1.1,0.8,1.6h-0.6c-0.4-0.4-0.6-0.9-0.8-1.5C136.4,97.2,136.3,96.6,136.3,95.9z"/>
			<path d="M142,98h-3v-5.5h3v0.6h-2.4v1.8h2.3v0.6h-2.3v2h2.4V98z"/>
			<path d="M146.3,96.6c0,0.5-0.2,0.9-0.5,1.1s-0.8,0.4-1.4,0.4c-0.6,0-1.1-0.1-1.5-0.3v-0.6c0.2,0.1,0.5,0.2,0.7,0.2
				c0.3,0.1,0.5,0.1,0.8,0.1c0.4,0,0.7-0.1,1-0.2c0.2-0.2,0.3-0.4,0.3-0.7c0-0.2,0-0.3-0.1-0.5s-0.2-0.2-0.4-0.3
				c-0.2-0.1-0.4-0.2-0.8-0.3c-0.5-0.2-0.9-0.4-1.1-0.6c-0.2-0.3-0.3-0.6-0.3-1c0-0.4,0.2-0.8,0.5-1s0.7-0.4,1.3-0.4
				c0.5,0,1,0.1,1.5,0.3l-0.2,0.6c-0.5-0.2-0.9-0.3-1.3-0.3c-0.3,0-0.6,0.1-0.8,0.2c-0.2,0.1-0.3,0.3-0.3,0.6c0,0.2,0,0.3,0.1,0.5
				c0.1,0.1,0.2,0.2,0.4,0.3c0.2,0.1,0.4,0.2,0.8,0.3c0.6,0.2,1,0.4,1.2,0.7S146.3,96.2,146.3,96.6z"/>
			<path d="M151.6,92.5v3.6c0,0.6-0.2,1.1-0.6,1.5c-0.4,0.4-0.9,0.5-1.6,0.5s-1.2-0.2-1.5-0.5s-0.5-0.9-0.5-1.5v-3.5h0.6v3.6
				c0,0.5,0.1,0.8,0.4,1.1c0.2,0.2,0.6,0.4,1.1,0.4c0.5,0,0.8-0.1,1.1-0.4c0.2-0.2,0.4-0.6,0.4-1.1v-3.6H151.6z"/>
			<path d="M156.5,94.1c0,0.6-0.2,1-0.6,1.3c-0.4,0.3-0.9,0.4-1.6,0.4h-0.6V98H153v-5.5h1.4C155.8,92.5,156.5,93.1,156.5,94.1z
				 M153.7,95.3h0.6c0.6,0,1-0.1,1.2-0.3s0.4-0.5,0.4-0.9c0-0.4-0.1-0.6-0.4-0.8c-0.2-0.2-0.6-0.3-1.1-0.3h-0.7V95.3z"/>
			<path d="M158.8,95.9c0,0.7-0.1,1.3-0.3,1.8c-0.2,0.6-0.5,1.1-0.8,1.5h-0.6c0.3-0.5,0.6-1,0.8-1.6c0.2-0.6,0.3-1.2,0.3-1.8
				c0-0.6-0.1-1.2-0.3-1.8c-0.2-0.6-0.5-1.1-0.8-1.6h0.6c0.4,0.4,0.6,0.9,0.8,1.5C158.8,94.6,158.8,95.3,158.8,95.9z"/>
			<path d="M79.6,104.5c0,0.9-0.2,1.6-0.7,2.1c-0.5,0.5-1.2,0.7-2.1,0.7h-1.5v-5.5H77c0.9,0,1.5,0.2,2,0.7
				C79.4,103,79.6,103.6,79.6,104.5z M79,104.5c0-0.7-0.2-1.3-0.5-1.6s-0.9-0.5-1.6-0.5h-0.9v4.4h0.8c0.8,0,1.3-0.2,1.7-0.6
				C78.8,105.8,79,105.2,79,104.5z"/>
			<path d="M82.5,107.3c-0.6,0-1.1-0.2-1.4-0.6c-0.4-0.4-0.5-0.9-0.5-1.5c0-0.7,0.2-1.2,0.5-1.6c0.3-0.4,0.8-0.6,1.3-0.6
				c0.5,0,0.9,0.2,1.2,0.5s0.4,0.8,0.4,1.3v0.4h-2.8c0,0.5,0.1,0.9,0.4,1.1s0.6,0.4,1,0.4c0.4,0,0.9-0.1,1.3-0.3v0.6
				c-0.2,0.1-0.4,0.2-0.6,0.2S82.8,107.3,82.5,107.3z M82.3,103.6c-0.3,0-0.6,0.1-0.8,0.3s-0.3,0.5-0.3,0.9h2.1
				c0-0.4-0.1-0.7-0.3-0.9C82.9,103.7,82.7,103.6,82.3,103.6z"/>
			<path d="M87,107.3c-0.3,0-0.5,0-0.7-0.1s-0.4-0.3-0.6-0.5h0c0,0.2,0,0.5,0,0.7v1.7h-0.6v-6h0.5l0.1,0.6h0
				c0.2-0.2,0.3-0.4,0.6-0.5s0.5-0.2,0.7-0.2c0.5,0,1,0.2,1.3,0.6s0.4,0.9,0.4,1.6c0,0.7-0.1,1.2-0.5,1.6
				C87.9,107.1,87.5,107.3,87,107.3z M86.9,103.6c-0.4,0-0.7,0.1-0.9,0.3s-0.3,0.6-0.3,1.1v0.1c0,0.6,0.1,1,0.3,1.2s0.5,0.4,0.9,0.4
				c0.4,0,0.6-0.1,0.8-0.4s0.3-0.7,0.3-1.2c0-0.5-0.1-0.9-0.3-1.2C87.5,103.7,87.2,103.6,86.9,103.6z"/>
			<path d="M89.7,106.9c0-0.2,0-0.3,0.1-0.4c0.1-0.1,0.2-0.1,0.3-0.1c0.1,0,0.3,0,0.3,0.1c0.1,0.1,0.1,0.2,0.1,0.4
				c0,0.2,0,0.3-0.1,0.4c-0.1,0.1-0.2,0.1-0.3,0.1c-0.1,0-0.2,0-0.3-0.1C89.7,107.2,89.7,107,89.7,106.9z"/>
			<path d="M97.3,107.3l-0.7-1.7h-2.2l-0.7,1.7h-0.6l2.2-5.5h0.5l2.2,5.5H97.3z M96.4,104.9l-0.6-1.7c-0.1-0.2-0.2-0.5-0.3-0.8
				c-0.1,0.2-0.1,0.5-0.2,0.8l-0.6,1.7H96.4z"/>
			<path d="M100.3,107.3c-0.6,0-1.1-0.2-1.4-0.6c-0.3-0.4-0.5-0.9-0.5-1.6c0-0.7,0.2-1.2,0.5-1.6c0.3-0.4,0.8-0.6,1.4-0.6
				c0.2,0,0.4,0,0.6,0.1c0.2,0,0.4,0.1,0.5,0.2l-0.2,0.5c-0.1-0.1-0.3-0.1-0.4-0.1s-0.3-0.1-0.4-0.1c-0.8,0-1.2,0.5-1.2,1.6
				c0,0.5,0.1,0.9,0.3,1.2c0.2,0.3,0.5,0.4,0.9,0.4c0.3,0,0.7-0.1,1.1-0.2v0.6C101,107.3,100.7,107.3,100.3,107.3z"/>
			<path d="M104.8,107.3l-0.1-0.6h0c-0.2,0.3-0.4,0.4-0.6,0.5s-0.5,0.1-0.8,0.1c-0.4,0-0.7-0.1-1-0.3c-0.2-0.2-0.3-0.5-0.3-0.9
				c0-0.8,0.7-1.3,2-1.3l0.7,0v-0.3c0-0.3-0.1-0.6-0.2-0.7c-0.1-0.2-0.4-0.2-0.7-0.2c-0.3,0-0.7,0.1-1.2,0.3l-0.2-0.5
				c0.2-0.1,0.4-0.2,0.7-0.3c0.2-0.1,0.5-0.1,0.7-0.1c0.5,0,0.9,0.1,1.1,0.3c0.2,0.2,0.4,0.6,0.4,1v2.8H104.8z M103.4,106.8
				c0.4,0,0.7-0.1,0.9-0.3s0.3-0.5,0.3-0.9v-0.4l-0.6,0c-0.5,0-0.8,0.1-1.1,0.2s-0.3,0.3-0.3,0.6c0,0.2,0.1,0.4,0.2,0.5
				S103.2,106.8,103.4,106.8z"/>
			<path d="M109.3,106.7L109.3,106.7c-0.3,0.4-0.7,0.6-1.3,0.6c-0.5,0-1-0.2-1.3-0.6s-0.4-0.9-0.4-1.6s0.1-1.2,0.4-1.6
				c0.3-0.4,0.7-0.6,1.2-0.6c0.6,0,1,0.2,1.3,0.6h0l0-0.3l0-0.3v-1.7h0.6v5.8h-0.5L109.3,106.7z M108.1,106.8c0.4,0,0.7-0.1,0.9-0.3
				c0.2-0.2,0.3-0.6,0.3-1.1v-0.1c0-0.6-0.1-1-0.3-1.2c-0.2-0.2-0.5-0.4-0.9-0.4c-0.4,0-0.6,0.1-0.8,0.4c-0.2,0.3-0.3,0.7-0.3,1.2
				c0,0.5,0.1,0.9,0.3,1.2S107.7,106.8,108.1,106.8z"/>
			<path d="M113,107.3c-0.6,0-1.1-0.2-1.4-0.6c-0.4-0.4-0.5-0.9-0.5-1.5c0-0.7,0.2-1.2,0.5-1.6c0.3-0.4,0.8-0.6,1.3-0.6
				c0.5,0,0.9,0.2,1.2,0.5s0.4,0.8,0.4,1.3v0.4h-2.8c0,0.5,0.1,0.9,0.4,1.1s0.6,0.4,1,0.4c0.4,0,0.9-0.1,1.3-0.3v0.6
				c-0.2,0.1-0.4,0.2-0.6,0.2S113.2,107.3,113,107.3z M112.8,103.6c-0.3,0-0.6,0.1-0.8,0.3s-0.3,0.5-0.3,0.9h2.1
				c0-0.4-0.1-0.7-0.3-0.9C113.4,103.7,113.1,103.6,112.8,103.6z M112.3,102.5c0.1-0.2,0.2-0.3,0.4-0.6c0.1-0.2,0.2-0.4,0.3-0.6h0.8
				v0.1c-0.1,0.2-0.3,0.4-0.5,0.6c-0.2,0.2-0.4,0.4-0.6,0.6L112.3,102.5L112.3,102.5z"/>
			<path d="M120.8,107.3v-2.7c0-0.3-0.1-0.6-0.2-0.7s-0.4-0.2-0.7-0.2c-0.4,0-0.7,0.1-0.9,0.3c-0.2,0.2-0.3,0.6-0.3,1v2.3h-0.6v-2.7
				c0-0.3-0.1-0.6-0.2-0.7s-0.4-0.2-0.7-0.2c-0.4,0-0.7,0.1-0.9,0.4c-0.2,0.2-0.3,0.6-0.3,1.2v2.2h-0.6v-4.1h0.5l0.1,0.6h0
				c0.1-0.2,0.3-0.4,0.5-0.5c0.2-0.1,0.5-0.2,0.7-0.2c0.6,0,1.1,0.2,1.3,0.7h0c0.1-0.2,0.3-0.4,0.5-0.5c0.2-0.1,0.5-0.2,0.8-0.2
				c0.5,0,0.8,0.1,1,0.4s0.3,0.6,0.3,1.1v2.7H120.8z"/>
			<path d="M122.6,102c0-0.1,0-0.2,0.1-0.3s0.2-0.1,0.3-0.1c0.1,0,0.2,0,0.3,0.1c0.1,0.1,0.1,0.2,0.1,0.3s0,0.2-0.1,0.3
				s-0.2,0.1-0.3,0.1c-0.1,0-0.2,0-0.3-0.1S122.6,102.2,122.6,102z M123.3,107.3h-0.6v-4.1h0.6V107.3z"/>
			<path d="M126.2,107.3c-0.6,0-1.1-0.2-1.4-0.6c-0.3-0.4-0.5-0.9-0.5-1.6c0-0.7,0.2-1.2,0.5-1.6c0.3-0.4,0.8-0.6,1.4-0.6
				c0.2,0,0.4,0,0.6,0.1c0.2,0,0.4,0.1,0.5,0.2l-0.2,0.5c-0.1-0.1-0.3-0.1-0.4-0.1s-0.3-0.1-0.4-0.1c-0.8,0-1.2,0.5-1.2,1.6
				c0,0.5,0.1,0.9,0.3,1.2c0.2,0.3,0.5,0.4,0.9,0.4c0.3,0,0.7-0.1,1.1-0.2v0.6C127,107.3,126.6,107.3,126.2,107.3z"/>
			<path d="M131.8,105.2c0,0.7-0.2,1.2-0.5,1.6c-0.3,0.4-0.8,0.6-1.4,0.6c-0.4,0-0.7-0.1-1-0.3c-0.3-0.2-0.5-0.4-0.7-0.7
				c-0.2-0.3-0.2-0.7-0.2-1.1c0-0.7,0.2-1.2,0.5-1.6s0.8-0.6,1.4-0.6c0.6,0,1,0.2,1.4,0.6C131.6,104,131.8,104.5,131.8,105.2z
				 M128.6,105.2c0,0.5,0.1,0.9,0.3,1.2s0.5,0.4,0.9,0.4c0.4,0,0.7-0.1,0.9-0.4c0.2-0.3,0.3-0.7,0.3-1.2c0-0.5-0.1-0.9-0.3-1.2
				c-0.2-0.3-0.5-0.4-0.9-0.4c-0.4,0-0.7,0.1-0.9,0.4C128.8,104.3,128.6,104.7,128.6,105.2z"/>
			<path d="M138,107.3h-3v-5.5h3v0.6h-2.4v1.8h2.3v0.6h-2.3v2h2.4V107.3z"/>
			<path d="M141.8,106.1c0,0.4-0.1,0.7-0.4,0.9c-0.3,0.2-0.7,0.3-1.2,0.3c-0.5,0-1-0.1-1.3-0.3v-0.6c0.2,0.1,0.4,0.2,0.6,0.2
				c0.2,0.1,0.4,0.1,0.7,0.1c0.3,0,0.6-0.1,0.7-0.2c0.2-0.1,0.3-0.3,0.3-0.5c0-0.2-0.1-0.3-0.2-0.4c-0.1-0.1-0.4-0.2-0.8-0.4
				c-0.4-0.1-0.7-0.3-0.8-0.4c-0.2-0.1-0.3-0.2-0.4-0.4c-0.1-0.1-0.1-0.3-0.1-0.5c0-0.3,0.1-0.6,0.4-0.8c0.3-0.2,0.6-0.3,1.1-0.3
				c0.4,0,0.9,0.1,1.3,0.3l-0.2,0.5c-0.4-0.2-0.8-0.3-1.1-0.3c-0.3,0-0.5,0-0.7,0.1c-0.1,0.1-0.2,0.2-0.2,0.4c0,0.1,0,0.2,0.1,0.3
				c0.1,0.1,0.1,0.2,0.3,0.2c0.1,0.1,0.4,0.2,0.7,0.3c0.5,0.2,0.8,0.4,1,0.5S141.8,105.9,141.8,106.1z"/>
			<path d="M144.4,107.3c-0.6,0-1.1-0.2-1.4-0.6c-0.3-0.4-0.5-0.9-0.5-1.6c0-0.7,0.2-1.2,0.5-1.6c0.3-0.4,0.8-0.6,1.4-0.6
				c0.2,0,0.4,0,0.6,0.1c0.2,0,0.4,0.1,0.5,0.2l-0.2,0.5c-0.1-0.1-0.3-0.1-0.4-0.1s-0.3-0.1-0.4-0.1c-0.8,0-1.2,0.5-1.2,1.6
				c0,0.5,0.1,0.9,0.3,1.2s0.5,0.4,0.9,0.4c0.3,0,0.7-0.1,1.1-0.2v0.6C145.2,107.3,144.8,107.3,144.4,107.3z"/>
			<path d="M147,103.1v2.7c0,0.3,0.1,0.6,0.2,0.8c0.2,0.2,0.4,0.2,0.7,0.2c0.4,0,0.7-0.1,0.9-0.4s0.3-0.6,0.3-1.2v-2.2h0.6v4.1h-0.5
				l-0.1-0.6h0c-0.1,0.2-0.3,0.4-0.5,0.5c-0.2,0.1-0.5,0.2-0.8,0.2c-0.5,0-0.9-0.1-1.1-0.4s-0.4-0.6-0.4-1.1v-2.7H147z"/>
			<path d="M152.8,107.3c-0.6,0-1.1-0.2-1.4-0.6c-0.3-0.4-0.5-0.9-0.5-1.5c0-0.7,0.2-1.2,0.5-1.6s0.8-0.6,1.3-0.6
				c0.5,0,0.9,0.2,1.2,0.5s0.4,0.8,0.4,1.3v0.4h-2.8c0,0.5,0.1,0.9,0.4,1.1c0.2,0.3,0.6,0.4,1,0.4c0.4,0,0.9-0.1,1.3-0.3v0.6
				c-0.2,0.1-0.4,0.2-0.6,0.2C153.4,107.3,153.1,107.3,152.8,107.3z M152.7,103.6c-0.3,0-0.6,0.1-0.8,0.3c-0.2,0.2-0.3,0.5-0.3,0.9
				h2.1c0-0.4-0.1-0.7-0.3-0.9C153.2,103.7,153,103.6,152.7,103.6z"/>
			<path d="M156,107.3h-0.6v-5.8h0.6V107.3z"/>
			<path d="M159.9,107.3l-0.1-0.6h0c-0.2,0.3-0.4,0.4-0.6,0.5s-0.5,0.1-0.8,0.1c-0.4,0-0.7-0.1-1-0.3c-0.2-0.2-0.3-0.5-0.3-0.9
				c0-0.8,0.7-1.3,2-1.3l0.7,0v-0.3c0-0.3-0.1-0.6-0.2-0.7c-0.1-0.2-0.4-0.2-0.7-0.2c-0.3,0-0.7,0.1-1.2,0.3l-0.2-0.5
				c0.2-0.1,0.4-0.2,0.7-0.3c0.2-0.1,0.5-0.1,0.7-0.1c0.5,0,0.9,0.1,1.1,0.3c0.2,0.2,0.4,0.6,0.4,1v2.8H159.9z M158.5,106.8
				c0.4,0,0.7-0.1,0.9-0.3s0.3-0.5,0.3-0.9v-0.4l-0.6,0c-0.5,0-0.8,0.1-1.1,0.2c-0.2,0.1-0.3,0.3-0.3,0.6c0,0.2,0.1,0.4,0.2,0.5
				S158.2,106.8,158.5,106.8z"/>
			<path d="M166.4,106.7L166.4,106.7c-0.3,0.4-0.7,0.6-1.3,0.6c-0.5,0-1-0.2-1.3-0.6s-0.4-0.9-0.4-1.6s0.2-1.2,0.4-1.6
				c0.3-0.4,0.7-0.6,1.2-0.6c0.6,0,1,0.2,1.3,0.6h0l0-0.3l0-0.3v-1.7h0.6v5.8h-0.5L166.4,106.7z M165.1,106.8c0.4,0,0.7-0.1,0.9-0.3
				c0.2-0.2,0.3-0.6,0.3-1.1v-0.1c0-0.6-0.1-1-0.3-1.2c-0.2-0.2-0.5-0.4-0.9-0.4c-0.4,0-0.6,0.1-0.8,0.4s-0.3,0.7-0.3,1.2
				c0,0.5,0.1,0.9,0.3,1.2S164.8,106.8,165.1,106.8z"/>
			<path d="M170,107.3c-0.6,0-1.1-0.2-1.4-0.6c-0.3-0.4-0.5-0.9-0.5-1.5c0-0.7,0.2-1.2,0.5-1.6s0.8-0.6,1.3-0.6
				c0.5,0,0.9,0.2,1.2,0.5s0.4,0.8,0.4,1.3v0.4h-2.8c0,0.5,0.1,0.9,0.4,1.1c0.2,0.3,0.6,0.4,1,0.4c0.4,0,0.9-0.1,1.3-0.3v0.6
				c-0.2,0.1-0.4,0.2-0.6,0.2C170.5,107.3,170.3,107.3,170,107.3z M169.9,103.6c-0.3,0-0.6,0.1-0.8,0.3c-0.2,0.2-0.3,0.5-0.3,0.9
				h2.1c0-0.4-0.1-0.7-0.3-0.9C170.4,103.7,170.2,103.6,169.9,103.6z"/>
			<path d="M179.4,104.5c0,0.9-0.2,1.6-0.7,2.1s-1.1,0.8-1.8,0.8c-0.8,0-1.4-0.2-1.9-0.7s-0.7-1.2-0.7-2.1c0-0.9,0.2-1.6,0.7-2.1
				c0.4-0.5,1.1-0.7,1.9-0.7c0.8,0,1.4,0.3,1.8,0.8S179.4,103.6,179.4,104.5z M175.1,104.5c0,0.7,0.2,1.3,0.5,1.7
				c0.3,0.4,0.8,0.6,1.4,0.6c0.6,0,1.1-0.2,1.4-0.6c0.3-0.4,0.5-0.9,0.5-1.7c0-0.7-0.2-1.3-0.5-1.7c-0.3-0.4-0.8-0.6-1.4-0.6
				c-0.6,0-1.1,0.2-1.4,0.6S175.1,103.8,175.1,104.5z"/>
			<path d="M182.4,103.6h-1v3.6h-0.6v-3.6H180v-0.3l0.7-0.2v-0.2c0-1,0.4-1.5,1.3-1.5c0.2,0,0.5,0,0.8,0.1l-0.2,0.5
				c-0.2-0.1-0.4-0.1-0.6-0.1c-0.2,0-0.4,0.1-0.5,0.2c-0.1,0.2-0.2,0.4-0.2,0.8v0.3h1V103.6z M183.1,102c0-0.1,0-0.2,0.1-0.3
				c0.1-0.1,0.2-0.1,0.3-0.1c0.1,0,0.2,0,0.3,0.1c0.1,0.1,0.1,0.2,0.1,0.3s0,0.2-0.1,0.3s-0.2,0.1-0.3,0.1c-0.1,0-0.2,0-0.3-0.1
				C183.1,102.3,183.1,102.2,183.1,102z M183.8,107.3h-0.6v-4.1h0.6V107.3z"/>
			<path d="M186.7,107.3c-0.6,0-1.1-0.2-1.4-0.6c-0.3-0.4-0.5-0.9-0.5-1.6c0-0.7,0.2-1.2,0.5-1.6c0.3-0.4,0.8-0.6,1.4-0.6
				c0.2,0,0.4,0,0.6,0.1c0.2,0,0.4,0.1,0.5,0.2l-0.2,0.5c-0.1-0.1-0.3-0.1-0.4-0.1s-0.3-0.1-0.4-0.1c-0.8,0-1.2,0.5-1.2,1.6
				c0,0.5,0.1,0.9,0.3,1.2s0.5,0.4,0.9,0.4c0.3,0,0.7-0.1,1.1-0.2v0.6C187.5,107.3,187.1,107.3,186.7,107.3z"/>
			<path d="M188.7,102c0-0.1,0-0.2,0.1-0.3c0.1-0.1,0.2-0.1,0.3-0.1c0.1,0,0.2,0,0.3,0.1c0.1,0.1,0.1,0.2,0.1,0.3s0,0.2-0.1,0.3
				s-0.2,0.1-0.3,0.1c-0.1,0-0.2,0-0.3-0.1C188.7,102.3,188.7,102.2,188.7,102z M189.3,107.3h-0.6v-4.1h0.6V107.3z"/>
			<path d="M193.2,107.3l-0.1-0.6h0c-0.2,0.3-0.4,0.4-0.6,0.5s-0.5,0.1-0.8,0.1c-0.4,0-0.7-0.1-1-0.3c-0.2-0.2-0.3-0.5-0.3-0.9
				c0-0.8,0.7-1.3,2-1.3l0.7,0v-0.3c0-0.3-0.1-0.6-0.2-0.7c-0.1-0.2-0.4-0.2-0.7-0.2c-0.3,0-0.7,0.1-1.2,0.3l-0.2-0.5
				c0.2-0.1,0.4-0.2,0.7-0.3c0.2-0.1,0.5-0.1,0.7-0.1c0.5,0,0.9,0.1,1.1,0.3c0.2,0.2,0.4,0.6,0.4,1v2.8H193.2z M191.8,106.8
				c0.4,0,0.7-0.1,0.9-0.3s0.3-0.5,0.3-0.9v-0.4l-0.6,0c-0.5,0-0.8,0.1-1.1,0.2c-0.2,0.1-0.3,0.3-0.3,0.6c0,0.2,0.1,0.4,0.2,0.5
				S191.5,106.8,191.8,106.8z"/>
			<path d="M195.5,107.3h-0.6v-5.8h0.6V107.3z"/>
			<path d="M198.6,107.3c-0.6,0-1.1-0.2-1.4-0.6c-0.3-0.4-0.5-0.9-0.5-1.5c0-0.7,0.2-1.2,0.5-1.6s0.8-0.6,1.3-0.6
				c0.5,0,0.9,0.2,1.2,0.5s0.4,0.8,0.4,1.3v0.4h-2.8c0,0.5,0.1,0.9,0.4,1.1c0.2,0.3,0.6,0.4,1,0.4c0.4,0,0.9-0.1,1.3-0.3v0.6
				c-0.2,0.1-0.4,0.2-0.6,0.2C199.1,107.3,198.9,107.3,198.6,107.3z M198.4,103.6c-0.3,0-0.6,0.1-0.8,0.3c-0.2,0.2-0.3,0.5-0.3,0.9
				h2.1c0-0.4-0.1-0.7-0.3-0.9C199,103.7,198.7,103.6,198.4,103.6z"/>
			<path d="M203.8,106.1c0,0.4-0.1,0.7-0.4,0.9c-0.3,0.2-0.7,0.3-1.2,0.3c-0.5,0-1-0.1-1.3-0.3v-0.6c0.2,0.1,0.4,0.2,0.6,0.2
				c0.2,0.1,0.4,0.1,0.7,0.1c0.3,0,0.6-0.1,0.7-0.2c0.2-0.1,0.3-0.3,0.3-0.5c0-0.2-0.1-0.3-0.2-0.4c-0.1-0.1-0.4-0.2-0.8-0.4
				c-0.4-0.1-0.7-0.3-0.8-0.4c-0.2-0.1-0.3-0.2-0.4-0.4c-0.1-0.1-0.1-0.3-0.1-0.5c0-0.3,0.1-0.6,0.4-0.8c0.3-0.2,0.6-0.3,1.1-0.3
				c0.4,0,0.9,0.1,1.3,0.3l-0.2,0.5c-0.4-0.2-0.8-0.3-1.1-0.3c-0.3,0-0.5,0-0.7,0.1c-0.1,0.1-0.2,0.2-0.2,0.4c0,0.1,0,0.2,0.1,0.3
				c0.1,0.1,0.1,0.2,0.3,0.2c0.1,0.1,0.4,0.2,0.7,0.3c0.5,0.2,0.8,0.4,1,0.5S203.8,105.9,203.8,106.1z"/>
			<path d="M206.4,105.2c0-0.7,0.1-1.3,0.3-1.9s0.5-1.1,0.8-1.5h0.6c-0.4,0.5-0.6,1-0.8,1.6c-0.2,0.6-0.3,1.2-0.3,1.8
				c0,0.6,0.1,1.2,0.3,1.8c0.2,0.6,0.5,1.1,0.8,1.6h-0.6c-0.4-0.4-0.6-0.9-0.8-1.5C206.5,106.4,206.4,105.8,206.4,105.2z"/>
			<path d="M212.6,107.3l-0.7-1.7h-2.2l-0.7,1.7h-0.6l2.2-5.5h0.5l2.2,5.5H212.6z M211.7,104.9l-0.6-1.7c-0.1-0.2-0.2-0.5-0.3-0.8
				c-0.1,0.2-0.1,0.5-0.2,0.8l-0.6,1.7H211.7z"/>
			<path d="M217,107.3h-3v-5.5h3v0.6h-2.4v1.8h2.3v0.6h-2.3v2h2.4V107.3z"/>
			<path d="M223,104.5c0,0.9-0.2,1.6-0.7,2.1s-1.1,0.8-1.8,0.8c-0.8,0-1.4-0.2-1.9-0.7s-0.7-1.2-0.7-2.1c0-0.9,0.2-1.6,0.7-2.1
				c0.4-0.5,1.1-0.7,1.9-0.7c0.8,0,1.4,0.3,1.8,0.8S223,103.6,223,104.5z M218.7,104.5c0,0.7,0.2,1.3,0.5,1.7
				c0.3,0.4,0.8,0.6,1.4,0.6c0.6,0,1.1-0.2,1.4-0.6c0.3-0.4,0.5-0.9,0.5-1.7c0-0.7-0.2-1.3-0.5-1.7c-0.3-0.4-0.8-0.6-1.4-0.6
				c-0.6,0-1.1,0.2-1.4,0.6S218.7,103.8,218.7,104.5z"/>
			<path d="M224.9,107.3h-0.6v-5.5h3v0.6h-2.4v2h2.3v0.6h-2.3V107.3z"/>
			<path d="M229.4,105.2c0,0.7-0.1,1.3-0.3,1.8c-0.2,0.6-0.5,1.1-0.8,1.5h-0.6c0.3-0.5,0.6-1,0.8-1.6c0.2-0.6,0.3-1.2,0.3-1.8
				c0-0.6-0.1-1.2-0.3-1.8c-0.2-0.6-0.5-1.1-0.8-1.6h0.6c0.4,0.4,0.6,0.9,0.8,1.5C229.3,103.9,229.4,104.5,229.4,105.2z"/>
			<path d="M79.6,113.7c0,0.9-0.2,1.6-0.7,2.1c-0.5,0.5-1.2,0.7-2.1,0.7h-1.5V111H77c0.9,0,1.5,0.2,2,0.7
				C79.4,112.2,79.6,112.8,79.6,113.7z M79,113.7c0-0.7-0.2-1.3-0.5-1.6s-0.9-0.5-1.6-0.5h-0.9v4.4h0.8c0.8,0,1.3-0.2,1.7-0.6
				C78.8,115,79,114.5,79,113.7z"/>
			<path d="M82.5,116.6c-0.6,0-1.1-0.2-1.4-0.6c-0.4-0.4-0.5-0.9-0.5-1.5c0-0.7,0.2-1.2,0.5-1.6c0.3-0.4,0.8-0.6,1.3-0.6
				c0.5,0,0.9,0.2,1.2,0.5s0.4,0.8,0.4,1.3v0.4h-2.8c0,0.5,0.1,0.9,0.4,1.1c0.2,0.3,0.6,0.4,1,0.4c0.4,0,0.9-0.1,1.3-0.3v0.6
				c-0.2,0.1-0.4,0.2-0.6,0.2C83,116.5,82.8,116.6,82.5,116.6z M82.3,112.8c-0.3,0-0.6,0.1-0.8,0.3c-0.2,0.2-0.3,0.5-0.3,0.9h2.1
				c0-0.4-0.1-0.7-0.3-0.9C82.9,112.9,82.7,112.8,82.3,112.8z"/>
			<path d="M87,116.6c-0.3,0-0.5,0-0.7-0.1s-0.4-0.3-0.6-0.5h0c0,0.2,0,0.5,0,0.7v1.7h-0.6v-6h0.5l0.1,0.6h0
				c0.2-0.2,0.3-0.4,0.6-0.5c0.2-0.1,0.5-0.2,0.7-0.2c0.5,0,1,0.2,1.3,0.6s0.4,0.9,0.4,1.6c0,0.7-0.1,1.2-0.5,1.6
				C87.9,116.4,87.5,116.6,87,116.6z M86.9,112.8c-0.4,0-0.7,0.1-0.9,0.3c-0.2,0.2-0.3,0.6-0.3,1.1v0.1c0,0.6,0.1,1,0.3,1.2
				c0.2,0.2,0.5,0.4,0.9,0.4c0.4,0,0.6-0.1,0.8-0.4s0.3-0.7,0.3-1.2c0-0.5-0.1-0.9-0.3-1.2C87.5,113,87.2,112.8,86.9,112.8z"/>
			<path d="M89.7,116.1c0-0.2,0-0.3,0.1-0.4c0.1-0.1,0.2-0.1,0.3-0.1c0.1,0,0.3,0,0.3,0.1c0.1,0.1,0.1,0.2,0.1,0.4
				c0,0.2,0,0.3-0.1,0.4c-0.1,0.1-0.2,0.1-0.3,0.1c-0.1,0-0.2,0-0.3-0.1C89.7,116.4,89.7,116.3,89.7,116.1z"/>
			<path d="M97.3,116.5l-0.7-1.7h-2.2l-0.7,1.7h-0.6l2.2-5.5h0.5l2.2,5.5H97.3z M96.4,114.2l-0.6-1.7c-0.1-0.2-0.2-0.5-0.3-0.8
				c-0.1,0.2-0.1,0.5-0.2,0.8l-0.6,1.7H96.4z"/>
			<path d="M100.3,116.6c-0.6,0-1.1-0.2-1.4-0.6c-0.3-0.4-0.5-0.9-0.5-1.6c0-0.7,0.2-1.2,0.5-1.6c0.3-0.4,0.8-0.6,1.4-0.6
				c0.2,0,0.4,0,0.6,0.1c0.2,0,0.4,0.1,0.5,0.2l-0.2,0.5c-0.1-0.1-0.3-0.1-0.4-0.1s-0.3-0.1-0.4-0.1c-0.8,0-1.2,0.5-1.2,1.6
				c0,0.5,0.1,0.9,0.3,1.2c0.2,0.3,0.5,0.4,0.9,0.4c0.3,0,0.7-0.1,1.1-0.2v0.6C101,116.5,100.7,116.6,100.3,116.6z"/>
			<path d="M104.8,116.5l-0.1-0.6h0c-0.2,0.3-0.4,0.4-0.6,0.5c-0.2,0.1-0.5,0.1-0.8,0.1c-0.4,0-0.7-0.1-1-0.3
				c-0.2-0.2-0.3-0.5-0.3-0.9c0-0.8,0.7-1.3,2-1.3l0.7,0v-0.3c0-0.3-0.1-0.6-0.2-0.7c-0.1-0.2-0.4-0.2-0.7-0.2
				c-0.3,0-0.7,0.1-1.2,0.3l-0.2-0.5c0.2-0.1,0.4-0.2,0.7-0.3c0.2-0.1,0.5-0.1,0.7-0.1c0.5,0,0.9,0.1,1.1,0.3c0.2,0.2,0.4,0.6,0.4,1
				v2.8H104.8z M103.4,116.1c0.4,0,0.7-0.1,0.9-0.3s0.3-0.5,0.3-0.9v-0.4l-0.6,0c-0.5,0-0.8,0.1-1.1,0.2s-0.3,0.3-0.3,0.6
				c0,0.2,0.1,0.4,0.2,0.5C103,116,103.2,116.1,103.4,116.1z"/>
			<path d="M109.3,115.9L109.3,115.9c-0.3,0.4-0.7,0.6-1.3,0.6c-0.5,0-1-0.2-1.3-0.6s-0.4-0.9-0.4-1.6s0.1-1.2,0.4-1.6
				c0.3-0.4,0.7-0.6,1.2-0.6c0.6,0,1,0.2,1.3,0.6h0l0-0.3l0-0.3v-1.7h0.6v5.8h-0.5L109.3,115.9z M108.1,116c0.4,0,0.7-0.1,0.9-0.3
				c0.2-0.2,0.3-0.6,0.3-1.1v-0.1c0-0.6-0.1-1-0.3-1.2c-0.2-0.2-0.5-0.4-0.9-0.4c-0.4,0-0.6,0.1-0.8,0.4c-0.2,0.3-0.3,0.7-0.3,1.2
				c0,0.5,0.1,0.9,0.3,1.2C107.4,115.9,107.7,116,108.1,116z"/>
			<path d="M113,116.6c-0.6,0-1.1-0.2-1.4-0.6c-0.4-0.4-0.5-0.9-0.5-1.5c0-0.7,0.2-1.2,0.5-1.6c0.3-0.4,0.8-0.6,1.3-0.6
				c0.5,0,0.9,0.2,1.2,0.5s0.4,0.8,0.4,1.3v0.4h-2.8c0,0.5,0.1,0.9,0.4,1.1c0.2,0.3,0.6,0.4,1,0.4c0.4,0,0.9-0.1,1.3-0.3v0.6
				c-0.2,0.1-0.4,0.2-0.6,0.2C113.5,116.5,113.2,116.6,113,116.6z M112.8,112.8c-0.3,0-0.6,0.1-0.8,0.3c-0.2,0.2-0.3,0.5-0.3,0.9
				h2.1c0-0.4-0.1-0.7-0.3-0.9C113.4,112.9,113.1,112.8,112.8,112.8z M112.3,111.7c0.1-0.2,0.2-0.3,0.4-0.6c0.1-0.2,0.2-0.4,0.3-0.6
				h0.8v0.1c-0.1,0.2-0.3,0.4-0.5,0.6c-0.2,0.2-0.4,0.4-0.6,0.6L112.3,111.7L112.3,111.7z"/>
			<path d="M120.8,116.5v-2.7c0-0.3-0.1-0.6-0.2-0.7s-0.4-0.2-0.7-0.2c-0.4,0-0.7,0.1-0.9,0.3c-0.2,0.2-0.3,0.6-0.3,1v2.3h-0.6v-2.7
				c0-0.3-0.1-0.6-0.2-0.7s-0.4-0.2-0.7-0.2c-0.4,0-0.7,0.1-0.9,0.4c-0.2,0.2-0.3,0.6-0.3,1.2v2.2h-0.6v-4.1h0.5l0.1,0.6h0
				c0.1-0.2,0.3-0.4,0.5-0.5c0.2-0.1,0.5-0.2,0.7-0.2c0.6,0,1.1,0.2,1.3,0.7h0c0.1-0.2,0.3-0.4,0.5-0.5s0.5-0.2,0.8-0.2
				c0.5,0,0.8,0.1,1,0.4s0.3,0.6,0.3,1.1v2.7H120.8z"/>
			<path d="M122.6,111.3c0-0.1,0-0.2,0.1-0.3s0.2-0.1,0.3-0.1c0.1,0,0.2,0,0.3,0.1s0.1,0.2,0.1,0.3s0,0.2-0.1,0.3
				c-0.1,0.1-0.2,0.1-0.3,0.1c-0.1,0-0.2,0-0.3-0.1C122.6,111.5,122.6,111.4,122.6,111.3z M123.3,116.5h-0.6v-4.1h0.6V116.5z"/>
			<path d="M126.2,116.6c-0.6,0-1.1-0.2-1.4-0.6c-0.3-0.4-0.5-0.9-0.5-1.6c0-0.7,0.2-1.2,0.5-1.6c0.3-0.4,0.8-0.6,1.4-0.6
				c0.2,0,0.4,0,0.6,0.1c0.2,0,0.4,0.1,0.5,0.2l-0.2,0.5c-0.1-0.1-0.3-0.1-0.4-0.1s-0.3-0.1-0.4-0.1c-0.8,0-1.2,0.5-1.2,1.6
				c0,0.5,0.1,0.9,0.3,1.2c0.2,0.3,0.5,0.4,0.9,0.4c0.3,0,0.7-0.1,1.1-0.2v0.6C127,116.5,126.6,116.6,126.2,116.6z"/>
			<path d="M131.8,114.4c0,0.7-0.2,1.2-0.5,1.6c-0.3,0.4-0.8,0.6-1.4,0.6c-0.4,0-0.7-0.1-1-0.3c-0.3-0.2-0.5-0.4-0.7-0.7
				c-0.2-0.3-0.2-0.7-0.2-1.1c0-0.7,0.2-1.2,0.5-1.6c0.3-0.4,0.8-0.6,1.4-0.6c0.6,0,1,0.2,1.4,0.6
				C131.6,113.3,131.8,113.8,131.8,114.4z M128.6,114.4c0,0.5,0.1,0.9,0.3,1.2s0.5,0.4,0.9,0.4c0.4,0,0.7-0.1,0.9-0.4
				c0.2-0.3,0.3-0.7,0.3-1.2c0-0.5-0.1-0.9-0.3-1.2c-0.2-0.3-0.5-0.4-0.9-0.4c-0.4,0-0.7,0.1-0.9,0.4
				C128.8,113.5,128.6,113.9,128.6,114.4z"/>
			<path d="M138,116.5h-3V111h3v0.6h-2.4v1.8h2.3v0.6h-2.3v2h2.4V116.5z"/>
			<path d="M141.8,115.4c0,0.4-0.1,0.7-0.4,0.9s-0.7,0.3-1.2,0.3c-0.5,0-1-0.1-1.3-0.3v-0.6c0.2,0.1,0.4,0.2,0.6,0.2
				c0.2,0.1,0.4,0.1,0.7,0.1c0.3,0,0.6-0.1,0.7-0.2c0.2-0.1,0.3-0.3,0.3-0.5c0-0.2-0.1-0.3-0.2-0.4c-0.1-0.1-0.4-0.2-0.8-0.4
				c-0.4-0.1-0.7-0.3-0.8-0.4c-0.2-0.1-0.3-0.2-0.4-0.4c-0.1-0.1-0.1-0.3-0.1-0.5c0-0.3,0.1-0.6,0.4-0.8c0.3-0.2,0.6-0.3,1.1-0.3
				c0.4,0,0.9,0.1,1.3,0.3l-0.2,0.5c-0.4-0.2-0.8-0.3-1.1-0.3c-0.3,0-0.5,0-0.7,0.1s-0.2,0.2-0.2,0.4c0,0.1,0,0.2,0.1,0.3
				c0.1,0.1,0.1,0.2,0.3,0.2c0.1,0.1,0.4,0.2,0.7,0.3c0.5,0.2,0.8,0.4,1,0.5C141.7,114.9,141.8,115.1,141.8,115.4z"/>
			<path d="M144.4,116.6c-0.6,0-1.1-0.2-1.4-0.6c-0.3-0.4-0.5-0.9-0.5-1.6c0-0.7,0.2-1.2,0.5-1.6c0.3-0.4,0.8-0.6,1.4-0.6
				c0.2,0,0.4,0,0.6,0.1c0.2,0,0.4,0.1,0.5,0.2l-0.2,0.5c-0.1-0.1-0.3-0.1-0.4-0.1s-0.3-0.1-0.4-0.1c-0.8,0-1.2,0.5-1.2,1.6
				c0,0.5,0.1,0.9,0.3,1.2s0.5,0.4,0.9,0.4c0.3,0,0.7-0.1,1.1-0.2v0.6C145.2,116.5,144.8,116.6,144.4,116.6z"/>
			<path d="M147,112.4v2.7c0,0.3,0.1,0.6,0.2,0.8c0.2,0.2,0.4,0.2,0.7,0.2c0.4,0,0.7-0.1,0.9-0.4s0.3-0.6,0.3-1.2v-2.2h0.6v4.1h-0.5
				l-0.1-0.6h0c-0.1,0.2-0.3,0.4-0.5,0.5c-0.2,0.1-0.5,0.2-0.8,0.2c-0.5,0-0.9-0.1-1.1-0.4c-0.2-0.2-0.4-0.6-0.4-1.1v-2.7H147z"/>
			<path d="M152.8,116.6c-0.6,0-1.1-0.2-1.4-0.6c-0.3-0.4-0.5-0.9-0.5-1.5c0-0.7,0.2-1.2,0.5-1.6s0.8-0.6,1.3-0.6
				c0.5,0,0.9,0.2,1.2,0.5s0.4,0.8,0.4,1.3v0.4h-2.8c0,0.5,0.1,0.9,0.4,1.1c0.2,0.3,0.6,0.4,1,0.4c0.4,0,0.9-0.1,1.3-0.3v0.6
				c-0.2,0.1-0.4,0.2-0.6,0.2C153.4,116.5,153.1,116.6,152.8,116.6z M152.7,112.8c-0.3,0-0.6,0.1-0.8,0.3c-0.2,0.2-0.3,0.5-0.3,0.9
				h2.1c0-0.4-0.1-0.7-0.3-0.9C153.2,112.9,153,112.8,152.7,112.8z"/>
			<path d="M156,116.5h-0.6v-5.8h0.6V116.5z"/>
			<path d="M159.9,116.5l-0.1-0.6h0c-0.2,0.3-0.4,0.4-0.6,0.5c-0.2,0.1-0.5,0.1-0.8,0.1c-0.4,0-0.7-0.1-1-0.3
				c-0.2-0.2-0.3-0.5-0.3-0.9c0-0.8,0.7-1.3,2-1.3l0.7,0v-0.3c0-0.3-0.1-0.6-0.2-0.7c-0.1-0.2-0.4-0.2-0.7-0.2
				c-0.3,0-0.7,0.1-1.2,0.3l-0.2-0.5c0.2-0.1,0.4-0.2,0.7-0.3c0.2-0.1,0.5-0.1,0.7-0.1c0.5,0,0.9,0.1,1.1,0.3c0.2,0.2,0.4,0.6,0.4,1
				v2.8H159.9z M158.5,116.1c0.4,0,0.7-0.1,0.9-0.3s0.3-0.5,0.3-0.9v-0.4l-0.6,0c-0.5,0-0.8,0.1-1.1,0.2c-0.2,0.1-0.3,0.3-0.3,0.6
				c0,0.2,0.1,0.4,0.2,0.5C158,116,158.2,116.1,158.5,116.1z"/>
			<path d="M166.4,115.9L166.4,115.9c-0.3,0.4-0.7,0.6-1.3,0.6c-0.5,0-1-0.2-1.3-0.6s-0.4-0.9-0.4-1.6s0.2-1.2,0.4-1.6
				c0.3-0.4,0.7-0.6,1.2-0.6c0.6,0,1,0.2,1.3,0.6h0l0-0.3l0-0.3v-1.7h0.6v5.8h-0.5L166.4,115.9z M165.1,116c0.4,0,0.7-0.1,0.9-0.3
				c0.2-0.2,0.3-0.6,0.3-1.1v-0.1c0-0.6-0.1-1-0.3-1.2c-0.2-0.2-0.5-0.4-0.9-0.4c-0.4,0-0.6,0.1-0.8,0.4s-0.3,0.7-0.3,1.2
				c0,0.5,0.1,0.9,0.3,1.2C164.5,115.9,164.8,116,165.1,116z"/>
			<path d="M170,116.6c-0.6,0-1.1-0.2-1.4-0.6c-0.3-0.4-0.5-0.9-0.5-1.5c0-0.7,0.2-1.2,0.5-1.6s0.8-0.6,1.3-0.6
				c0.5,0,0.9,0.2,1.2,0.5s0.4,0.8,0.4,1.3v0.4h-2.8c0,0.5,0.1,0.9,0.4,1.1c0.2,0.3,0.6,0.4,1,0.4c0.4,0,0.9-0.1,1.3-0.3v0.6
				c-0.2,0.1-0.4,0.2-0.6,0.2C170.5,116.5,170.3,116.6,170,116.6z M169.9,112.8c-0.3,0-0.6,0.1-0.8,0.3c-0.2,0.2-0.3,0.5-0.3,0.9
				h2.1c0-0.4-0.1-0.7-0.3-0.9C170.4,112.9,170.2,112.8,169.9,112.8z"/>
			<path d="M177.8,115c0,0.5-0.2,0.9-0.5,1.1s-0.8,0.4-1.4,0.4c-0.6,0-1.1-0.1-1.5-0.3v-0.6c0.2,0.1,0.5,0.2,0.7,0.2
				c0.3,0.1,0.5,0.1,0.8,0.1c0.4,0,0.7-0.1,1-0.2c0.2-0.2,0.3-0.4,0.3-0.7c0-0.2,0-0.3-0.1-0.5c-0.1-0.1-0.2-0.2-0.4-0.3
				c-0.2-0.1-0.4-0.2-0.8-0.3c-0.5-0.2-0.9-0.4-1.1-0.7c-0.2-0.2-0.3-0.6-0.3-1c0-0.4,0.2-0.8,0.5-1c0.3-0.3,0.7-0.4,1.3-0.4
				c0.5,0,1,0.1,1.5,0.3l-0.2,0.6c-0.5-0.2-0.9-0.3-1.3-0.3c-0.3,0-0.6,0.1-0.8,0.2s-0.3,0.3-0.3,0.6c0,0.2,0,0.3,0.1,0.5
				c0.1,0.1,0.2,0.2,0.4,0.3c0.2,0.1,0.4,0.2,0.8,0.3c0.6,0.2,1,0.4,1.2,0.7S177.8,114.7,177.8,115z"/>
			<path d="M179.4,112.4v2.7c0,0.3,0.1,0.6,0.2,0.8c0.2,0.2,0.4,0.2,0.7,0.2c0.4,0,0.7-0.1,0.9-0.4s0.3-0.6,0.3-1.2v-2.2h0.6v4.1
				h-0.5l-0.1-0.6h0c-0.1,0.2-0.3,0.4-0.5,0.5c-0.2,0.1-0.5,0.2-0.8,0.2c-0.5,0-0.9-0.1-1.1-0.4c-0.2-0.2-0.4-0.6-0.4-1.1v-2.7
				H179.4z"/>
			<path d="M185.4,112.3c0.5,0,1,0.2,1.3,0.6s0.4,0.9,0.4,1.6s-0.2,1.2-0.5,1.6c-0.3,0.4-0.7,0.6-1.3,0.6c-0.3,0-0.5,0-0.7-0.1
				s-0.4-0.3-0.6-0.5h0l-0.1,0.5h-0.4v-5.8h0.6v1.4c0,0.3,0,0.6,0,0.9h0C184.4,112.5,184.8,112.3,185.4,112.3z M185.3,112.8
				c-0.4,0-0.7,0.1-0.9,0.4c-0.2,0.2-0.3,0.7-0.3,1.2s0.1,1,0.3,1.2c0.2,0.2,0.5,0.4,0.9,0.4c0.4,0,0.7-0.1,0.9-0.4
				c0.2-0.3,0.3-0.7,0.3-1.2c0-0.5-0.1-0.9-0.3-1.2C186,113,185.7,112.8,185.3,112.8z"/>
			<path d="M191.7,114.4c0,0.7-0.2,1.2-0.5,1.6s-0.8,0.6-1.4,0.6c-0.4,0-0.7-0.1-1-0.3c-0.3-0.2-0.5-0.4-0.7-0.7s-0.2-0.7-0.2-1.1
				c0-0.7,0.2-1.2,0.5-1.6c0.3-0.4,0.8-0.6,1.4-0.6c0.6,0,1,0.2,1.4,0.6C191.5,113.3,191.7,113.8,191.7,114.4z M188.6,114.4
				c0,0.5,0.1,0.9,0.3,1.2c0.2,0.3,0.5,0.4,0.9,0.4s0.7-0.1,0.9-0.4c0.2-0.3,0.3-0.7,0.3-1.2c0-0.5-0.1-0.9-0.3-1.2
				c-0.2-0.3-0.5-0.4-0.9-0.4c-0.4,0-0.7,0.1-0.9,0.4C188.7,113.5,188.6,113.9,188.6,114.4z"/>
			<path d="M194.6,112.9h-1v3.6H193v-3.6h-0.7v-0.3l0.7-0.2v-0.2c0-1,0.4-1.5,1.3-1.5c0.2,0,0.5,0,0.8,0.1l-0.2,0.5
				c-0.2-0.1-0.4-0.1-0.6-0.1c-0.2,0-0.4,0.1-0.5,0.2s-0.2,0.4-0.2,0.8v0.3h1V112.9z M195.3,111.3c0-0.1,0-0.2,0.1-0.3
				c0.1-0.1,0.2-0.1,0.3-0.1c0.1,0,0.2,0,0.3,0.1s0.1,0.2,0.1,0.3s0,0.2-0.1,0.3c-0.1,0.1-0.2,0.1-0.3,0.1c-0.1,0-0.2,0-0.3-0.1
				C195.4,111.5,195.3,111.4,195.3,111.3z M196,116.5h-0.6v-4.1h0.6V116.5z"/>
			<path d="M199,116.6c-0.6,0-1.1-0.2-1.4-0.6c-0.3-0.4-0.5-0.9-0.5-1.6c0-0.7,0.2-1.2,0.5-1.6c0.3-0.4,0.8-0.6,1.4-0.6
				c0.2,0,0.4,0,0.6,0.1c0.2,0,0.4,0.1,0.5,0.2l-0.2,0.5c-0.1-0.1-0.3-0.1-0.4-0.1s-0.3-0.1-0.4-0.1c-0.8,0-1.2,0.5-1.2,1.6
				c0,0.5,0.1,0.9,0.3,1.2s0.5,0.4,0.9,0.4c0.3,0,0.7-0.1,1.1-0.2v0.6C199.7,116.5,199.4,116.6,199,116.6z"/>
			<path d="M200.9,111.3c0-0.1,0-0.2,0.1-0.3c0.1-0.1,0.2-0.1,0.3-0.1c0.1,0,0.2,0,0.3,0.1s0.1,0.2,0.1,0.3s0,0.2-0.1,0.3
				c-0.1,0.1-0.2,0.1-0.3,0.1c-0.1,0-0.2,0-0.3-0.1C201,111.5,200.9,111.4,200.9,111.3z M201.6,116.5H201v-4.1h0.6V116.5z"/>
			<path d="M205.4,116.5l-0.1-0.6h0c-0.2,0.3-0.4,0.4-0.6,0.5c-0.2,0.1-0.5,0.1-0.8,0.1c-0.4,0-0.7-0.1-1-0.3
				c-0.2-0.2-0.3-0.5-0.3-0.9c0-0.8,0.7-1.3,2-1.3l0.7,0v-0.3c0-0.3-0.1-0.6-0.2-0.7c-0.1-0.2-0.4-0.2-0.7-0.2
				c-0.3,0-0.7,0.1-1.2,0.3l-0.2-0.5c0.2-0.1,0.4-0.2,0.7-0.3c0.2-0.1,0.5-0.1,0.7-0.1c0.5,0,0.9,0.1,1.1,0.3c0.2,0.2,0.4,0.6,0.4,1
				v2.8H205.4z M204,116.1c0.4,0,0.7-0.1,0.9-0.3s0.3-0.5,0.3-0.9v-0.4l-0.6,0c-0.5,0-0.8,0.1-1.1,0.2c-0.2,0.1-0.3,0.3-0.3,0.6
				c0,0.2,0.1,0.4,0.2,0.5C203.6,116,203.8,116.1,204,116.1z"/>
			<path d="M207.8,116.5h-0.6v-5.8h0.6V116.5z"/>
			<path d="M210.8,116.6c-0.6,0-1.1-0.2-1.4-0.6c-0.3-0.4-0.5-0.9-0.5-1.5c0-0.7,0.2-1.2,0.5-1.6s0.8-0.6,1.3-0.6
				c0.5,0,0.9,0.2,1.2,0.5s0.4,0.8,0.4,1.3v0.4h-2.8c0,0.5,0.1,0.9,0.4,1.1c0.2,0.3,0.6,0.4,1,0.4c0.4,0,0.9-0.1,1.3-0.3v0.6
				c-0.2,0.1-0.4,0.2-0.6,0.2C211.4,116.5,211.1,116.6,210.8,116.6z M210.7,112.8c-0.3,0-0.6,0.1-0.8,0.3c-0.2,0.2-0.3,0.5-0.3,0.9
				h2.1c0-0.4-0.1-0.7-0.3-0.9C211.2,112.9,211,112.8,210.7,112.8z"/>
			<path d="M216.1,115.4c0,0.4-0.1,0.7-0.4,0.9s-0.7,0.3-1.2,0.3c-0.5,0-1-0.1-1.3-0.3v-0.6c0.2,0.1,0.4,0.2,0.6,0.2
				c0.2,0.1,0.4,0.1,0.7,0.1c0.3,0,0.6-0.1,0.7-0.2c0.2-0.1,0.3-0.3,0.3-0.5c0-0.2-0.1-0.3-0.2-0.4c-0.1-0.1-0.4-0.2-0.8-0.4
				c-0.4-0.1-0.7-0.3-0.8-0.4c-0.2-0.1-0.3-0.2-0.4-0.4c-0.1-0.1-0.1-0.3-0.1-0.5c0-0.3,0.1-0.6,0.4-0.8c0.3-0.2,0.6-0.3,1.1-0.3
				c0.4,0,0.9,0.1,1.3,0.3l-0.2,0.5c-0.4-0.2-0.8-0.3-1.1-0.3c-0.3,0-0.5,0-0.7,0.1s-0.2,0.2-0.2,0.4c0,0.1,0,0.2,0.1,0.3
				c0.1,0.1,0.1,0.2,0.3,0.2c0.1,0.1,0.4,0.2,0.7,0.3c0.5,0.2,0.8,0.4,1,0.5C216,114.9,216.1,115.1,216.1,115.4z"/>
			<path d="M218.7,114.4c0-0.7,0.1-1.3,0.3-1.9c0.2-0.6,0.5-1.1,0.8-1.5h0.6c-0.4,0.5-0.6,1-0.8,1.6c-0.2,0.6-0.3,1.2-0.3,1.8
				c0,0.6,0.1,1.2,0.3,1.8c0.2,0.6,0.5,1.1,0.8,1.6h-0.6c-0.4-0.4-0.6-0.9-0.8-1.5C218.8,115.6,218.7,115,218.7,114.4z"/>
			<path d="M224.9,116.5l-0.7-1.7H222l-0.7,1.7h-0.6l2.2-5.5h0.5l2.2,5.5H224.9z M224,114.2l-0.6-1.7c-0.1-0.2-0.2-0.5-0.3-0.8
				c-0.1,0.2-0.1,0.5-0.2,0.8l-0.6,1.7H224z"/>
			<path d="M229.3,116.5h-3V111h3v0.6h-2.4v1.8h2.3v0.6h-2.3v2h2.4V116.5z"/>
			<path d="M233.6,115c0,0.5-0.2,0.9-0.5,1.1s-0.8,0.4-1.4,0.4c-0.6,0-1.1-0.1-1.5-0.3v-0.6c0.2,0.1,0.5,0.2,0.7,0.2
				c0.3,0.1,0.5,0.1,0.8,0.1c0.4,0,0.7-0.1,1-0.2c0.2-0.2,0.3-0.4,0.3-0.7c0-0.2,0-0.3-0.1-0.5c-0.1-0.1-0.2-0.2-0.4-0.3
				c-0.2-0.1-0.4-0.2-0.8-0.3c-0.5-0.2-0.9-0.4-1.1-0.7c-0.2-0.2-0.3-0.6-0.3-1c0-0.4,0.2-0.8,0.5-1c0.3-0.3,0.7-0.4,1.3-0.4
				c0.5,0,1,0.1,1.5,0.3l-0.2,0.6c-0.5-0.2-0.9-0.3-1.3-0.3c-0.3,0-0.6,0.1-0.8,0.2s-0.3,0.3-0.3,0.6c0,0.2,0,0.3,0.1,0.5
				c0.1,0.1,0.2,0.2,0.4,0.3c0.2,0.1,0.4,0.2,0.8,0.3c0.6,0.2,1,0.4,1.2,0.7S233.6,114.7,233.6,115z"/>
			<path d="M238.9,111v3.6c0,0.6-0.2,1.1-0.6,1.5c-0.4,0.4-0.9,0.5-1.6,0.5s-1.2-0.2-1.5-0.5s-0.5-0.9-0.5-1.5V111h0.6v3.6
				c0,0.5,0.1,0.8,0.4,1.1c0.2,0.2,0.6,0.4,1.1,0.4c0.5,0,0.8-0.1,1.1-0.4c0.2-0.2,0.4-0.6,0.4-1.1V111H238.9z"/>
			<path d="M241.5,114.4c0,0.7-0.1,1.3-0.3,1.8s-0.5,1.1-0.8,1.5h-0.6c0.3-0.5,0.6-1,0.8-1.6c0.2-0.6,0.3-1.2,0.3-1.8
				c0-0.6-0.1-1.2-0.3-1.8c-0.2-0.6-0.5-1.1-0.8-1.6h0.6c0.4,0.4,0.6,0.9,0.8,1.5C241.4,113.1,241.5,113.7,241.5,114.4z"/>
			<path d="M75.3,125.7v-5.5h0.6v5.5H75.3z"/>
			<path d="M80.1,125.7v-2.7c0-0.3-0.1-0.6-0.2-0.8c-0.2-0.2-0.4-0.2-0.7-0.2c-0.4,0-0.7,0.1-0.9,0.3c-0.2,0.2-0.3,0.6-0.3,1.2v2.2
				h-0.6v-4.1h0.5l0.1,0.6h0c0.1-0.2,0.3-0.4,0.5-0.5c0.2-0.1,0.5-0.2,0.8-0.2c0.5,0,0.9,0.1,1.1,0.4s0.4,0.6,0.4,1.1v2.7H80.1z"/>
			<path d="M84.7,124.6c0,0.4-0.1,0.7-0.4,0.9s-0.7,0.3-1.2,0.3c-0.5,0-1-0.1-1.3-0.3V125c0.2,0.1,0.4,0.2,0.6,0.2s0.4,0.1,0.7,0.1
				c0.3,0,0.6-0.1,0.7-0.2c0.2-0.1,0.3-0.3,0.3-0.5c0-0.2-0.1-0.3-0.2-0.4c-0.1-0.1-0.4-0.2-0.8-0.4c-0.4-0.1-0.7-0.3-0.8-0.4
				c-0.2-0.1-0.3-0.2-0.4-0.4c-0.1-0.1-0.1-0.3-0.1-0.5c0-0.3,0.1-0.6,0.4-0.8c0.3-0.2,0.6-0.3,1.1-0.3c0.4,0,0.9,0.1,1.3,0.3
				l-0.2,0.5c-0.4-0.2-0.8-0.3-1.1-0.3c-0.3,0-0.5,0-0.7,0.1c-0.1,0.1-0.2,0.2-0.2,0.4c0,0.1,0,0.2,0.1,0.3c0.1,0.1,0.1,0.2,0.3,0.2
				c0.1,0.1,0.4,0.2,0.7,0.3c0.5,0.2,0.8,0.4,1,0.5C84.6,124.1,84.7,124.3,84.7,124.6z"/>
			<path d="M87,125.3c0.1,0,0.2,0,0.3,0c0.1,0,0.2,0,0.2-0.1v0.5c-0.1,0-0.2,0.1-0.3,0.1s-0.2,0-0.4,0c-0.8,0-1.2-0.4-1.2-1.3v-2.4
				h-0.6v-0.3l0.6-0.3l0.3-0.9h0.4v1h1.2v0.5h-1.2v2.4c0,0.2,0.1,0.4,0.2,0.6S86.8,125.3,87,125.3z"/>
			<path d="M88.3,120.5c0-0.1,0-0.2,0.1-0.3s0.2-0.1,0.3-0.1c0.1,0,0.2,0,0.3,0.1s0.1,0.2,0.1,0.3s0,0.2-0.1,0.3
				c-0.1,0.1-0.2,0.1-0.3,0.1c-0.1,0-0.2,0-0.3-0.1C88.4,120.7,88.3,120.6,88.3,120.5z M89,125.7h-0.6v-4.1H89V125.7z"/>
			<path d="M91.6,125.3c0.1,0,0.2,0,0.3,0c0.1,0,0.2,0,0.2-0.1v0.5c-0.1,0-0.2,0.1-0.3,0.1s-0.2,0-0.4,0c-0.8,0-1.2-0.4-1.2-1.3
				v-2.4h-0.6v-0.3l0.6-0.3l0.3-0.9H91v1h1.2v0.5H91v2.4c0,0.2,0.1,0.4,0.2,0.6S91.4,125.3,91.6,125.3z"/>
			<path d="M93.6,121.6v2.7c0,0.3,0.1,0.6,0.2,0.8c0.2,0.2,0.4,0.2,0.7,0.2c0.4,0,0.7-0.1,0.9-0.4s0.3-0.6,0.3-1.2v-2.2h0.6v4.1
				h-0.5l-0.1-0.6h0c-0.1,0.2-0.3,0.4-0.5,0.5c-0.2,0.1-0.5,0.2-0.8,0.2c-0.5,0-0.9-0.1-1.1-0.4c-0.2-0.2-0.4-0.6-0.4-1.1v-2.7H93.6
				z"/>
			<path d="M99,125.3c0.1,0,0.2,0,0.3,0c0.1,0,0.2,0,0.2-0.1v0.5c-0.1,0-0.2,0.1-0.3,0.1s-0.2,0-0.4,0c-0.8,0-1.2-0.4-1.2-1.3v-2.4
				h-0.6v-0.3l0.6-0.3l0.3-0.9h0.4v1h1.2v0.5h-1.2v2.4c0,0.2,0.1,0.4,0.2,0.6S98.8,125.3,99,125.3z"/>
			<path d="M104,123.7c0,0.7-0.2,1.2-0.5,1.6c-0.3,0.4-0.8,0.6-1.4,0.6c-0.4,0-0.7-0.1-1-0.3c-0.3-0.2-0.5-0.4-0.7-0.7
				c-0.2-0.3-0.2-0.7-0.2-1.1c0-0.7,0.2-1.2,0.5-1.6c0.3-0.4,0.8-0.6,1.4-0.6c0.6,0,1,0.2,1.4,0.6C103.8,122.5,104,123,104,123.7z
				 M100.8,123.7c0,0.5,0.1,0.9,0.3,1.2s0.5,0.4,0.9,0.4c0.4,0,0.7-0.1,0.9-0.4c0.2-0.3,0.3-0.7,0.3-1.2c0-0.5-0.1-0.9-0.3-1.2
				c-0.2-0.3-0.5-0.4-0.9-0.4c-0.4,0-0.7,0.1-0.9,0.4C100.9,122.7,100.8,123.1,100.8,123.7z"/>
			<path d="M109.8,125.2L109.8,125.2c-0.3,0.4-0.7,0.6-1.3,0.6c-0.5,0-1-0.2-1.3-0.6s-0.4-0.9-0.4-1.6s0.1-1.2,0.4-1.6
				c0.3-0.4,0.7-0.6,1.2-0.6c0.6,0,1,0.2,1.3,0.6h0l0-0.3l0-0.3v-1.7h0.6v5.8h-0.5L109.8,125.2z M108.6,125.3c0.4,0,0.7-0.1,0.9-0.3
				c0.2-0.2,0.3-0.6,0.3-1.1v-0.1c0-0.6-0.1-1-0.3-1.2c-0.2-0.2-0.5-0.4-0.9-0.4c-0.4,0-0.6,0.1-0.8,0.4c-0.2,0.3-0.3,0.7-0.3,1.2
				c0,0.5,0.1,0.9,0.3,1.2C107.9,125.1,108.2,125.3,108.6,125.3z"/>
			<path d="M113.5,125.8c-0.6,0-1.1-0.2-1.4-0.6c-0.4-0.4-0.5-0.9-0.5-1.5c0-0.7,0.2-1.2,0.5-1.6c0.3-0.4,0.8-0.6,1.3-0.6
				c0.5,0,0.9,0.2,1.2,0.5s0.4,0.8,0.4,1.3v0.4h-2.8c0,0.5,0.1,0.9,0.4,1.1c0.2,0.3,0.6,0.4,1,0.4c0.4,0,0.9-0.1,1.3-0.3v0.6
				c-0.2,0.1-0.4,0.2-0.6,0.2C114,125.8,113.7,125.8,113.5,125.8z M113.3,122.1c-0.3,0-0.6,0.1-0.8,0.3c-0.2,0.2-0.3,0.5-0.3,0.9
				h2.1c0-0.4-0.1-0.7-0.3-0.9C113.9,122.2,113.6,122.1,113.3,122.1z"/>
			<path d="M118.7,125.7h-0.6v-5.5h3v0.6h-2.4v2h2.3v0.6h-2.3V125.7z"/>
			<path d="M125.5,123.7c0,0.7-0.2,1.2-0.5,1.6c-0.3,0.4-0.8,0.6-1.4,0.6c-0.4,0-0.7-0.1-1-0.3c-0.3-0.2-0.5-0.4-0.7-0.7
				c-0.2-0.3-0.2-0.7-0.2-1.1c0-0.7,0.2-1.2,0.5-1.6c0.3-0.4,0.8-0.6,1.4-0.6c0.6,0,1,0.2,1.4,0.6
				C125.3,122.5,125.5,123,125.5,123.7z M122.4,123.7c0,0.5,0.1,0.9,0.3,1.2s0.5,0.4,0.9,0.4c0.4,0,0.7-0.1,0.9-0.4
				c0.2-0.3,0.3-0.7,0.3-1.2c0-0.5-0.1-0.9-0.3-1.2c-0.2-0.3-0.5-0.4-0.9-0.4c-0.4,0-0.7,0.1-0.9,0.4
				C122.5,122.7,122.4,123.1,122.4,123.7z"/>
			<path d="M128.5,121.5c0.2,0,0.3,0,0.5,0l-0.1,0.6c-0.2,0-0.3-0.1-0.4-0.1c-0.3,0-0.6,0.1-0.9,0.4c-0.2,0.3-0.4,0.6-0.4,1v2.2
				h-0.6v-4.1h0.5l0.1,0.8h0c0.2-0.3,0.3-0.5,0.5-0.6S128.2,121.5,128.5,121.5z"/>
			<path d="M134.9,125.7V123c0-0.3-0.1-0.6-0.2-0.7s-0.4-0.2-0.7-0.2c-0.4,0-0.7,0.1-0.9,0.3c-0.2,0.2-0.3,0.6-0.3,1v2.3h-0.6V123
				c0-0.3-0.1-0.6-0.2-0.7s-0.4-0.2-0.7-0.2c-0.4,0-0.7,0.1-0.9,0.4s-0.3,0.6-0.3,1.2v2.2h-0.6v-4.1h0.5l0.1,0.6h0
				c0.1-0.2,0.3-0.4,0.5-0.5c0.2-0.1,0.5-0.2,0.7-0.2c0.6,0,1.1,0.2,1.3,0.7h0c0.1-0.2,0.3-0.4,0.5-0.5c0.2-0.1,0.5-0.2,0.8-0.2
				c0.5,0,0.8,0.1,1,0.4c0.2,0.2,0.3,0.6,0.3,1.1v2.7H134.9z"/>
			<path d="M139.4,125.7l-0.1-0.6h0c-0.2,0.3-0.4,0.4-0.6,0.5c-0.2,0.1-0.5,0.1-0.8,0.1c-0.4,0-0.7-0.1-1-0.3
				c-0.2-0.2-0.3-0.5-0.3-0.9c0-0.8,0.7-1.3,2-1.3l0.7,0V123c0-0.3-0.1-0.6-0.2-0.7c-0.1-0.2-0.4-0.2-0.7-0.2
				c-0.3,0-0.7,0.1-1.2,0.3l-0.2-0.5c0.2-0.1,0.4-0.2,0.7-0.3c0.2-0.1,0.5-0.1,0.7-0.1c0.5,0,0.9,0.1,1.1,0.3c0.2,0.2,0.4,0.6,0.4,1
				v2.8H139.4z M138,125.3c0.4,0,0.7-0.1,0.9-0.3s0.3-0.5,0.3-0.9v-0.4l-0.6,0c-0.5,0-0.8,0.1-1.1,0.2c-0.2,0.1-0.3,0.3-0.3,0.6
				c0,0.2,0.1,0.4,0.2,0.5C137.5,125.2,137.7,125.3,138,125.3z"/>
			<path d="M142.7,125.8c-0.6,0-1.1-0.2-1.4-0.6c-0.3-0.4-0.5-0.9-0.5-1.6c0-0.7,0.2-1.2,0.5-1.6c0.3-0.4,0.8-0.6,1.4-0.6
				c0.2,0,0.4,0,0.6,0.1c0.2,0,0.4,0.1,0.5,0.2l-0.2,0.5c-0.1-0.1-0.3-0.1-0.4-0.1s-0.3-0.1-0.4-0.1c-0.8,0-1.2,0.5-1.2,1.6
				c0,0.5,0.1,0.9,0.3,1.2s0.5,0.4,0.9,0.4c0.3,0,0.7-0.1,1.1-0.2v0.6C143.5,125.7,143.2,125.8,142.7,125.8z"/>
			<path d="M144.7,120.5c0-0.1,0-0.2,0.1-0.3c0.1-0.1,0.2-0.1,0.3-0.1c0.1,0,0.2,0,0.3,0.1s0.1,0.2,0.1,0.3s0,0.2-0.1,0.3
				c-0.1,0.1-0.2,0.1-0.3,0.1c-0.1,0-0.2,0-0.3-0.1C144.7,120.7,144.7,120.6,144.7,120.5z M145.4,125.7h-0.6v-4.1h0.6V125.7z"/>
			<path d="M150.2,123.7c0,0.7-0.2,1.2-0.5,1.6s-0.8,0.6-1.4,0.6c-0.4,0-0.7-0.1-1-0.3c-0.3-0.2-0.5-0.4-0.7-0.7s-0.2-0.7-0.2-1.1
				c0-0.7,0.2-1.2,0.5-1.6c0.3-0.4,0.8-0.6,1.4-0.6c0.6,0,1,0.2,1.4,0.6C150.1,122.5,150.2,123,150.2,123.7z M147.1,123.7
				c0,0.5,0.1,0.9,0.3,1.2c0.2,0.3,0.5,0.4,0.9,0.4s0.7-0.1,0.9-0.4c0.2-0.3,0.3-0.7,0.3-1.2c0-0.5-0.1-0.9-0.3-1.2
				c-0.2-0.3-0.5-0.4-0.9-0.4c-0.4,0-0.7,0.1-0.9,0.4C147.2,122.7,147.1,123.1,147.1,123.7z M147.8,121c0.1-0.2,0.2-0.3,0.4-0.6
				c0.1-0.2,0.2-0.4,0.3-0.6h0.8v0.1c-0.1,0.2-0.3,0.4-0.5,0.6c-0.2,0.2-0.4,0.4-0.6,0.6L147.8,121L147.8,121z"/>
			<path d="M154.1,125.7v-2.7c0-0.3-0.1-0.6-0.2-0.8c-0.2-0.2-0.4-0.2-0.7-0.2c-0.4,0-0.7,0.1-0.9,0.3c-0.2,0.2-0.3,0.6-0.3,1.2v2.2
				h-0.6v-4.1h0.5l0.1,0.6h0c0.1-0.2,0.3-0.4,0.5-0.5s0.5-0.2,0.8-0.2c0.5,0,0.9,0.1,1.1,0.4s0.4,0.6,0.4,1.1v2.7H154.1z"/>
			<path d="M156.7,124.8L156.7,124.8c0,0.3-0.1,0.6-0.2,1c-0.1,0.3-0.2,0.6-0.4,0.9h-0.5c0.1-0.3,0.1-0.6,0.2-1s0.1-0.7,0.2-0.9
				H156.7z"/>
			<path d="M162.3,120.7c-0.6,0-1.1,0.2-1.4,0.6s-0.5,1-0.5,1.7c0,0.7,0.2,1.3,0.5,1.7c0.3,0.4,0.8,0.6,1.4,0.6
				c0.4,0,0.8-0.1,1.3-0.2v0.6c-0.4,0.1-0.8,0.2-1.4,0.2c-0.8,0-1.4-0.2-1.9-0.7s-0.7-1.2-0.7-2.1c0-0.6,0.1-1.1,0.3-1.5
				c0.2-0.4,0.5-0.8,0.9-1c0.4-0.2,0.9-0.3,1.4-0.3c0.6,0,1.1,0.1,1.5,0.3l-0.3,0.5C163.1,120.8,162.7,120.7,162.3,120.7z"/>
			<path d="M167.2,125.7l-0.1-0.6h0c-0.2,0.3-0.4,0.4-0.6,0.5c-0.2,0.1-0.5,0.1-0.8,0.1c-0.4,0-0.7-0.1-1-0.3
				c-0.2-0.2-0.3-0.5-0.3-0.9c0-0.8,0.7-1.3,2-1.3l0.7,0V123c0-0.3-0.1-0.6-0.2-0.7c-0.1-0.2-0.4-0.2-0.7-0.2
				c-0.3,0-0.7,0.1-1.2,0.3l-0.2-0.5c0.2-0.1,0.4-0.2,0.7-0.3c0.2-0.1,0.5-0.1,0.7-0.1c0.5,0,0.9,0.1,1.1,0.3c0.2,0.2,0.4,0.6,0.4,1
				v2.8H167.2z M165.8,125.3c0.4,0,0.7-0.1,0.9-0.3s0.3-0.5,0.3-0.9v-0.4l-0.6,0c-0.5,0-0.8,0.1-1.1,0.2c-0.2,0.1-0.3,0.3-0.3,0.6
				c0,0.2,0.1,0.4,0.2,0.5C165.4,125.2,165.6,125.3,165.8,125.3z"/>
			<path d="M170.9,125.8c-0.3,0-0.5,0-0.7-0.1s-0.4-0.3-0.6-0.5h0c0,0.2,0,0.5,0,0.7v1.7H169v-6h0.5l0.1,0.6h0
				c0.2-0.2,0.3-0.4,0.6-0.5c0.2-0.1,0.5-0.2,0.7-0.2c0.5,0,1,0.2,1.3,0.6c0.3,0.4,0.4,0.9,0.4,1.6c0,0.7-0.2,1.2-0.5,1.6
				C171.8,125.6,171.4,125.8,170.9,125.8z M170.8,122.1c-0.4,0-0.7,0.1-0.9,0.3c-0.2,0.2-0.3,0.6-0.3,1.1v0.1c0,0.6,0.1,1,0.3,1.2
				c0.2,0.2,0.5,0.4,0.9,0.4c0.4,0,0.6-0.1,0.8-0.4c0.2-0.3,0.3-0.7,0.3-1.2c0-0.5-0.1-0.9-0.3-1.2
				C171.4,122.2,171.2,122.1,170.8,122.1z"/>
			<path d="M176.2,125.7l-0.1-0.6h0c-0.2,0.3-0.4,0.4-0.6,0.5c-0.2,0.1-0.5,0.1-0.8,0.1c-0.4,0-0.7-0.1-1-0.3
				c-0.2-0.2-0.3-0.5-0.3-0.9c0-0.8,0.7-1.3,2-1.3l0.7,0V123c0-0.3-0.1-0.6-0.2-0.7c-0.1-0.2-0.4-0.2-0.7-0.2
				c-0.3,0-0.7,0.1-1.2,0.3l-0.2-0.5c0.2-0.1,0.4-0.2,0.7-0.3c0.2-0.1,0.5-0.1,0.7-0.1c0.5,0,0.9,0.1,1.1,0.3c0.2,0.2,0.4,0.6,0.4,1
				v2.8H176.2z M174.8,125.3c0.4,0,0.7-0.1,0.9-0.3s0.3-0.5,0.3-0.9v-0.4l-0.6,0c-0.5,0-0.8,0.1-1.1,0.2c-0.2,0.1-0.3,0.3-0.3,0.6
				c0,0.2,0.1,0.4,0.2,0.5C174.4,125.2,174.5,125.3,174.8,125.3z"/>
			<path d="M179.6,125.8c-0.6,0-1.1-0.2-1.4-0.6c-0.3-0.4-0.5-0.9-0.5-1.6c0-0.7,0.2-1.2,0.5-1.6c0.3-0.4,0.8-0.6,1.4-0.6
				c0.2,0,0.4,0,0.6,0.1c0.2,0,0.4,0.1,0.5,0.2l-0.2,0.5c-0.1-0.1-0.3-0.1-0.4-0.1s-0.3-0.1-0.4-0.1c-0.8,0-1.2,0.5-1.2,1.6
				c0,0.5,0.1,0.9,0.3,1.2s0.5,0.4,0.9,0.4c0.3,0,0.7-0.1,1.1-0.2v0.6C180.3,125.7,180,125.8,179.6,125.8z"/>
			<path d="M181.5,120.5c0-0.1,0-0.2,0.1-0.3c0.1-0.1,0.2-0.1,0.3-0.1c0.1,0,0.2,0,0.3,0.1s0.1,0.2,0.1,0.3s0,0.2-0.1,0.3
				c-0.1,0.1-0.2,0.1-0.3,0.1c-0.1,0-0.2,0-0.3-0.1C181.6,120.7,181.5,120.6,181.5,120.5z M182.2,125.7h-0.6v-4.1h0.6V125.7z"/>
			<path d="M184.8,125.3c0.1,0,0.2,0,0.3,0c0.1,0,0.2,0,0.2-0.1v0.5c-0.1,0-0.2,0.1-0.3,0.1s-0.2,0-0.4,0c-0.8,0-1.2-0.4-1.2-1.3
				v-2.4H183v-0.3l0.6-0.3l0.3-0.9h0.4v1h1.2v0.5h-1.2v2.4c0,0.2,0.1,0.4,0.2,0.6S184.6,125.3,184.8,125.3z"/>
			<path d="M188.7,125.7l-0.1-0.6h0c-0.2,0.3-0.4,0.4-0.6,0.5c-0.2,0.1-0.5,0.1-0.8,0.1c-0.4,0-0.7-0.1-1-0.3
				c-0.2-0.2-0.3-0.5-0.3-0.9c0-0.8,0.7-1.3,2-1.3l0.7,0V123c0-0.3-0.1-0.6-0.2-0.7c-0.1-0.2-0.4-0.2-0.7-0.2
				c-0.3,0-0.7,0.1-1.2,0.3l-0.2-0.5c0.2-0.1,0.4-0.2,0.7-0.3c0.2-0.1,0.5-0.1,0.7-0.1c0.5,0,0.9,0.1,1.1,0.3c0.2,0.2,0.4,0.6,0.4,1
				v2.8H188.7z M187.3,125.3c0.4,0,0.7-0.1,0.9-0.3s0.3-0.5,0.3-0.9v-0.4l-0.6,0c-0.5,0-0.8,0.1-1.1,0.2c-0.2,0.1-0.3,0.3-0.3,0.6
				c0,0.2,0.1,0.4,0.2,0.5C186.9,125.2,187.1,125.3,187.3,125.3z"/>
			<path d="M192.1,125.8c-0.6,0-1.1-0.2-1.4-0.6c-0.3-0.4-0.5-0.9-0.5-1.6c0-0.7,0.2-1.2,0.5-1.6c0.3-0.4,0.8-0.6,1.4-0.6
				c0.2,0,0.4,0,0.6,0.1c0.2,0,0.4,0.1,0.5,0.2l-0.2,0.5c-0.1-0.1-0.3-0.1-0.4-0.1s-0.3-0.1-0.4-0.1c-0.8,0-1.2,0.5-1.2,1.6
				c0,0.5,0.1,0.9,0.3,1.2s0.5,0.4,0.9,0.4c0.3,0,0.7-0.1,1.1-0.2v0.6C192.9,125.7,192.5,125.8,192.1,125.8z"/>
			<path d="M194.1,120.5c0-0.1,0-0.2,0.1-0.3c0.1-0.1,0.2-0.1,0.3-0.1c0.1,0,0.2,0,0.3,0.1s0.1,0.2,0.1,0.3s0,0.2-0.1,0.3
				c-0.1,0.1-0.2,0.1-0.3,0.1c-0.1,0-0.2,0-0.3-0.1C194.1,120.7,194.1,120.6,194.1,120.5z M194.7,125.7h-0.6v-4.1h0.6V125.7z"/>
			<path d="M199.6,123.7c0,0.7-0.2,1.2-0.5,1.6s-0.8,0.6-1.4,0.6c-0.4,0-0.7-0.1-1-0.3c-0.3-0.2-0.5-0.4-0.7-0.7s-0.2-0.7-0.2-1.1
				c0-0.7,0.2-1.2,0.5-1.6c0.3-0.4,0.8-0.6,1.4-0.6c0.6,0,1,0.2,1.4,0.6C199.4,122.5,199.6,123,199.6,123.7z M196.5,123.7
				c0,0.5,0.1,0.9,0.3,1.2c0.2,0.3,0.5,0.4,0.9,0.4s0.7-0.1,0.9-0.4c0.2-0.3,0.3-0.7,0.3-1.2c0-0.5-0.1-0.9-0.3-1.2
				c-0.2-0.3-0.5-0.4-0.9-0.4c-0.4,0-0.7,0.1-0.9,0.4C196.6,122.7,196.5,123.1,196.5,123.7z M197.2,121c0.1-0.2,0.2-0.3,0.4-0.6
				c0.1-0.2,0.2-0.4,0.3-0.6h0.8v0.1c-0.1,0.2-0.3,0.4-0.5,0.6c-0.2,0.2-0.4,0.4-0.6,0.6L197.2,121L197.2,121z"/>
			<path d="M203.5,125.7v-2.7c0-0.3-0.1-0.6-0.2-0.8c-0.2-0.2-0.4-0.2-0.7-0.2c-0.4,0-0.7,0.1-0.9,0.3c-0.2,0.2-0.3,0.6-0.3,1.2v2.2
				h-0.6v-4.1h0.5l0.1,0.6h0c0.1-0.2,0.3-0.4,0.5-0.5s0.5-0.2,0.8-0.2c0.5,0,0.9,0.1,1.1,0.4s0.4,0.6,0.4,1.1v2.7H203.5z"/>
			<path d="M206,124.8L206,124.8c0,0.3-0.1,0.6-0.2,1c-0.1,0.3-0.2,0.6-0.4,0.9H205c0.1-0.3,0.1-0.6,0.2-1s0.1-0.7,0.2-0.9H206z"/>
			<path d="M78.7,131.1c0,0.6-0.2,1-0.6,1.3c-0.4,0.3-0.9,0.4-1.6,0.4h-0.6v2.2h-0.6v-5.5h1.4C78.1,129.5,78.7,130,78.7,131.1z
				 M75.9,132.2h0.6c0.6,0,1-0.1,1.2-0.3c0.3-0.2,0.4-0.5,0.4-0.9c0-0.4-0.1-0.6-0.4-0.8s-0.6-0.3-1.1-0.3h-0.7V132.2z"/>
			<path d="M81.5,135c-0.6,0-1.1-0.2-1.4-0.6c-0.4-0.4-0.5-0.9-0.5-1.5c0-0.7,0.2-1.2,0.5-1.6c0.3-0.4,0.8-0.6,1.3-0.6
				c0.5,0,0.9,0.2,1.2,0.5s0.4,0.8,0.4,1.3v0.4h-2.8c0,0.5,0.1,0.9,0.4,1.1c0.2,0.3,0.6,0.4,1,0.4c0.4,0,0.9-0.1,1.3-0.3v0.6
				c-0.2,0.1-0.4,0.2-0.6,0.2C82,135,81.8,135,81.5,135z M81.4,131.3c-0.3,0-0.6,0.1-0.8,0.3c-0.2,0.2-0.3,0.5-0.3,0.9h2.1
				c0-0.4-0.1-0.7-0.3-0.9C81.9,131.4,81.7,131.3,81.4,131.3z"/>
			<path d="M86,130.8c0.2,0,0.3,0,0.5,0l-0.1,0.6c-0.2,0-0.3-0.1-0.4-0.1c-0.3,0-0.6,0.1-0.9,0.4c-0.2,0.3-0.4,0.6-0.4,1v2.2h-0.6
				v-4.1h0.5l0.1,0.8h0c0.2-0.3,0.3-0.5,0.5-0.6S85.7,130.8,86,130.8z"/>
			<path d="M89.1,131.3h-1v3.6h-0.6v-3.6h-0.7V131l0.7-0.2v-0.2c0-1,0.4-1.5,1.3-1.5c0.2,0,0.5,0,0.8,0.1l-0.2,0.5
				c-0.2-0.1-0.4-0.1-0.6-0.1c-0.2,0-0.4,0.1-0.5,0.2c-0.1,0.2-0.2,0.4-0.2,0.8v0.3h1V131.3z"/>
			<path d="M91.5,135c-0.6,0-1.1-0.2-1.4-0.6c-0.4-0.4-0.5-0.9-0.5-1.5c0-0.7,0.2-1.2,0.5-1.6c0.3-0.4,0.8-0.6,1.3-0.6
				c0.5,0,0.9,0.2,1.2,0.5s0.4,0.8,0.4,1.3v0.4h-2.8c0,0.5,0.1,0.9,0.4,1.1c0.2,0.3,0.6,0.4,1,0.4c0.4,0,0.9-0.1,1.3-0.3v0.6
				c-0.2,0.1-0.4,0.2-0.6,0.2C92.1,135,91.8,135,91.5,135z M91.4,131.3c-0.3,0-0.6,0.1-0.8,0.3c-0.2,0.2-0.3,0.5-0.3,0.9h2.1
				c0-0.4-0.1-0.7-0.3-0.9C91.9,131.4,91.7,131.3,91.4,131.3z"/>
			<path d="M95.7,135c-0.6,0-1.1-0.2-1.4-0.6c-0.3-0.4-0.5-0.9-0.5-1.6c0-0.7,0.2-1.2,0.5-1.6c0.3-0.4,0.8-0.6,1.4-0.6
				c0.2,0,0.4,0,0.6,0.1c0.2,0,0.4,0.1,0.5,0.2l-0.2,0.5c-0.1-0.1-0.3-0.1-0.4-0.1s-0.3-0.1-0.4-0.1c-0.8,0-1.2,0.5-1.2,1.6
				c0,0.5,0.1,0.9,0.3,1.2c0.2,0.3,0.5,0.4,0.9,0.4c0.3,0,0.7-0.1,1.1-0.2v0.6C96.5,135,96.2,135,95.7,135z"/>
			<path d="M99.4,135c-0.6,0-1.1-0.2-1.4-0.6c-0.3-0.4-0.5-0.9-0.5-1.6c0-0.7,0.2-1.2,0.5-1.6c0.3-0.4,0.8-0.6,1.4-0.6
				c0.2,0,0.4,0,0.6,0.1c0.2,0,0.4,0.1,0.5,0.2l-0.2,0.5c-0.1-0.1-0.3-0.1-0.4-0.1s-0.3-0.1-0.4-0.1c-0.8,0-1.2,0.5-1.2,1.6
				c0,0.5,0.1,0.9,0.3,1.2c0.2,0.3,0.5,0.4,0.9,0.4c0.3,0,0.7-0.1,1.1-0.2v0.6C100.2,135,99.8,135,99.4,135z"/>
			<path d="M101.3,129.7c0-0.1,0-0.2,0.1-0.3s0.2-0.1,0.3-0.1c0.1,0,0.2,0,0.3,0.1s0.1,0.2,0.1,0.3s0,0.2-0.1,0.3
				c-0.1,0.1-0.2,0.1-0.3,0.1c-0.1,0-0.2,0-0.3-0.1C101.4,130,101.3,129.9,101.3,129.7z M102,135h-0.6v-4.1h0.6V135z"/>
			<path d="M106.9,132.9c0,0.7-0.2,1.2-0.5,1.6c-0.3,0.4-0.8,0.6-1.4,0.6c-0.4,0-0.7-0.1-1-0.3c-0.3-0.2-0.5-0.4-0.7-0.7
				c-0.2-0.3-0.2-0.7-0.2-1.1c0-0.7,0.2-1.2,0.5-1.6c0.3-0.4,0.8-0.6,1.4-0.6c0.6,0,1,0.2,1.4,0.6
				C106.7,131.7,106.9,132.2,106.9,132.9z M103.8,132.9c0,0.5,0.1,0.9,0.3,1.2s0.5,0.4,0.9,0.4c0.4,0,0.7-0.1,0.9-0.4
				c0.2-0.3,0.3-0.7,0.3-1.2c0-0.5-0.1-0.9-0.3-1.2c-0.2-0.3-0.5-0.4-0.9-0.4c-0.4,0-0.7,0.1-0.9,0.4
				C103.9,132,103.8,132.4,103.8,132.9z"/>
			<path d="M110.8,135v-2.7c0-0.3-0.1-0.6-0.2-0.8c-0.2-0.2-0.4-0.2-0.7-0.2c-0.4,0-0.7,0.1-0.9,0.3c-0.2,0.2-0.3,0.6-0.3,1.2v2.2
				H108v-4.1h0.5l0.1,0.6h0c0.1-0.2,0.3-0.4,0.5-0.5c0.2-0.1,0.5-0.2,0.8-0.2c0.5,0,0.9,0.1,1.1,0.4s0.4,0.6,0.4,1.1v2.7H110.8z"/>
			<path d="M115.2,135l-0.1-0.6h0c-0.2,0.3-0.4,0.4-0.6,0.5c-0.2,0.1-0.5,0.1-0.8,0.1c-0.4,0-0.7-0.1-1-0.3
				c-0.2-0.2-0.3-0.5-0.3-0.9c0-0.8,0.7-1.3,2-1.3l0.7,0v-0.3c0-0.3-0.1-0.6-0.2-0.7c-0.1-0.2-0.4-0.2-0.7-0.2
				c-0.3,0-0.7,0.1-1.2,0.3l-0.2-0.5c0.2-0.1,0.4-0.2,0.7-0.3c0.2-0.1,0.5-0.1,0.7-0.1c0.5,0,0.9,0.1,1.1,0.3c0.2,0.2,0.4,0.6,0.4,1
				v2.8H115.2z M113.8,134.5c0.4,0,0.7-0.1,0.9-0.3s0.3-0.5,0.3-0.9v-0.4l-0.6,0c-0.5,0-0.8,0.1-1.1,0.2s-0.3,0.3-0.3,0.6
				c0,0.2,0.1,0.4,0.2,0.5C113.3,134.5,113.5,134.5,113.8,134.5z"/>
			<path d="M122.2,135v-2.7c0-0.3-0.1-0.6-0.2-0.7s-0.4-0.2-0.7-0.2c-0.4,0-0.7,0.1-0.9,0.3c-0.2,0.2-0.3,0.6-0.3,1v2.3h-0.6v-2.7
				c0-0.3-0.1-0.6-0.2-0.7s-0.4-0.2-0.7-0.2c-0.4,0-0.7,0.1-0.9,0.4c-0.2,0.2-0.3,0.6-0.3,1.2v2.2h-0.6v-4.1h0.5l0.1,0.6h0
				c0.1-0.2,0.3-0.4,0.5-0.5c0.2-0.1,0.5-0.2,0.7-0.2c0.6,0,1.1,0.2,1.3,0.7h0c0.1-0.2,0.3-0.4,0.5-0.5s0.5-0.2,0.8-0.2
				c0.5,0,0.8,0.1,1,0.4s0.3,0.6,0.3,1.1v2.7H122.2z"/>
			<path d="M124,129.7c0-0.1,0-0.2,0.1-0.3s0.2-0.1,0.3-0.1c0.1,0,0.2,0,0.3,0.1s0.1,0.2,0.1,0.3s0,0.2-0.1,0.3
				c-0.1,0.1-0.2,0.1-0.3,0.1c-0.1,0-0.2,0-0.3-0.1C124,130,124,129.9,124,129.7z M124.7,135h-0.6v-4.1h0.6V135z"/>
			<path d="M127.7,135c-0.6,0-1.1-0.2-1.4-0.6c-0.4-0.4-0.5-0.9-0.5-1.5c0-0.7,0.2-1.2,0.5-1.6c0.3-0.4,0.8-0.6,1.3-0.6
				c0.5,0,0.9,0.2,1.2,0.5c0.3,0.3,0.4,0.8,0.4,1.3v0.4h-2.8c0,0.5,0.1,0.9,0.4,1.1c0.2,0.3,0.6,0.4,1,0.4c0.4,0,0.9-0.1,1.3-0.3
				v0.6c-0.2,0.1-0.4,0.2-0.6,0.2C128.2,135,128,135,127.7,135z M127.6,131.3c-0.3,0-0.6,0.1-0.8,0.3c-0.2,0.2-0.3,0.5-0.3,0.9h2.1
				c0-0.4-0.1-0.7-0.3-0.9C128.1,131.4,127.9,131.3,127.6,131.3z"/>
			<path d="M133.1,135v-2.7c0-0.3-0.1-0.6-0.2-0.8c-0.2-0.2-0.4-0.2-0.7-0.2c-0.4,0-0.7,0.1-0.9,0.3c-0.2,0.2-0.3,0.6-0.3,1.2v2.2
				h-0.6v-4.1h0.5l0.1,0.6h0c0.1-0.2,0.3-0.4,0.5-0.5s0.5-0.2,0.8-0.2c0.5,0,0.9,0.1,1.1,0.4s0.4,0.6,0.4,1.1v2.7H133.1z"/>
			<path d="M136.3,134.5c0.1,0,0.2,0,0.3,0c0.1,0,0.2,0,0.2-0.1v0.5c-0.1,0-0.2,0.1-0.3,0.1s-0.2,0-0.4,0c-0.8,0-1.2-0.4-1.2-1.3
				v-2.4h-0.6V131l0.6-0.3l0.3-0.9h0.4v1h1.2v0.5h-1.2v2.4c0,0.2,0.1,0.4,0.2,0.6S136.1,134.5,136.3,134.5z"/>
			<path d="M141.2,132.9c0,0.7-0.2,1.2-0.5,1.6s-0.8,0.6-1.4,0.6c-0.4,0-0.7-0.1-1-0.3c-0.3-0.2-0.5-0.4-0.7-0.7s-0.2-0.7-0.2-1.1
				c0-0.7,0.2-1.2,0.5-1.6c0.3-0.4,0.8-0.6,1.4-0.6c0.6,0,1,0.2,1.4,0.6C141.1,131.7,141.2,132.2,141.2,132.9z M138.1,132.9
				c0,0.5,0.1,0.9,0.3,1.2c0.2,0.3,0.5,0.4,0.9,0.4s0.7-0.1,0.9-0.4c0.2-0.3,0.3-0.7,0.3-1.2c0-0.5-0.1-0.9-0.3-1.2
				c-0.2-0.3-0.5-0.4-0.9-0.4c-0.4,0-0.7,0.1-0.9,0.4C138.2,132,138.1,132.4,138.1,132.9z"/>
			<path d="M143.7,130.8h0.7l0.9,2.3c0.2,0.5,0.3,0.9,0.4,1.2h0c0-0.1,0.1-0.3,0.2-0.7c0.1-0.3,0.4-1.3,1-2.9h0.7l-1.8,4.7
				c-0.2,0.5-0.4,0.8-0.6,1c-0.2,0.2-0.5,0.3-0.9,0.3c-0.2,0-0.4,0-0.6-0.1v-0.5c0.1,0,0.3,0,0.5,0c0.4,0,0.7-0.2,0.9-0.7l0.2-0.6
				L143.7,130.8z"/>
			<path d="M153.7,135l-0.7-1.7h-2.2l-0.7,1.7h-0.6l2.2-5.5h0.5l2.2,5.5H153.7z M152.8,132.6l-0.6-1.7c-0.1-0.2-0.2-0.5-0.3-0.8
				c-0.1,0.2-0.1,0.5-0.2,0.8l-0.6,1.7H152.8z"/>
			<path d="M156.6,135c-0.6,0-1.1-0.2-1.4-0.6c-0.3-0.4-0.5-0.9-0.5-1.6c0-0.7,0.2-1.2,0.5-1.6c0.3-0.4,0.8-0.6,1.4-0.6
				c0.2,0,0.4,0,0.6,0.1c0.2,0,0.4,0.1,0.5,0.2l-0.2,0.5c-0.1-0.1-0.3-0.1-0.4-0.1s-0.3-0.1-0.4-0.1c-0.8,0-1.2,0.5-1.2,1.6
				c0,0.5,0.1,0.9,0.3,1.2s0.5,0.4,0.9,0.4c0.3,0,0.7-0.1,1.1-0.2v0.6C157.4,135,157.1,135,156.6,135z"/>
			<path d="M160,134.5c0.1,0,0.2,0,0.3,0c0.1,0,0.2,0,0.2-0.1v0.5c-0.1,0-0.2,0.1-0.3,0.1s-0.2,0-0.4,0c-0.8,0-1.2-0.4-1.2-1.3v-2.4
				h-0.6V131l0.6-0.3l0.3-0.9h0.4v1h1.2v0.5h-1.2v2.4c0,0.2,0.1,0.4,0.2,0.6S159.8,134.5,160,134.5z"/>
			<path d="M161.9,130.8v2.7c0,0.3,0.1,0.6,0.2,0.8c0.2,0.2,0.4,0.2,0.7,0.2c0.4,0,0.7-0.1,0.9-0.4s0.3-0.6,0.3-1.2v-2.2h0.6v4.1
				h-0.5l-0.1-0.6h0c-0.1,0.2-0.3,0.4-0.5,0.5c-0.2,0.1-0.5,0.2-0.8,0.2c-0.5,0-0.9-0.1-1.1-0.4c-0.2-0.2-0.4-0.6-0.4-1.1v-2.7
				H161.9z"/>
			<path d="M168.6,135l-0.1-0.6h0c-0.2,0.3-0.4,0.4-0.6,0.5c-0.2,0.1-0.5,0.1-0.8,0.1c-0.4,0-0.7-0.1-1-0.3
				c-0.2-0.2-0.3-0.5-0.3-0.9c0-0.8,0.7-1.3,2-1.3l0.7,0v-0.3c0-0.3-0.1-0.6-0.2-0.7c-0.1-0.2-0.4-0.2-0.7-0.2
				c-0.3,0-0.7,0.1-1.2,0.3l-0.2-0.5c0.2-0.1,0.4-0.2,0.7-0.3c0.2-0.1,0.5-0.1,0.7-0.1c0.5,0,0.9,0.1,1.1,0.3c0.2,0.2,0.4,0.6,0.4,1
				v2.8H168.6z M167.2,134.5c0.4,0,0.7-0.1,0.9-0.3s0.3-0.5,0.3-0.9v-0.4l-0.6,0c-0.5,0-0.8,0.1-1.1,0.2c-0.2,0.1-0.3,0.3-0.3,0.6
				c0,0.2,0.1,0.4,0.2,0.5C166.7,134.5,166.9,134.5,167.2,134.5z"/>
			<path d="M170.9,135h-0.6v-5.8h0.6V135z"/>
			<path d="M172.2,129.7c0-0.1,0-0.2,0.1-0.3c0.1-0.1,0.2-0.1,0.3-0.1c0.1,0,0.2,0,0.3,0.1s0.1,0.2,0.1,0.3s0,0.2-0.1,0.3
				c-0.1,0.1-0.2,0.1-0.3,0.1c-0.1,0-0.2,0-0.3-0.1C172.2,130,172.2,129.9,172.2,129.7z M172.9,135h-0.6v-4.1h0.6V135z"/>
			<path d="M176.8,135h-3v-0.4l2.2-3.2H174v-0.5h2.8v0.5l-2.2,3.1h2.3V135z"/>
			<path d="M180.3,135l-0.1-0.6h0c-0.2,0.3-0.4,0.4-0.6,0.5c-0.2,0.1-0.5,0.1-0.8,0.1c-0.4,0-0.7-0.1-1-0.3
				c-0.2-0.2-0.3-0.5-0.3-0.9c0-0.8,0.7-1.3,2-1.3l0.7,0v-0.3c0-0.3-0.1-0.6-0.2-0.7c-0.1-0.2-0.4-0.2-0.7-0.2
				c-0.3,0-0.7,0.1-1.2,0.3l-0.2-0.5c0.2-0.1,0.4-0.2,0.7-0.3c0.2-0.1,0.5-0.1,0.7-0.1c0.5,0,0.9,0.1,1.1,0.3c0.2,0.2,0.4,0.6,0.4,1
				v2.8H180.3z M178.9,134.5c0.4,0,0.7-0.1,0.9-0.3s0.3-0.5,0.3-0.9v-0.4l-0.6,0c-0.5,0-0.8,0.1-1.1,0.2c-0.2,0.1-0.3,0.3-0.3,0.6
				c0,0.2,0.1,0.4,0.2,0.5C178.5,134.5,178.6,134.5,178.9,134.5z"/>
			<path d="M183.7,135c-0.6,0-1.1-0.2-1.4-0.6c-0.3-0.4-0.5-0.9-0.5-1.6c0-0.7,0.2-1.2,0.5-1.6c0.3-0.4,0.8-0.6,1.4-0.6
				c0.2,0,0.4,0,0.6,0.1c0.2,0,0.4,0.1,0.5,0.2l-0.2,0.5c-0.1-0.1-0.3-0.1-0.4-0.1s-0.3-0.1-0.4-0.1c-0.8,0-1.2,0.5-1.2,1.6
				c0,0.5,0.1,0.9,0.3,1.2s0.5,0.4,0.9,0.4c0.3,0,0.7-0.1,1.1-0.2v0.6C184.4,135,184.1,135,183.7,135z"/>
			<path d="M185.6,129.7c0-0.1,0-0.2,0.1-0.3c0.1-0.1,0.2-0.1,0.3-0.1c0.1,0,0.2,0,0.3,0.1s0.1,0.2,0.1,0.3s0,0.2-0.1,0.3
				c-0.1,0.1-0.2,0.1-0.3,0.1c-0.1,0-0.2,0-0.3-0.1C185.7,130,185.6,129.9,185.6,129.7z M186.3,135h-0.6v-4.1h0.6V135z"/>
			<path d="M191.2,132.9c0,0.7-0.2,1.2-0.5,1.6s-0.8,0.6-1.4,0.6c-0.4,0-0.7-0.1-1-0.3c-0.3-0.2-0.5-0.4-0.7-0.7s-0.2-0.7-0.2-1.1
				c0-0.7,0.2-1.2,0.5-1.6c0.3-0.4,0.8-0.6,1.4-0.6c0.6,0,1,0.2,1.4,0.6C191,131.7,191.2,132.2,191.2,132.9z M188,132.9
				c0,0.5,0.1,0.9,0.3,1.2c0.2,0.3,0.5,0.4,0.9,0.4s0.7-0.1,0.9-0.4c0.2-0.3,0.3-0.7,0.3-1.2c0-0.5-0.1-0.9-0.3-1.2
				c-0.2-0.3-0.5-0.4-0.9-0.4c-0.4,0-0.7,0.1-0.9,0.4C188.1,132,188,132.4,188,132.9z M188.7,130.2c0.1-0.2,0.2-0.3,0.4-0.6
				c0.1-0.2,0.2-0.4,0.3-0.6h0.8v0.1c-0.1,0.2-0.3,0.4-0.5,0.6c-0.2,0.2-0.4,0.4-0.6,0.6L188.7,130.2L188.7,130.2z"/>
			<path d="M195,135v-2.7c0-0.3-0.1-0.6-0.2-0.8c-0.2-0.2-0.4-0.2-0.7-0.2c-0.4,0-0.7,0.1-0.9,0.3c-0.2,0.2-0.3,0.6-0.3,1.2v2.2
				h-0.6v-4.1h0.5l0.1,0.6h0c0.1-0.2,0.3-0.4,0.5-0.5s0.5-0.2,0.8-0.2c0.5,0,0.9,0.1,1.1,0.4s0.4,0.6,0.4,1.1v2.7H195z"/>
			<path d="M203.4,132.2c0,0.9-0.2,1.6-0.7,2.1c-0.5,0.5-1.2,0.7-2.1,0.7H199v-5.5h1.7c0.9,0,1.5,0.2,2,0.7
				C203.2,130.6,203.4,131.3,203.4,132.2z M202.7,132.2c0-0.7-0.2-1.3-0.5-1.6s-0.9-0.5-1.6-0.5h-0.9v4.4h0.8c0.8,0,1.3-0.2,1.7-0.6
				C202.5,133.5,202.7,132.9,202.7,132.2z"/>
			<path d="M208.1,132.9c0,0.7-0.2,1.2-0.5,1.6s-0.8,0.6-1.4,0.6c-0.4,0-0.7-0.1-1-0.3c-0.3-0.2-0.5-0.4-0.7-0.7s-0.2-0.7-0.2-1.1
				c0-0.7,0.2-1.2,0.5-1.6c0.3-0.4,0.8-0.6,1.4-0.6c0.6,0,1,0.2,1.4,0.6C207.9,131.7,208.1,132.2,208.1,132.9z M204.9,132.9
				c0,0.5,0.1,0.9,0.3,1.2c0.2,0.3,0.5,0.4,0.9,0.4s0.7-0.1,0.9-0.4c0.2-0.3,0.3-0.7,0.3-1.2c0-0.5-0.1-0.9-0.3-1.2
				c-0.2-0.3-0.5-0.4-0.9-0.4c-0.4,0-0.7,0.1-0.9,0.4C205,132,204.9,132.4,204.9,132.9z"/>
			<path d="M210.8,135c-0.6,0-1.1-0.2-1.4-0.6c-0.3-0.4-0.5-0.9-0.5-1.6c0-0.7,0.2-1.2,0.5-1.6c0.3-0.4,0.8-0.6,1.4-0.6
				c0.2,0,0.4,0,0.6,0.1c0.2,0,0.4,0.1,0.5,0.2l-0.2,0.5c-0.1-0.1-0.3-0.1-0.4-0.1s-0.3-0.1-0.4-0.1c-0.8,0-1.2,0.5-1.2,1.6
				c0,0.5,0.1,0.9,0.3,1.2s0.5,0.4,0.9,0.4c0.3,0,0.7-0.1,1.1-0.2v0.6C211.5,135,211.2,135,210.8,135z"/>
			<path d="M214.5,135c-0.6,0-1.1-0.2-1.4-0.6c-0.3-0.4-0.5-0.9-0.5-1.5c0-0.7,0.2-1.2,0.5-1.6s0.8-0.6,1.3-0.6
				c0.5,0,0.9,0.2,1.2,0.5s0.4,0.8,0.4,1.3v0.4h-2.8c0,0.5,0.1,0.9,0.4,1.1c0.2,0.3,0.6,0.4,1,0.4c0.4,0,0.9-0.1,1.3-0.3v0.6
				c-0.2,0.1-0.4,0.2-0.6,0.2C215,135,214.8,135,214.5,135z M214.3,131.3c-0.3,0-0.6,0.1-0.8,0.3c-0.2,0.2-0.3,0.5-0.3,0.9h2.1
				c0-0.4-0.1-0.7-0.3-0.9C214.9,131.4,214.7,131.3,214.3,131.3z"/>
			<path d="M219.9,135v-2.7c0-0.3-0.1-0.6-0.2-0.8c-0.2-0.2-0.4-0.2-0.7-0.2c-0.4,0-0.7,0.1-0.9,0.3c-0.2,0.2-0.3,0.6-0.3,1.2v2.2
				h-0.6v-4.1h0.5l0.1,0.6h0c0.1-0.2,0.3-0.4,0.5-0.5s0.5-0.2,0.8-0.2c0.5,0,0.9,0.1,1.1,0.4s0.4,0.6,0.4,1.1v2.7H219.9z"/>
			<path d="M223.1,134.5c0.1,0,0.2,0,0.3,0c0.1,0,0.2,0,0.2-0.1v0.5c-0.1,0-0.2,0.1-0.3,0.1s-0.2,0-0.4,0c-0.8,0-1.2-0.4-1.2-1.3
				v-2.4h-0.6V131l0.6-0.3l0.3-0.9h0.4v1h1.2v0.5h-1.2v2.4c0,0.2,0.1,0.4,0.2,0.6S222.9,134.5,223.1,134.5z"/>
			<path d="M226.2,135c-0.6,0-1.1-0.2-1.4-0.6c-0.3-0.4-0.5-0.9-0.5-1.5c0-0.7,0.2-1.2,0.5-1.6s0.8-0.6,1.3-0.6
				c0.5,0,0.9,0.2,1.2,0.5s0.4,0.8,0.4,1.3v0.4h-2.8c0,0.5,0.1,0.9,0.4,1.1c0.2,0.3,0.6,0.4,1,0.4c0.4,0,0.9-0.1,1.3-0.3v0.6
				c-0.2,0.1-0.4,0.2-0.6,0.2C226.7,135,226.5,135,226.2,135z M226.1,131.3c-0.3,0-0.6,0.1-0.8,0.3c-0.2,0.2-0.3,0.5-0.3,0.9h2.1
				c0-0.4-0.1-0.7-0.3-0.9C226.6,131.4,226.4,131.3,226.1,131.3z"/>
			<path d="M230.4,132.9c0-0.7,0.1-1.3,0.3-1.9c0.2-0.6,0.5-1.1,0.8-1.5h0.6c-0.4,0.5-0.6,1-0.8,1.6c-0.2,0.6-0.3,1.2-0.3,1.8
				c0,0.6,0.1,1.2,0.3,1.8c0.2,0.6,0.5,1.1,0.8,1.6h-0.6c-0.4-0.4-0.6-0.9-0.8-1.5C230.5,134.1,230.4,133.5,230.4,132.9z"/>
			<path d="M233.1,135v-5.5h0.6v5.5H233.1z"/>
			<path d="M235.9,135h-0.6v-5.5h3v0.6h-2.4v2h2.3v0.6h-2.3V135z"/>
			<path d="M243.6,132.2c0,0.9-0.2,1.6-0.7,2.1c-0.5,0.5-1.2,0.7-2.1,0.7h-1.5v-5.5h1.7c0.9,0,1.5,0.2,2,0.7
				C243.4,130.6,243.6,131.3,243.6,132.2z M242.9,132.2c0-0.7-0.2-1.3-0.5-1.6s-0.9-0.5-1.6-0.5h-0.9v4.4h0.8c0.8,0,1.3-0.2,1.7-0.6
				C242.7,133.5,242.9,132.9,242.9,132.2z"/>
			<path d="M249.6,132.2c0,0.9-0.2,1.6-0.7,2.1c-0.4,0.5-1.1,0.8-1.8,0.8c-0.8,0-1.4-0.2-1.9-0.7c-0.4-0.5-0.7-1.2-0.7-2.1
				c0-0.9,0.2-1.6,0.7-2.1c0.4-0.5,1.1-0.7,1.9-0.7c0.8,0,1.4,0.3,1.8,0.8S249.6,131.3,249.6,132.2z M245.2,132.2
				c0,0.7,0.2,1.3,0.5,1.7c0.3,0.4,0.8,0.6,1.4,0.6c0.6,0,1.1-0.2,1.4-0.6c0.3-0.4,0.5-0.9,0.5-1.7c0-0.7-0.2-1.3-0.5-1.7
				c-0.3-0.4-0.8-0.6-1.4-0.6c-0.6,0-1.1,0.2-1.4,0.6C245.4,130.9,245.2,131.5,245.2,132.2z"/>
			<path d="M252,132.9c0,0.7-0.1,1.3-0.3,1.8s-0.5,1.1-0.8,1.5h-0.6c0.3-0.5,0.6-1,0.8-1.6c0.2-0.6,0.3-1.2,0.3-1.8
				c0-0.6-0.1-1.2-0.3-1.8c-0.2-0.6-0.5-1.1-0.8-1.6h0.6c0.4,0.4,0.6,0.9,0.8,1.5C251.9,131.6,252,132.2,252,132.9z"/>
			<path d="M78.3,144.2h-3v-5.5h3v0.6h-2.4v1.8h2.3v0.6h-2.3v2h2.4V144.2z"/>
			<path d="M82.1,143.1c0,0.4-0.1,0.7-0.4,0.9s-0.7,0.3-1.2,0.3c-0.5,0-1-0.1-1.3-0.3v-0.6c0.2,0.1,0.4,0.2,0.6,0.2s0.4,0.1,0.7,0.1
				c0.3,0,0.6-0.1,0.7-0.2c0.2-0.1,0.3-0.3,0.3-0.5c0-0.2-0.1-0.3-0.2-0.4c-0.1-0.1-0.4-0.2-0.8-0.4c-0.4-0.1-0.7-0.3-0.8-0.4
				c-0.2-0.1-0.3-0.2-0.4-0.4c-0.1-0.1-0.1-0.3-0.1-0.5c0-0.3,0.1-0.6,0.4-0.8c0.3-0.2,0.6-0.3,1.1-0.3c0.4,0,0.9,0.1,1.3,0.3
				l-0.2,0.5c-0.4-0.2-0.8-0.3-1.1-0.3c-0.3,0-0.5,0-0.7,0.1c-0.1,0.1-0.2,0.2-0.2,0.4c0,0.1,0,0.2,0.1,0.3c0.1,0.1,0.1,0.2,0.3,0.2
				c0.1,0.1,0.4,0.2,0.7,0.3c0.5,0.2,0.8,0.4,1,0.5C82,142.6,82.1,142.8,82.1,143.1z"/>
			<path d="M84.7,144.3c-0.6,0-1.1-0.2-1.4-0.6c-0.3-0.4-0.5-0.9-0.5-1.6c0-0.7,0.2-1.2,0.5-1.6c0.3-0.4,0.8-0.6,1.4-0.6
				c0.2,0,0.4,0,0.6,0.1c0.2,0,0.4,0.1,0.5,0.2l-0.2,0.5c-0.1-0.1-0.3-0.1-0.4-0.1s-0.3-0.1-0.4-0.1c-0.8,0-1.2,0.5-1.2,1.6
				c0,0.5,0.1,0.9,0.3,1.2c0.2,0.3,0.5,0.4,0.9,0.4c0.3,0,0.7-0.1,1.1-0.2v0.6C85.5,144.2,85.1,144.3,84.7,144.3z"/>
			<path d="M87.3,140.1v2.7c0,0.3,0.1,0.6,0.2,0.8c0.2,0.2,0.4,0.2,0.7,0.2c0.4,0,0.7-0.1,0.9-0.4s0.3-0.6,0.3-1.2v-2.2h0.6v4.1
				h-0.5l-0.1-0.6h0c-0.1,0.2-0.3,0.4-0.5,0.5c-0.2,0.1-0.5,0.2-0.8,0.2c-0.5,0-0.9-0.1-1.1-0.4c-0.2-0.2-0.4-0.6-0.4-1.1v-2.7H87.3
				z"/>
			<path d="M93.2,144.3c-0.6,0-1.1-0.2-1.4-0.6c-0.4-0.4-0.5-0.9-0.5-1.5c0-0.7,0.2-1.2,0.5-1.6c0.3-0.4,0.8-0.6,1.3-0.6
				c0.5,0,0.9,0.2,1.2,0.5s0.4,0.8,0.4,1.3v0.4h-2.8c0,0.5,0.1,0.9,0.4,1.1c0.2,0.3,0.6,0.4,1,0.4c0.4,0,0.9-0.1,1.3-0.3v0.6
				c-0.2,0.1-0.4,0.2-0.6,0.2C93.7,144.2,93.5,144.3,93.2,144.3z M93,140.5c-0.3,0-0.6,0.1-0.8,0.3c-0.2,0.2-0.3,0.5-0.3,0.9H94
				c0-0.4-0.1-0.7-0.3-0.9C93.6,140.6,93.3,140.5,93,140.5z"/>
			<path d="M96.4,144.2h-0.6v-5.8h0.6V144.2z"/>
			<path d="M100.2,144.2l-0.1-0.6h0c-0.2,0.3-0.4,0.4-0.6,0.5c-0.2,0.1-0.5,0.1-0.8,0.1c-0.4,0-0.7-0.1-1-0.3
				c-0.2-0.2-0.3-0.5-0.3-0.9c0-0.8,0.7-1.3,2-1.3l0.7,0v-0.3c0-0.3-0.1-0.6-0.2-0.7c-0.1-0.2-0.4-0.2-0.7-0.2
				c-0.3,0-0.7,0.1-1.2,0.3l-0.2-0.5c0.2-0.1,0.4-0.2,0.7-0.3c0.2-0.1,0.5-0.1,0.7-0.1c0.5,0,0.9,0.1,1.1,0.3c0.2,0.2,0.4,0.6,0.4,1
				v2.8H100.2z M98.8,143.8c0.4,0,0.7-0.1,0.9-0.3s0.3-0.5,0.3-0.9v-0.4l-0.6,0c-0.5,0-0.8,0.1-1.1,0.2s-0.3,0.3-0.3,0.6
				c0,0.2,0.1,0.4,0.2,0.5C98.4,143.7,98.6,143.8,98.8,143.8z"/>
			<path d="M107.1,142.7c0,0.5-0.2,0.9-0.5,1.1s-0.8,0.4-1.4,0.4c-0.6,0-1.1-0.1-1.5-0.3v-0.6c0.2,0.1,0.5,0.2,0.7,0.2
				c0.3,0.1,0.5,0.1,0.8,0.1c0.4,0,0.7-0.1,1-0.2c0.2-0.2,0.3-0.4,0.3-0.7c0-0.2,0-0.3-0.1-0.5c-0.1-0.1-0.2-0.2-0.4-0.3
				s-0.4-0.2-0.8-0.3c-0.5-0.2-0.9-0.4-1.1-0.7c-0.2-0.2-0.3-0.6-0.3-1c0-0.4,0.2-0.8,0.5-1c0.3-0.3,0.7-0.4,1.3-0.4
				c0.5,0,1,0.1,1.5,0.3l-0.2,0.6c-0.5-0.2-0.9-0.3-1.3-0.3c-0.3,0-0.6,0.1-0.8,0.2s-0.3,0.3-0.3,0.6c0,0.2,0,0.3,0.1,0.5
				s0.2,0.2,0.4,0.3c0.2,0.1,0.4,0.2,0.8,0.3c0.6,0.2,1,0.4,1.2,0.7S107.1,142.4,107.1,142.7z"/>
			<path d="M108.7,140.1v2.7c0,0.3,0.1,0.6,0.2,0.8c0.2,0.2,0.4,0.2,0.7,0.2c0.4,0,0.7-0.1,0.9-0.4s0.3-0.6,0.3-1.2v-2.2h0.6v4.1
				H111l-0.1-0.6h0c-0.1,0.2-0.3,0.4-0.5,0.5c-0.2,0.1-0.5,0.2-0.8,0.2c-0.5,0-0.9-0.1-1.1-0.4c-0.2-0.2-0.4-0.6-0.4-1.1v-2.7H108.7
				z"/>
			<path d="M114.7,144.3c-0.3,0-0.5,0-0.7-0.1s-0.4-0.3-0.6-0.5h0c0,0.2,0,0.5,0,0.7v1.7h-0.6v-6h0.5l0.1,0.6h0
				c0.2-0.2,0.3-0.4,0.6-0.5c0.2-0.1,0.5-0.2,0.7-0.2c0.5,0,1,0.2,1.3,0.6s0.4,0.9,0.4,1.6c0,0.7-0.1,1.2-0.5,1.6
				C115.7,144.1,115.3,144.3,114.7,144.3z M114.6,140.5c-0.4,0-0.7,0.1-0.9,0.3c-0.2,0.2-0.3,0.6-0.3,1.1v0.1c0,0.6,0.1,1,0.3,1.2
				c0.2,0.2,0.5,0.4,0.9,0.4c0.4,0,0.6-0.1,0.8-0.4s0.3-0.7,0.3-1.2c0-0.5-0.1-0.9-0.3-1.2C115.3,140.7,115,140.5,114.6,140.5z"/>
			<path d="M119.3,144.3c-0.6,0-1.1-0.2-1.4-0.6c-0.4-0.4-0.5-0.9-0.5-1.5c0-0.7,0.2-1.2,0.5-1.6c0.3-0.4,0.8-0.6,1.3-0.6
				c0.5,0,0.9,0.2,1.2,0.5s0.4,0.8,0.4,1.3v0.4h-2.8c0,0.5,0.1,0.9,0.4,1.1c0.2,0.3,0.6,0.4,1,0.4c0.4,0,0.9-0.1,1.3-0.3v0.6
				c-0.2,0.1-0.4,0.2-0.6,0.2C119.8,144.2,119.5,144.3,119.3,144.3z M119.1,140.5c-0.3,0-0.6,0.1-0.8,0.3c-0.2,0.2-0.3,0.5-0.3,0.9
				h2.1c0-0.4-0.1-0.7-0.3-0.9C119.7,140.6,119.4,140.5,119.1,140.5z"/>
			<path d="M123.7,140c0.2,0,0.3,0,0.5,0l-0.1,0.6c-0.2,0-0.3-0.1-0.4-0.1c-0.3,0-0.6,0.1-0.9,0.4c-0.2,0.3-0.4,0.6-0.4,1v2.2h-0.6
				v-4.1h0.5l0.1,0.8h0c0.2-0.3,0.3-0.5,0.5-0.6S123.4,140,123.7,140z"/>
			<path d="M124.9,139c0-0.1,0-0.2,0.1-0.3s0.2-0.1,0.3-0.1c0.1,0,0.2,0,0.3,0.1s0.1,0.2,0.1,0.3s0,0.2-0.1,0.3
				c-0.1,0.1-0.2,0.1-0.3,0.1c-0.1,0-0.2,0-0.3-0.1C124.9,139.2,124.9,139.1,124.9,139z M125.6,144.2h-0.6v-4.1h0.6V144.2z"/>
			<path d="M130.4,142.1c0,0.7-0.2,1.2-0.5,1.6s-0.8,0.6-1.4,0.6c-0.4,0-0.7-0.1-1-0.3c-0.3-0.2-0.5-0.4-0.7-0.7
				c-0.2-0.3-0.2-0.7-0.2-1.1c0-0.7,0.2-1.2,0.5-1.6c0.3-0.4,0.8-0.6,1.4-0.6c0.6,0,1,0.2,1.4,0.6
				C130.3,141,130.4,141.5,130.4,142.1z M127.3,142.1c0,0.5,0.1,0.9,0.3,1.2s0.5,0.4,0.9,0.4c0.4,0,0.7-0.1,0.9-0.4
				c0.2-0.3,0.3-0.7,0.3-1.2c0-0.5-0.1-0.9-0.3-1.2c-0.2-0.3-0.5-0.4-0.9-0.4c-0.4,0-0.7,0.1-0.9,0.4
				C127.4,141.2,127.3,141.6,127.3,142.1z"/>
			<path d="M133.4,140c0.2,0,0.3,0,0.5,0l-0.1,0.6c-0.2,0-0.3-0.1-0.4-0.1c-0.3,0-0.6,0.1-0.9,0.4c-0.2,0.3-0.4,0.6-0.4,1v2.2h-0.6
				v-4.1h0.5l0.1,0.8h0c0.2-0.3,0.3-0.5,0.5-0.6S133.1,140,133.4,140z"/>
			<path d="M139.4,143.6L139.4,143.6c-0.3,0.4-0.7,0.6-1.3,0.6c-0.5,0-1-0.2-1.3-0.6s-0.4-0.9-0.4-1.6s0.2-1.2,0.4-1.6
				c0.3-0.4,0.7-0.6,1.2-0.6c0.6,0,1,0.2,1.3,0.6h0l0-0.3l0-0.3v-1.7h0.6v5.8h-0.5L139.4,143.6z M138.2,143.7c0.4,0,0.7-0.1,0.9-0.3
				c0.2-0.2,0.3-0.6,0.3-1.1v-0.1c0-0.6-0.1-1-0.3-1.2c-0.2-0.2-0.5-0.4-0.9-0.4c-0.4,0-0.6,0.1-0.8,0.4s-0.3,0.7-0.3,1.2
				c0,0.5,0.1,0.9,0.3,1.2C137.5,143.6,137.8,143.7,138.2,143.7z"/>
			<path d="M143.1,144.3c-0.6,0-1.1-0.2-1.4-0.6c-0.3-0.4-0.5-0.9-0.5-1.5c0-0.7,0.2-1.2,0.5-1.6s0.8-0.6,1.3-0.6
				c0.5,0,0.9,0.2,1.2,0.5s0.4,0.8,0.4,1.3v0.4h-2.8c0,0.5,0.1,0.9,0.4,1.1c0.2,0.3,0.6,0.4,1,0.4c0.4,0,0.9-0.1,1.3-0.3v0.6
				c-0.2,0.1-0.4,0.2-0.6,0.2C143.6,144.2,143.3,144.3,143.1,144.3z M142.9,140.5c-0.3,0-0.6,0.1-0.8,0.3c-0.2,0.2-0.3,0.5-0.3,0.9
				h2.1c0-0.4-0.1-0.7-0.3-0.9C143.5,140.6,143.2,140.5,142.9,140.5z"/>
			<path d="M147.7,144.2v-5.5h0.6v5.5H147.7z"/>
			<path d="M152.5,144.2v-2.7c0-0.3-0.1-0.6-0.2-0.8c-0.2-0.2-0.4-0.2-0.7-0.2c-0.4,0-0.7,0.1-0.9,0.3c-0.2,0.2-0.3,0.6-0.3,1.2v2.2
				h-0.6v-4.1h0.5l0.1,0.6h0c0.1-0.2,0.3-0.4,0.5-0.5s0.5-0.2,0.8-0.2c0.5,0,0.9,0.1,1.1,0.4s0.4,0.6,0.4,1.1v2.7H152.5z"/>
			<path d="M156.3,140.6h-1v3.6h-0.6v-3.6h-0.7v-0.3l0.7-0.2v-0.2c0-1,0.4-1.5,1.3-1.5c0.2,0,0.5,0,0.8,0.1l-0.2,0.5
				c-0.2-0.1-0.4-0.1-0.6-0.1c-0.2,0-0.4,0.1-0.5,0.2s-0.2,0.4-0.2,0.8v0.3h1V140.6z"/>
			<path d="M160.6,142.1c0,0.7-0.2,1.2-0.5,1.6s-0.8,0.6-1.4,0.6c-0.4,0-0.7-0.1-1-0.3c-0.3-0.2-0.5-0.4-0.7-0.7s-0.2-0.7-0.2-1.1
				c0-0.7,0.2-1.2,0.5-1.6c0.3-0.4,0.8-0.6,1.4-0.6c0.6,0,1,0.2,1.4,0.6C160.4,141,160.6,141.5,160.6,142.1z M157.5,142.1
				c0,0.5,0.1,0.9,0.3,1.2c0.2,0.3,0.5,0.4,0.9,0.4s0.7-0.1,0.9-0.4c0.2-0.3,0.3-0.7,0.3-1.2c0-0.5-0.1-0.9-0.3-1.2
				c-0.2-0.3-0.5-0.4-0.9-0.4c-0.4,0-0.7,0.1-0.9,0.4C157.6,141.2,157.5,141.6,157.5,142.1z"/>
			<path d="M163.5,140c0.2,0,0.3,0,0.5,0l-0.1,0.6c-0.2,0-0.3-0.1-0.4-0.1c-0.3,0-0.6,0.1-0.9,0.4c-0.2,0.3-0.4,0.6-0.4,1v2.2h-0.6
				v-4.1h0.5l0.1,0.8h0c0.2-0.3,0.3-0.5,0.5-0.6S163.3,140,163.5,140z"/>
			<path d="M170,144.2v-2.7c0-0.3-0.1-0.6-0.2-0.7s-0.4-0.2-0.7-0.2c-0.4,0-0.7,0.1-0.9,0.3c-0.2,0.2-0.3,0.6-0.3,1v2.3h-0.6v-2.7
				c0-0.3-0.1-0.6-0.2-0.7s-0.4-0.2-0.7-0.2c-0.4,0-0.7,0.1-0.9,0.4s-0.3,0.6-0.3,1.2v2.2h-0.6v-4.1h0.5l0.1,0.6h0
				c0.1-0.2,0.3-0.4,0.5-0.5c0.2-0.1,0.5-0.2,0.7-0.2c0.6,0,1.1,0.2,1.3,0.7h0c0.1-0.2,0.3-0.4,0.5-0.5c0.2-0.1,0.5-0.2,0.8-0.2
				c0.5,0,0.8,0.1,1,0.4c0.2,0.2,0.3,0.6,0.3,1.1v2.7H170z"/>
			<path d="M174.4,144.2l-0.1-0.6h0c-0.2,0.3-0.4,0.4-0.6,0.5c-0.2,0.1-0.5,0.1-0.8,0.1c-0.4,0-0.7-0.1-1-0.3
				c-0.2-0.2-0.3-0.5-0.3-0.9c0-0.8,0.7-1.3,2-1.3l0.7,0v-0.3c0-0.3-0.1-0.6-0.2-0.7c-0.1-0.2-0.4-0.2-0.7-0.2
				c-0.3,0-0.7,0.1-1.2,0.3l-0.2-0.5c0.2-0.1,0.4-0.2,0.7-0.3c0.2-0.1,0.5-0.1,0.7-0.1c0.5,0,0.9,0.1,1.1,0.3c0.2,0.2,0.4,0.6,0.4,1
				v2.8H174.4z M173,143.8c0.4,0,0.7-0.1,0.9-0.3s0.3-0.5,0.3-0.9v-0.4l-0.6,0c-0.5,0-0.8,0.1-1.1,0.2c-0.2,0.1-0.3,0.3-0.3,0.6
				c0,0.2,0.1,0.4,0.2,0.5C172.6,143.7,172.8,143.8,173,143.8z M172.9,139.4c0.1-0.2,0.2-0.3,0.4-0.6c0.1-0.2,0.2-0.4,0.3-0.6h0.8
				v0.1c-0.1,0.2-0.3,0.4-0.5,0.6c-0.2,0.2-0.4,0.4-0.6,0.6L172.9,139.4L172.9,139.4z"/>
			<path d="M177.5,143.8c0.1,0,0.2,0,0.3,0c0.1,0,0.2,0,0.2-0.1v0.5c-0.1,0-0.2,0.1-0.3,0.1s-0.2,0-0.4,0c-0.8,0-1.2-0.4-1.2-1.3
				v-2.4h-0.6v-0.3l0.6-0.3l0.3-0.9h0.4v1h1.2v0.5h-1.2v2.4c0,0.2,0.1,0.4,0.2,0.6S177.3,143.8,177.5,143.8z"/>
			<path d="M178.8,139c0-0.1,0-0.2,0.1-0.3c0.1-0.1,0.2-0.1,0.3-0.1c0.1,0,0.2,0,0.3,0.1s0.1,0.2,0.1,0.3s0,0.2-0.1,0.3
				c-0.1,0.1-0.2,0.1-0.3,0.1c-0.1,0-0.2,0-0.3-0.1C178.9,139.2,178.8,139.1,178.8,139z M179.5,144.2h-0.6v-4.1h0.6V144.2z"/>
			<path d="M182.5,144.3c-0.6,0-1.1-0.2-1.4-0.6c-0.3-0.4-0.5-0.9-0.5-1.6c0-0.7,0.2-1.2,0.5-1.6c0.3-0.4,0.8-0.6,1.4-0.6
				c0.2,0,0.4,0,0.6,0.1c0.2,0,0.4,0.1,0.5,0.2l-0.2,0.5c-0.1-0.1-0.3-0.1-0.4-0.1s-0.3-0.1-0.4-0.1c-0.8,0-1.2,0.5-1.2,1.6
				c0,0.5,0.1,0.9,0.3,1.2s0.5,0.4,0.9,0.4c0.3,0,0.7-0.1,1.1-0.2v0.6C183.2,144.2,182.9,144.3,182.5,144.3z"/>
			<path d="M187,144.2l-0.1-0.6h0c-0.2,0.3-0.4,0.4-0.6,0.5c-0.2,0.1-0.5,0.1-0.8,0.1c-0.4,0-0.7-0.1-1-0.3
				c-0.2-0.2-0.3-0.5-0.3-0.9c0-0.8,0.7-1.3,2-1.3l0.7,0v-0.3c0-0.3-0.1-0.6-0.2-0.7c-0.1-0.2-0.4-0.2-0.7-0.2
				c-0.3,0-0.7,0.1-1.2,0.3l-0.2-0.5c0.2-0.1,0.4-0.2,0.7-0.3c0.2-0.1,0.5-0.1,0.7-0.1c0.5,0,0.9,0.1,1.1,0.3c0.2,0.2,0.4,0.6,0.4,1
				v2.8H187z M185.6,143.8c0.4,0,0.7-0.1,0.9-0.3s0.3-0.5,0.3-0.9v-0.4l-0.6,0c-0.5,0-0.8,0.1-1.1,0.2c-0.2,0.1-0.3,0.3-0.3,0.6
				c0,0.2,0.1,0.4,0.2,0.5C185.1,143.7,185.3,143.8,185.6,143.8z"/>
			<path d="M190.4,142.1c0-0.7,0.1-1.3,0.3-1.9c0.2-0.6,0.5-1.1,0.8-1.5h0.6c-0.4,0.5-0.6,1-0.8,1.6c-0.2,0.6-0.3,1.2-0.3,1.8
				c0,0.6,0.1,1.2,0.3,1.8c0.2,0.6,0.5,1.1,0.8,1.6h-0.6c-0.4-0.4-0.6-0.9-0.8-1.5C190.5,143.3,190.4,142.7,190.4,142.1z"/>
			<path d="M196.1,144.2h-3v-5.5h3v0.6h-2.4v1.8h2.3v0.6h-2.3v2h2.4V144.2z"/>
			<path d="M200.4,142.7c0,0.5-0.2,0.9-0.5,1.1s-0.8,0.4-1.4,0.4c-0.6,0-1.1-0.1-1.5-0.3v-0.6c0.2,0.1,0.5,0.2,0.7,0.2
				c0.3,0.1,0.5,0.1,0.8,0.1c0.4,0,0.7-0.1,1-0.2c0.2-0.2,0.3-0.4,0.3-0.7c0-0.2,0-0.3-0.1-0.5c-0.1-0.1-0.2-0.2-0.4-0.3
				c-0.2-0.1-0.4-0.2-0.8-0.3c-0.5-0.2-0.9-0.4-1.1-0.7c-0.2-0.2-0.3-0.6-0.3-1c0-0.4,0.2-0.8,0.5-1c0.3-0.3,0.7-0.4,1.3-0.4
				c0.5,0,1,0.1,1.5,0.3l-0.2,0.6c-0.5-0.2-0.9-0.3-1.3-0.3c-0.3,0-0.6,0.1-0.8,0.2s-0.3,0.3-0.3,0.6c0,0.2,0,0.3,0.1,0.5
				c0.1,0.1,0.2,0.2,0.4,0.3c0.2,0.1,0.4,0.2,0.8,0.3c0.6,0.2,1,0.4,1.2,0.7S200.4,142.4,200.4,142.7z"/>
			<path d="M201.5,144.2v-5.5h0.6v5.5H201.5z"/>
			<path d="M207.9,144.2h-0.7l-3-4.6h0c0,0.5,0.1,1,0.1,1.5v3.1h-0.6v-5.5h0.7l3,4.6h0c0-0.1,0-0.3,0-0.7c0-0.4,0-0.6,0-0.8v-3.2
				h0.6V144.2z"/>
			<path d="M210.7,142.1c0,0.7-0.1,1.3-0.3,1.8s-0.5,1.1-0.8,1.5h-0.6c0.3-0.5,0.6-1,0.8-1.6c0.2-0.6,0.3-1.2,0.3-1.8
				c0-0.6-0.1-1.2-0.3-1.8c-0.2-0.6-0.5-1.1-0.8-1.6h0.6c0.4,0.4,0.6,0.9,0.8,1.5C210.6,140.8,210.7,141.4,210.7,142.1z"/>
		</g>
	</g>
	<path class="st2" d="M46.8,126.9h-5.3c-1,0-1.9,0.8-1.9,1.9V143c0,1,0.8,1.9,1.9,1.9h5.3c1,0,1.9-0.8,1.9-1.9v-14.2
		C48.7,127.8,47.9,126.9,46.8,126.9z M43.5,143.4h-1.9v-1.9h1.9V143.4z M43.5,140.4h-1.9v-1.9h1.9V140.4z M43.5,137.3h-1.9v-1.9h1.9
		V137.3z M43.5,134.2h-1.9v-1.9h1.9V134.2z M43.5,131.2h-1.9v-1.9h1.9V131.2z M46.7,143.4h-1.9v-1.9h1.9V143.4z M46.7,140.4h-1.9
		v-1.9h1.9V140.4z M46.7,137.3h-1.9v-1.9h1.9V137.3z M46.7,134.2h-1.9v-1.9h1.9V134.2z M46.7,131.2h-1.9v-1.9h1.9V131.2z"/>
	<path class="st2" d="M58.2,122.3h-6.1c-1.4,0-2.5,1.1-2.5,2.5v17.7c0,1.4,1.1,2.5,2.5,2.5h6.1c1.4,0,2.5-1.1,2.5-2.5v-17.7
		C60.7,123.4,59.6,122.3,58.2,122.3z M54.3,141.6h-2.5v-2.5h2.5V141.6z M54.3,138.1h-2.5v-2.5h2.5V138.1z M54.3,134.5h-2.5V132h2.5
		V134.5z M54.3,131h-2.5v-2.5h2.5V131z M54.3,127.4h-2.5v-2.5h2.5V127.4z M58.5,141.6H56v-2.5h2.5V141.6z M58.5,138.1H56v-2.5h2.5
		V138.1z M58.5,134.5H56V132h2.5V134.5z M58.5,131H56v-2.5h2.5V131z M58.5,127.4H56v-2.5h2.5V127.4z"/>
	<path class="st3" d="M75.7,175.7c-40.1,0-72.6-32.5-72.6-72.6s32.5-72.6,72.6-72.6"/>
</g>
</svg>
