<?xml version="1.0" encoding="utf-8"?>
<!-- Generator: Adobe Illustrator 26.0.3, SVG Export Plug-In . SVG Version: 6.00 Build 0)  -->
<svg version="1.1" id="Capa_1" xmlns="http://www.w3.org/2000/svg" xmlns:xlink="http://www.w3.org/1999/xlink" x="0px" y="0px"
	 viewBox="0 0 208.3 216.5" style="enable-background:new 0 0 208.3 216.5;" xml:space="preserve">
<style type="text/css">
	.st0{fill:#6592B4;}
	.st1{fill:#9D9D9C;}
	.st2{fill:#0E70B9;}
</style>
<g>
	<g id="Background">
	</g>
	<g>
		<g>
			<path class="st0" d="M71.9,139H26.6v-11.1l15.2-15.4c4.4-4.5,7.2-7.7,8.5-9.3c1.3-1.7,2.3-3.1,2.8-4.3c0.5-1.2,0.8-2.4,0.8-3.8
				c0-1.6-0.5-2.9-1.6-3.8c-1.1-0.9-2.5-1.4-4.4-1.4c-2,0-3.9,0.6-6,1.7c-2,1.1-4.3,2.8-6.8,5L26,85.7c3.2-2.9,5.9-4.9,8.1-6.2
				c2.2-1.2,4.6-2.2,7.1-2.8c2.6-0.7,5.5-1,8.7-1c4,0,7.6,0.7,10.8,2.1c3.2,1.4,5.6,3.4,7.4,6.1c1.7,2.6,2.6,5.6,2.6,8.9
				c0,2.4-0.3,4.7-0.9,6.8c-0.6,2.1-1.6,4.1-2.8,6.1c-1.3,2-3,4.1-5.1,6.3c-2.1,2.2-6.6,6.4-13.5,12.6v0.4h23.6V139z"/>
		</g>
	</g>
	<g>
		<g>
			<path class="st1" d="M91.9,89.4c0,1.3-0.5,2.4-1.4,3.2c-1,0.8-2.3,1.2-4,1.2c-1.6,0-3-0.3-4.2-0.9v-2.9c1,0.4,1.8,0.8,2.5,0.9
				c0.7,0.2,1.3,0.3,1.9,0.3c0.7,0,1.2-0.1,1.6-0.4c0.4-0.3,0.6-0.7,0.6-1.2c0-0.3-0.1-0.5-0.2-0.8s-0.4-0.4-0.7-0.7
				c-0.3-0.2-1-0.5-1.9-1c-0.9-0.4-1.6-0.8-2-1.2c-0.5-0.4-0.8-0.8-1.1-1.4c-0.3-0.5-0.4-1.1-0.4-1.8c0-1.3,0.4-2.3,1.3-3.1
				c0.9-0.7,2.1-1.1,3.7-1.1c0.8,0,1.5,0.1,2.2,0.3c0.7,0.2,1.4,0.4,2.2,0.8l-1,2.4c-0.8-0.3-1.4-0.5-2-0.7c-0.5-0.1-1-0.2-1.5-0.2
				c-0.6,0-1,0.1-1.4,0.4c-0.3,0.3-0.5,0.6-0.5,1.1c0,0.3,0.1,0.5,0.2,0.7s0.3,0.4,0.6,0.6c0.3,0.2,0.9,0.5,2,1
				c1.4,0.7,2.3,1.3,2.8,2C91.6,87.6,91.9,88.4,91.9,89.4z"/>
			<path class="st1" d="M103.1,93.5h-8.5V78.7h8.5v2.6h-5.4v3.2h5v2.6h-5v3.8h5.4V93.5z"/>
			<path class="st1" d="M118.4,86c0,2.4-0.7,4.3-2.1,5.6s-3.4,1.9-6,1.9h-4.2V78.7h4.6c2.4,0,4.3,0.6,5.6,1.9
				C117.7,81.9,118.4,83.7,118.4,86z M115.2,86c0-3.2-1.4-4.8-4.2-4.8h-1.7v9.6h1.3C113.6,90.9,115.2,89.3,115.2,86z"/>
			<path class="st1" d="M130,93.5h-8.5V78.7h8.5v2.6h-5.4v3.2h5v2.6h-5v3.8h5.4V93.5z"/>
			<path class="st1" d="M141.8,89.4c0,1.3-0.5,2.4-1.4,3.2c-1,0.8-2.3,1.2-4,1.2c-1.6,0-3-0.3-4.2-0.9v-2.9c1,0.4,1.8,0.8,2.5,0.9
				c0.7,0.2,1.3,0.3,1.9,0.3c0.7,0,1.2-0.1,1.6-0.4s0.6-0.7,0.6-1.2c0-0.3-0.1-0.5-0.2-0.8c-0.2-0.2-0.4-0.4-0.7-0.7
				c-0.3-0.2-1-0.5-1.9-1c-0.9-0.4-1.6-0.8-2-1.2c-0.5-0.4-0.8-0.8-1.1-1.4c-0.3-0.5-0.4-1.1-0.4-1.8c0-1.3,0.4-2.3,1.3-3.1
				c0.9-0.7,2.1-1.1,3.7-1.1c0.8,0,1.5,0.1,2.2,0.3c0.7,0.2,1.4,0.4,2.2,0.8l-1,2.4c-0.8-0.3-1.4-0.5-2-0.7c-0.5-0.1-1-0.2-1.5-0.2
				c-0.6,0-1,0.1-1.4,0.4s-0.5,0.6-0.5,1.1c0,0.3,0.1,0.5,0.2,0.7s0.3,0.4,0.6,0.6c0.3,0.2,0.9,0.5,2,1c1.4,0.7,2.3,1.3,2.8,2
				C141.5,87.6,141.8,88.4,141.8,89.4z"/>
			<path class="st1" d="M92.9,109.5c0,2.1-0.5,3.8-1.6,5.1s-2.6,1.9-4.4,1.9c-1.9,0-3.4-0.6-4.4-1.9c-1.1-1.2-1.6-3-1.6-5.1
				c0-2.2,0.5-3.9,1.6-5.1c1.1-1.2,2.6-1.9,4.4-1.9c1.9,0,3.4,0.6,4.4,1.9C92.3,105.6,92.9,107.3,92.9,109.5z M81.8,109.5
				c0,1.9,0.4,3.4,1.3,4.5s2.1,1.6,3.7,1.6c1.6,0,2.9-0.5,3.7-1.6c0.9-1,1.3-2.6,1.3-4.5c0-2-0.4-3.4-1.3-4.5
				c-0.9-1-2.1-1.6-3.7-1.6c-1.6,0-2.9,0.5-3.7,1.6C82.2,106,81.8,107.5,81.8,109.5z"/>
			<path class="st1" d="M96,116.2v-13.5h0.9v12.6h6.5v0.9H96z"/>
			<path class="st1" d="M105.7,116.2v-13.5h0.9v13.5H105.7z"/>
			<path class="st1" d="M118.5,102.7h1l-5.1,13.5h-0.8l-5-13.5h1l3.4,9.2c0.5,1.4,0.9,2.4,1,3.1c0.1-0.5,0.4-1.2,0.7-2.2
				L118.5,102.7z"/>
			<path class="st1" d="M132.8,109.5c0,2.1-0.5,3.8-1.6,5.1c-1.1,1.2-2.6,1.9-4.4,1.9c-1.9,0-3.4-0.6-4.4-1.9s-1.6-3-1.6-5.1
				c0-2.2,0.5-3.9,1.6-5.1c1.1-1.2,2.6-1.9,4.4-1.9c1.9,0,3.4,0.6,4.4,1.9C132.3,105.6,132.8,107.3,132.8,109.5z M121.7,109.5
				c0,1.9,0.4,3.4,1.3,4.5s2.1,1.6,3.7,1.6c1.6,0,2.9-0.5,3.7-1.6c0.9-1,1.3-2.6,1.3-4.5c0-2-0.4-3.4-1.3-4.5s-2.1-1.6-3.7-1.6
				c-1.6,0-2.9,0.5-3.7,1.6C122.2,106,121.7,107.5,121.7,109.5z"/>
			<path class="st1" d="M143.4,112.7c0,1.1-0.4,2-1.2,2.7c-0.8,0.7-1.9,1-3.3,1c-1.7,0-2.9-0.2-3.8-0.5v-0.9c1,0.4,2.2,0.6,3.7,0.6
				c1.1,0,2-0.3,2.6-0.8c0.7-0.5,1-1.2,1-2c0-0.5-0.1-0.9-0.3-1.3c-0.2-0.3-0.6-0.6-1.1-0.9c-0.5-0.3-1.2-0.6-2.1-0.9
				c-1.4-0.5-2.3-1-2.9-1.5c-0.5-0.6-0.8-1.3-0.8-2.2c0-1,0.4-1.8,1.2-2.5c0.8-0.6,1.8-1,3.1-1c1.3,0,2.5,0.2,3.6,0.7l-0.3,0.8
				c-1.1-0.5-2.2-0.7-3.2-0.7c-1,0-1.8,0.2-2.4,0.7s-0.9,1.1-0.9,1.9c0,0.5,0.1,0.9,0.3,1.2c0.2,0.3,0.5,0.6,0.9,0.9
				c0.4,0.3,1.1,0.6,2.1,0.9c1.1,0.4,1.8,0.7,2.4,1.1c0.5,0.3,0.9,0.7,1.2,1.2C143.3,111.6,143.4,112.1,143.4,112.7z"/>
			<path class="st1" d="M89.4,139H80v-0.7l7.9-11.9h-7.6v-0.9h8.8v0.7l-7.9,11.9h8.2V139z"/>
			<path class="st1" d="M98.6,134.2h-5.5l-1.9,4.8h-1l5.4-13.6h0.6l5.3,13.6h-1.1L98.6,134.2z M93.5,133.4h4.8l-1.8-4.9
				c-0.2-0.4-0.3-0.9-0.6-1.6c-0.2,0.6-0.3,1.1-0.5,1.6L93.5,133.4z M94.9,124.2c0.5-0.5,0.9-1,1.3-1.6c0.4-0.6,0.7-1,0.9-1.3h1.3
				v0.2c-0.2,0.3-0.6,0.7-1.1,1.3c-0.5,0.5-1.1,1.1-1.8,1.6h-0.6V124.2z"/>
			<path class="st1" d="M104.4,133.1v5.9h-0.9v-13.5h3.2c1.7,0,2.9,0.3,3.7,0.9s1.2,1.6,1.2,2.8c0,0.9-0.2,1.7-0.7,2.3
				c-0.5,0.6-1.2,1.1-2.2,1.3l3.7,6.2h-1.1l-3.5-5.9H104.4z M104.4,132.3h2.6c1.1,0,2-0.3,2.7-0.8c0.6-0.5,0.9-1.3,0.9-2.3
				c0-1-0.3-1.8-0.9-2.2c-0.6-0.5-1.6-0.7-3-0.7h-2.2V132.3z"/>
			<path class="st1" d="M121.3,134.2h-5.5l-1.9,4.8h-1l5.4-13.6h0.6l5.3,13.6h-1.1L121.3,134.2z M116.1,133.4h4.8l-1.8-4.9
				c-0.2-0.4-0.3-0.9-0.6-1.6c-0.2,0.6-0.3,1.1-0.5,1.6L116.1,133.4z"/>
			<path class="st1" d="M129.7,139h-1v-12.6h-4.4v-0.9h9.8v0.9h-4.4V139z"/>
			<path class="st1" d="M143.5,139h-7.4v-13.5h7.4v0.9H137v5.1h6.1v0.9H137v5.8h6.5V139z"/>
		</g>
	</g>
	<g>
		<path class="st2" d="M173,75.7c-12.2,0-22.2,9.9-22.2,22.2c0,0.5,0,0.9,0,1.4c0.9,17,17.3,39.7,22.1,39.7
			c5.3,0,21.3-23.1,22.1-39.7c0-0.5,0.1-0.9,0.1-1.4C195.1,85.7,185.2,75.7,173,75.7z M173,108.1c-5.7,0-10.2-4.6-10.2-10.2
			s4.6-10.2,10.2-10.2c5.6,0,10.2,4.6,10.2,10.2S178.6,108.1,173,108.1z"/>
		<path class="st2" d="M179.3,97.9c0,3.5-2.8,6.3-6.3,6.3c-3.5,0-6.3-2.8-6.3-6.3c0-3.5,2.8-6.3,6.3-6.3
			C176.5,91.6,179.3,94.4,179.3,97.9z"/>
	</g>
</g>
</svg>
