<?xml version="1.0" encoding="utf-8"?>
<!-- Generator: Adobe Illustrator 27.3.1, SVG Export Plug-In . SVG Version: 6.00 Build 0)  -->
<svg version="1.1" id="Capa_1" xmlns="http://www.w3.org/2000/svg" xmlns:xlink="http://www.w3.org/1999/xlink" x="0px" y="0px"
	 viewBox="0 0 1105.9 346.1" style="enable-background:new 0 0 1105.9 346.1;" xml:space="preserve">
<style type="text/css">
	.st0{fill:url(#SVGID_1_);}
	.st1{fill:#044E70;}
</style>
<linearGradient id="SVGID_1_" gradientUnits="userSpaceOnUse" x1="553.5677" y1="46.7129" x2="553.5677" y2="387.6562">
	<stop  offset="0" style="stop-color:#FFFFFF"/>
	<stop  offset="1" style="stop-color:#B4B4B4"/>
</linearGradient>
<rect x="1.2" class="st0" width="1104.7" height="346.1"/>
<g id="Capa_1-2">
	<path class="st1" d="M544.7,178.6c2.2,1.9,4.8,0.3,7.2,1.1c-0.5,0.7-0.9,1.5-1.4,2c-2.3,2.2-5.1,3-8.2,2.9c-0.3,0-0.9-0.6-0.9-0.9
		c0-1-0.6-1-1.3-1.2c-1.4-0.3-3-0.5-4.2-1.3c-1.7-1-3.5-1.2-5.4-1.3c-0.8,0-1.6,0-2.5,0c0.1-1.3,0.1-2.4,0.4-3.5
		c0.3-1.3,0.1-2.4-0.4-3.6c-0.5-1.6-0.8-3.3-0.9-5c-0.1-1.2-0.2-2-2-1.7c0.2-1.1,0.4-2.1,0.6-3.1c0.7-2.6,2.4-4.6,4.6-6.1
		c0.4-0.3,1-0.2,1.5-0.3c0,0.4,0.1,0.9,0,1.3c-0.1,1.3-0.1,2.5-0.3,3.8c-0.1,0.8-0.3,1.7-0.8,2.4c-1.3,1.9,0.4,6.6,2.6,7.1
		c0.3,0.1,0.7-0.1,0.9-0.3c5.2-4.1,10.4-8.3,15.7-12.6c-0.7-0.6-1.3-1.2-1.9-1.8c-1,0.6-1.9,2.1-3.2,0.7c-1-1.1,0-2,0.8-2.9
		c-0.8-0.8-1.3-1.5-2.7-1.2c-2.2,0.4-4.3-1.3-4.8-3.7c-0.4-1.8,0.9-3.7,2.7-4.2c2.6-0.7,5.5,1.4,5.3,4.1c-0.1,1.6,0.8,2,1.7,2.7
		c0.9-0.7,1.8-1.8,2.9-0.7c0.9,0.9,0.4,1.9-0.3,2.7c2.6,2.4,1.8,2.4,4.9-0.2c-0.6-0.9-1.3-1.9-0.3-2.8c1.1-1,2,0.1,2.9,0.8
		c0.8-0.8,1.9-1.1,1.7-2.7c-0.3-2.1,1.8-4.1,3.9-4.3c2-0.2,3.7,1.1,4.1,3.2c0.5,2.6-2,5.2-4.7,4.8c-1.3-0.2-2,0.3-2.7,1.2
		c0.6,0.9,1.9,1.9,0.6,3c-1.3,1.2-2.1-0.2-3.1-0.9c-0.7,0.7-1.4,1.3-2.2,2.1c2.6,2.1,5.2,4.2,7.7,6.2c2.6,2.1,5.2,4.1,7.8,6.3
		c1,0.8,1.7,0.7,2.5-0.1c1.5-1.5,1.9-3.4,2-5.4c0-0.2,0-0.4-0.1-0.5c-1.4-1.2-1.1-2.8-1.2-4.4c0-0.8-0.2-1.5-0.3-2.3
		c0-0.5,0.1-0.9,0.1-1.4c0.5,0.1,1,0.1,1.4,0.3c2.1,1.5,3.7,3.4,4.5,5.8c0.3,1,0.5,2,0.7,3c-1.9,0.5-1.7,0.6-1.9,2.4
		c-0.3,1.9-1,3.7-1.3,5.6c-0.2,1.4,0,2.8,0.1,4.3c0,0.6,0.1,1.2,0.2,1.9c-1.6,0-3.1-0.1-4.6,0c-0.8,0-1.6,0.3-2.3,0.7
		c-1.7,1-3.5,1.8-5.5,1.8c-0.7,0-1,0.3-1.1,1c0,0.4-0.6,1-0.9,1c-3.2,0-6.2-0.7-8.5-3.2c-0.4-0.5-0.7-1-1.1-1.6
		c2.4-1.1,5,0.7,7.1-1.1c1.1,1.7,2.6,1.1,3.9,0.4c1-0.5,1.9-1.1,2.8-1.8c1.3-1,1.3-1.6,0-2.8c-2.8-2.5-5.5-5.1-8.3-7.6
		c-2.2-2-4.4-4.1-6.7-6.2c-3.8,3.5-7.6,6.9-11.3,10.3c-1.2,1.1-2.5,2.2-3.7,3.4c-1,1-1,1.6,0.1,2.4c1.1,0.8,2.3,1.6,3.5,2.2
		C542.6,179.8,543.9,180.4,544.7,178.6L544.7,178.6L544.7,178.6z M563.9,150.6c-0.2,0.2-0.4,0.4-0.6,0.6c1.7-0.5,2.4-1.2,2.3-2.2
		c-0.1-1-0.7-1.5-1.7-1.6c-1-0.1-1.9,0.7-2.3,2.2c0.3-0.3,0.5-0.5,0.8-0.8C562.9,149.3,563.4,150,563.9,150.6L563.9,150.6
		L563.9,150.6z M542.3,151.4c0.6-0.7,1.2-1.3,1.8-1.9c-0.5-1.4-1.3-2.1-2.4-1.9c-0.9,0.1-1.4,0.7-1.5,1.6
		C540,150.2,540.6,150.8,542.3,151.4L542.3,151.4L542.3,151.4z"/>
</g>
<g>
	<path class="st1" d="M487.2,225v-20.3h4l8.3,13.6v-13.6h3.8V225h-4.1l-8.2-13.3V225H487.2z"/>
	<path class="st1" d="M506.9,215c0-2.1,0.3-3.8,0.9-5.2c0.5-1,1.1-2,1.9-2.8s1.7-1.4,2.6-1.8c1.3-0.5,2.7-0.8,4.4-0.8
		c3,0,5.4,0.9,7.2,2.8c1.8,1.9,2.7,4.4,2.7,7.7c0,3.3-0.9,5.8-2.7,7.7c-1.8,1.9-4.2,2.8-7.2,2.8c-3,0-5.4-0.9-7.2-2.8
		S506.9,218.2,506.9,215z M511.1,214.8c0,2.3,0.5,4,1.6,5.2c1.1,1.2,2.4,1.8,4,1.8c1.6,0,3-0.6,4-1.8c1-1.2,1.6-2.9,1.6-5.3
		c0-2.3-0.5-4.1-1.5-5.2c-1-1.1-2.4-1.7-4.1-1.7c-1.7,0-3.1,0.6-4.1,1.7C511.6,210.7,511.1,212.5,511.1,214.8z"/>
	<path class="st1" d="M534.4,225v-16.9h-6v-3.4h16.1v3.4h-6V225H534.4z"/>
	<path class="st1" d="M547,225v-20.3h4.1V225H547z"/>
	<path class="st1" d="M568,217.5l4,1.3c-0.6,2.2-1.6,3.9-3,4.9c-1.4,1.1-3.2,1.6-5.4,1.6c-2.7,0-4.9-0.9-6.7-2.8
		c-1.7-1.8-2.6-4.4-2.6-7.6c0-3.4,0.9-6,2.6-7.9c1.7-1.9,4-2.8,6.9-2.8c2.5,0,4.5,0.7,6.1,2.2c0.9,0.9,1.6,2.1,2.1,3.7l-4.1,1
		c-0.2-1.1-0.7-1.9-1.5-2.5c-0.8-0.6-1.7-0.9-2.8-0.9c-1.5,0-2.7,0.5-3.7,1.6c-0.9,1.1-1.4,2.8-1.4,5.3c0,2.6,0.5,4.4,1.4,5.5
		c0.9,1.1,2.1,1.6,3.6,1.6c1.1,0,2-0.3,2.8-1C567.1,220.1,567.7,219,568,217.5z"/>
	<path class="st1" d="M575.4,225v-20.3h4.1V225H575.4z"/>
	<path class="st1" d="M601.7,225h-4.5l-1.8-4.6h-8.1l-1.7,4.6h-4.4l7.9-20.3h4.3L601.7,225z M594.2,217l-2.8-7.5l-2.7,7.5H594.2z"/>
	<path class="st1" d="M602.9,218.4l4-0.4c0.2,1.3,0.7,2.3,1.5,3c0.7,0.6,1.7,0.9,3,0.9c1.3,0,2.3-0.3,3-0.8c0.7-0.6,1-1.2,1-2
		c0-0.5-0.1-0.9-0.4-1.2c-0.3-0.3-0.8-0.6-1.5-0.9c-0.5-0.2-1.6-0.5-3.3-0.9c-2.2-0.5-3.7-1.2-4.6-2c-1.2-1.1-1.9-2.5-1.9-4.1
		c0-1,0.3-2,0.9-2.9c0.6-0.9,1.4-1.6,2.5-2.1c1.1-0.5,2.4-0.7,4-0.7c2.6,0,4.5,0.6,5.8,1.7c1.3,1.1,2,2.6,2,4.5l-4.1,0.2
		c-0.2-1-0.6-1.8-1.1-2.3c-0.6-0.5-1.4-0.7-2.6-0.7c-1.2,0-2.1,0.2-2.8,0.7c-0.4,0.3-0.7,0.7-0.7,1.3c0,0.5,0.2,0.9,0.6,1.2
		c0.5,0.4,1.8,0.9,3.8,1.4c2,0.5,3.5,1,4.4,1.5c1,0.5,1.7,1.2,2.2,2.1s0.8,2,0.8,3.2c0,1.2-0.3,2.3-1,3.3c-0.6,1-1.6,1.8-2.7,2.3
		c-1.2,0.5-2.7,0.7-4.4,0.7c-2.6,0-4.5-0.6-5.9-1.8S603.1,220.7,602.9,218.4z"/>
</g>
</svg>
